<?xml version="1.0" encoding="UTF-8"?>
<svg width="414px" height="572px" viewBox="0 0 414 572" version="1.1" xmlns="http://www.w3.org/2000/svg" xmlns:xlink="http://www.w3.org/1999/xlink" xmlns:sketch="http://www.bohemiancoding.com/sketch/ns">
    <!-- Generator: Sketch 3.3.3 (12081) - http://www.bohemiancoding.com/sketch -->
    <title>Untitled 4</title>
    <desc>Created with Sketch.</desc>
    <defs></defs>
    <g id="Page-1" stroke="none" stroke-width="1" fill="none" fill-rule="evenodd" sketch:type="MSPage">
        <g id="docs" sketch:type="MSLayerGroup">
            <path d="M413.345613,156.120996 L413.345613,533.279531 C413.345613,553.562402 396.899129,569.998887 376.638726,569.998887 L37.3623871,569.998887 C17.0864032,569.998887 0.6555,553.562402 0.6555,533.279531 L0.6555,36.7193555 C0.654387097,16.4364844 17.0852903,0 37.3623871,0 L257.277629,0 L413.345613,156.120996 L413.345613,156.120996 Z" id="Shape" fill="#518EF8" sketch:type="MSShapeGroup"></path>
            <g id="Group" transform="translate(101.274194, 286.113281)" fill="#FFFFFF" sketch:type="MSShapeGroup">
                <rect id="Rectangle-path" x="0.200322581" y="0.0601171875" width="211.035387" height="23.4579492"></rect>
                <rect id="Rectangle-path" x="0.200322581" y="52.4489063" width="211.035387" height="23.4579492"></rect>
                <rect id="Rectangle-path" x="0.200322581" y="104.838809" width="211.035387" height="23.4579492"></rect>
                <rect id="Rectangle-path" x="0.200322581" y="157.228711" width="150.080565" height="23.4579492"></rect>
            </g>
            <path d="M278.570806,152.728828 L413.345613,208.271543 L413.345613,156.120996 L336.932565,133.551445 L278.570806,152.728828 Z" id="Shape" fill="#3A5BBC" sketch:type="MSShapeGroup"></path>
            <path d="M413.345613,156.120996 L293.984516,156.120996 C273.707419,156.120996 257.277629,139.684512 257.277629,119.401641 L257.277629,0 L413.345613,156.120996 L413.345613,156.120996 Z" id="Shape" fill="#ACD1FC" sketch:type="MSShapeGroup"></path>
        </g>
    </g>
</svg>