<?xml version="1.0" encoding="UTF-8"?>
<svg width="414px" height="572px" viewBox="0 0 414 572" version="1.1" xmlns="http://www.w3.org/2000/svg" xmlns:xlink="http://www.w3.org/1999/xlink" xmlns:sketch="http://www.bohemiancoding.com/sketch/ns">
    <!-- Generator: Sketch 3.3.3 (12081) - http://www.bohemiancoding.com/sketch -->
    <title>Untitled 4</title>
    <desc>Created with Sketch.</desc>
    <defs></defs>
    <g id="Page-1" stroke="none" stroke-width="1" fill="none" fill-rule="evenodd" sketch:type="MSPage">
        <g id="PDF" sketch:type="MSLayerGroup" transform="translate(0.000000, 1.000000)">
            <path d="M413.345613,156.120996 L413.345613,533.279531 C413.345613,553.562402 396.899129,569.998887 376.638726,569.998887 L37.3623871,569.998887 C17.0864032,569.998887 0.6555,553.562402 0.6555,533.279531 L0.6555,36.7193555 C0.654387097,16.4364844 17.0852903,0 37.3623871,0 L257.277629,0 L413.345613,156.120996 L413.345613,156.120996 Z" id="Shape" fill="#E2574C" sketch:type="MSShapeGroup"></path>
            <path d="M304.481594,394.464587 C309.529199,394.464587 312,390.066235 312,385.80348 C312,381.389542 309.423196,377.126788 304.481594,377.126788 L275.736124,377.126788 C270.116416,377.126788 266.983098,381.780749 266.983098,386.917875 L266.983098,457.548677 C266.983098,463.845397 270.568487,467.339765 275.419675,467.339765 C280.241244,467.339765 283.842222,463.845397 283.842222,457.548677 L283.842222,438.162886 L301.228243,438.162886 C306.621916,438.162886 309.318752,433.748948 309.318752,429.366181 C309.318752,425.073814 306.621916,420.809501 301.228243,420.809501 L283.842222,420.809501 L283.842222,394.464587 C283.842222,394.464587 304.481594,394.464587 304.481594,394.464587 L304.481594,394.464587 Z M207.322218,377.126788 L186.290012,377.126788 C180.57989,377.126788 176.526841,381.043534 176.526841,386.85709 L176.526841,457.609463 C176.526841,464.824194 182.356996,467.084155 186.530077,467.084155 L208.602046,467.084155 C234.725505,467.084155 251.975905,449.89754 251.975905,423.37027 C251.961875,395.323372 235.72162,377.126788 207.322218,377.126788 L207.322218,377.126788 Z M208.332362,449.64193 L195.510698,449.64193 L195.510698,394.570571 L207.066564,394.570571 C224.558588,394.570571 232.165849,406.305225 232.165849,422.497458 C232.165849,437.651667 224.69265,449.64193 208.332362,449.64193 L208.332362,449.64193 Z M131.285462,377.126788 L110.449673,377.126788 C104.558722,377.126788 101.274194,381.012362 101.274194,386.917875 L101.274194,457.548677 C101.274194,463.845397 105.040411,467.339765 110.102046,467.339765 C115.16368,467.339765 118.929898,463.845397 118.929898,457.548677 L118.929898,436.926921 L131.991628,436.926921 C148.11185,436.926921 161.415204,425.508661 161.415204,407.146866 C161.416763,389.177836 148.581068,377.126788 131.285462,377.126788 L131.285462,377.126788 Z M130.939394,420.359067 L118.931457,420.359067 L118.931457,393.711786 L130.939394,393.711786 C138.351797,393.711786 143.067363,399.495728 143.067363,407.04244 C143.051774,414.575125 138.351797,420.359067 130.939394,420.359067 L130.939394,420.359067 Z" id="Shape-Copy" fill="#FFFFFF" sketch:type="MSShapeGroup"></path>
            <path d="M278.570806,152.728828 L413.345613,208.271543 L413.345613,156.120996 L336.932565,133.551445 L278.570806,152.728828 Z" id="Shape" fill="#B53629" sketch:type="MSShapeGroup"></path>
            <path d="M293.984516,156.120996 C273.707419,156.120996 257.277629,139.684512 257.277629,119.401641 L257.277629,0 L413.345613,156.120996 L293.984516,156.120996 Z" id="Shape" fill="#D34637" sketch:type="MSShapeGroup"></path>
        </g>
    </g>
</svg>