<svg width="414" height="572" viewBox="0 0 414 572" xmlns="http://www.w3.org/2000/svg"><title>Untitled 4</title><g fill="none" fill-rule="evenodd"><path d="M413.346 156.121V533.28c0 20.282-16.447 36.719-36.707 36.719H37.362c-20.276 0-36.706-16.437-36.706-36.72V36.72C.653 16.436 17.085 0 37.362 0h219.916l156.068 156.121z" fill="#518EF8"/><path d="M101.474 286.173H312.51v23.458H101.474zm0 52.389H312.51v23.458H101.474zm0 52.39H312.51v23.458H101.474zm0 52.39h150.081V466.8h-150.08z" fill="#FFF"/><path d="M278.57 152.729l134.776 55.543V156.12l-76.413-22.57-58.362 19.178z" fill="#3A5BBC"/><path d="M413.346 156.121H293.985c-20.278 0-36.707-16.436-36.707-36.72V0l156.068 156.121z" fill="#ACD1FC"/></g></svg>