<svg width="414" height="572" viewBox="0 0 414 572" xmlns="http://www.w3.org/2000/svg"><title>Untitled 4</title><g fill="none" fill-rule="evenodd"><path d="M413.346 157.121V534.28c0 20.282-16.447 36.719-36.707 36.719H37.362c-20.276 0-36.706-16.437-36.706-36.72V37.72C.653 17.436 17.085 1 37.362 1h219.916l156.068 156.121z" fill="#E2574C"/><path d="M304.482 395.465c5.047 0 7.518-4.399 7.518-8.662 0-4.413-2.577-8.676-7.518-8.676h-28.746c-5.62 0-8.753 4.654-8.753 9.79v70.632c0 6.296 3.585 9.79 8.437 9.79 4.821 0 8.422-3.494 8.422-9.79v-19.386h17.386c5.394 0 8.09-4.414 8.09-8.797 0-4.292-2.696-8.556-8.09-8.556h-17.386v-26.345h20.64zm-97.16-17.338H186.29c-5.71 0-9.763 3.917-9.763 9.73v70.752c0 7.215 5.83 9.475 10.003 9.475h22.072c26.124 0 43.374-17.186 43.374-43.714-.014-28.047-16.254-46.243-44.654-46.243zm1.01 72.515h-12.821V395.57h11.556c17.492 0 25.099 11.734 25.099 27.926 0 15.155-7.473 27.145-23.834 27.145zm-77.047-72.515H110.45c-5.891 0-9.176 3.885-9.176 9.79v70.632c0 6.296 3.766 9.79 8.828 9.79 5.062 0 8.828-3.494 8.828-9.79v-20.622h13.062c16.12 0 29.423-11.418 29.423-29.78.002-17.97-12.834-30.02-30.13-30.02zm-.346 43.232h-12.008v-26.647h12.008c7.413 0 12.128 5.784 12.128 13.33-.015 7.533-4.715 13.317-12.128 13.317z" fill="#FFF"/><path d="M278.57 153.729l134.776 55.543V157.12l-76.413-22.57-58.362 19.178z" fill="#B53629"/><path d="M293.985 157.121c-20.278 0-36.707-16.436-36.707-36.72V1l156.068 156.121H293.985z" fill="#D34637"/></g></svg>