<svg xmlns="http://www.w3.org/2000/svg" viewBox="0 0 285.02 288.9"><title>Ресурс 1</title><g id="Слой_2" data-name="Слой 2"><g id="Layer_1" data-name="Layer 1"><polygon points="136.08 166.65 135.21 166.15 139.42 151.21 140.43 151.49 136.77 164.43 146.08 154.74 146.84 155.46 136.08 166.65" fill="#231f20"/><rect x="139.1" y="110.72" width="2.77" height="23.23" transform="translate(-2.44 2.86) rotate(-1.16)" fill="#231f20"/><polygon points="137.65 141.69 136.29 139.27 139.4 137.53 139.33 133.97 142.1 133.91 142.21 139.14 137.65 141.69" fill="#231f20"/><rect x="115.22" y="144.76" width="23.23" height="2.77" transform="translate(-55.21 80.52) rotate(-29.22)" fill="#231f20"/><rect x="116.7" y="150.2" width="23.23" height="2.77" transform="matrix(1, -0.02, 0.02, 1, -3.04, 2.63)" fill="#231f20"/><polygon points="145.25 155.77 143.51 152.67 139.95 152.74 139.9 149.97 145.12 149.86 147.67 154.42 145.25 155.77" fill="#231f20"/><rect x="150.74" y="153.62" width="2.77" height="23.23" transform="translate(-61.31 95.32) rotate(-29.23)" fill="#231f20"/><rect x="156.18" y="152.14" width="2.77" height="23.23" transform="translate(-3.27 3.21) rotate(-1.16)" fill="#231f20"/><rect x="159.6" y="138.55" width="23.23" height="2.77" transform="translate(-46.53 101.41) rotate(-29.23)" fill="#231f20"/><polygon points="155.95 152.17 155.84 146.95 160.4 144.4 161.76 146.82 158.65 148.56 158.72 152.12 155.95 152.17" fill="#231f20"/><rect x="158.12" y="133.11" width="23.23" height="2.77" transform="translate(-2.64 3.4) rotate(-1.14)" fill="#231f20"/><rect x="144.53" y="109.24" width="2.77" height="23.23" transform="translate(-40.43 86.64) rotate(-29.23)" fill="#231f20"/><polygon points="152.93 136.23 150.38 131.67 152.8 130.31 154.54 133.42 158.1 133.35 158.15 136.12 152.93 136.23" fill="#231f20"/><polygon points="172.13 156.86 157.19 152.64 157.47 151.64 170.41 155.3 160.72 145.98 161.44 145.23 172.64 155.99 172.13 156.86" fill="#231f20"/><polygon points="158.63 134.88 157.63 134.59 161.28 121.65 151.97 131.35 151.22 130.63 161.97 119.43 162.85 119.94 158.63 134.88" fill="#231f20"/><polygon points="136.61 140.85 125.41 130.1 125.92 129.22 140.86 133.44 140.57 134.44 127.64 130.79 137.33 140.1 136.61 140.85" fill="#231f20"/><rect x="153.07" y="142.46" width="0.69" height="33.5" transform="translate(-36.36 45.77) rotate(-15.19)" fill="#231f20"/><rect x="144.29" y="110.13" width="0.69" height="33.49" transform="translate(-28.19 42.33) rotate(-15.19)" fill="#231f20"/><rect x="148.44" y="138.31" width="33.5" height="0.69" transform="translate(-30.48 47.95) rotate(-15.14)" fill="#231f20"/><rect x="116.12" y="147.09" width="33.49" height="0.69" transform="matrix(0.97, -0.26, 0.26, 0.97, -33.92, 39.86)" fill="#231f20"/><rect x="152.79" y="140.66" width="0.69" height="9.47" transform="translate(-49.15 206) rotate(-60.19)" fill="#231f20"/><rect x="197.74" y="147.9" width="1.39" height="46.89" transform="translate(-48.89 258.34) rotate(-60.19)" fill="#231f20"/><rect x="98.92" y="91.29" width="1.39" height="46.89" transform="translate(-49.46 144.14) rotate(-60.19)" fill="#231f20"/><rect x="144.57" y="135.95" width="0.69" height="9.47" transform="translate(-49.2 196.49) rotate(-60.19)" fill="#231f20"/><rect x="146.64" y="138.59" width="9.47" height="0.69" transform="translate(-44.41 201.26) rotate(-60.2)" fill="#231f20"/><rect x="97.27" y="191.76" width="46.89" height="1.39" transform="translate(-106.28 201.51) rotate(-60.19)" fill="#231f20"/><rect x="141.93" y="146.81" width="9.47" height="0.69" transform="translate(-53.91 201.33) rotate(-60.21)" fill="#231f20"/><rect x="153.88" y="92.94" width="46.89" height="1.39" transform="translate(7.93 200.95) rotate(-60.19)" fill="#231f20"/><path d="M179,160.21l-1.81-1a32.24,32.24,0,0,0,3.16-24.64l2-.54A34.3,34.3,0,0,1,179,160.21Z" fill="#231f20"/><path d="M180.35,134.54a32.25,32.25,0,0,0-15.19-19.66l1-1.81A34.31,34.31,0,0,1,182.35,134Z" fill="#231f20"/><path d="M165.16,114.88a32.24,32.24,0,0,0-24.64-3.16l-.54-2a34.31,34.31,0,0,1,26.22,3.36Z" fill="#231f20"/><path d="M149,177.59A34.34,34.34,0,0,1,131.86,173l1-1.8a32.24,32.24,0,0,0,24.64,3.16l.55,2A34.72,34.72,0,0,1,149,177.59Z" fill="#231f20"/><path d="M131.86,173a34.31,34.31,0,0,1-16.16-20.92l2-.55a32.24,32.24,0,0,0,15.19,19.66Z" fill="#231f20"/><path d="M115.7,152.09a34.31,34.31,0,0,1,3.36-26.22l1.81,1a32.24,32.24,0,0,0-3.16,24.64Z" fill="#231f20"/><path d="M120.86,126.91l-1.8-1A34.31,34.31,0,0,1,140,109.71l.54,2A32.24,32.24,0,0,0,120.86,126.91Z" fill="#231f20"/><path d="M158.08,176.37l-.55-2a32.23,32.23,0,0,0,19.66-15.19l1.81,1A34.3,34.3,0,0,1,158.08,176.37Z" fill="#231f20"/><polygon points="119.98 36.06 119.18 66.27 130.59 75.16 135.94 61.72 119.98 36.06" fill="#231f20"/><polygon points="42.04 172.09 72.09 172.33 81.14 161.48 67.85 156.69 42.04 172.09" fill="#231f20"/><polygon points="178.07 250.03 178.87 219.82 167.46 210.93 162.11 224.37 178.07 250.03" fill="#231f20"/><polygon points="63.42 94 84.76 112.63 90.29 102.99 63.42 94" fill="#231f20"/><polygon points="234.63 192.09 213.29 173.46 207.76 183.1 234.63 192.09" fill="#231f20"/><polygon points="99.98 228.65 118.61 207.31 108.97 201.78 99.98 228.65" fill="#231f20"/><polygon points="198.07 57.44 179.44 78.78 189.08 84.3 198.07 57.44" fill="#231f20"/><polygon points="256.01 114 225.96 113.76 216.91 124.61 230.2 129.4 256.01 114" fill="#231f20"/><rect x="70.71" y="156.83" width="42.3" height="3.47" transform="translate(-38.34 29.61) rotate(-15.19)" fill="#231f20"/><path d="M113,156.31c-.39-1.07-.73-2.14-1-3.19l.67-.18c.28,1,.62,2.09,1,3.14Z" fill="#231f20"/><path d="M111.93,153.12c-.29-1.06-.53-2.16-.74-3.27l.68-.12c.2,1.1.44,2.18.72,3.21Z" fill="#231f20"/><rect x="185.04" y="125.79" width="42.3" height="3.47" transform="translate(-26.22 58.53) rotate(-15.2)" fill="#231f20"/><rect x="162.81" y="179.06" width="3.47" height="42.3" transform="translate(-46.71 50.11) rotate(-15.19)" fill="#231f20"/><rect x="131.77" y="64.73" width="3.47" height="42.3" transform="translate(-17.84 37.98) rotate(-15.19)" fill="#231f20"/><path d="M185.45,133.15c-.28-1-.62-2.08-1-3.14l.65-.24c.39,1.07.74,2.15,1,3.19Z" fill="#231f20"/><path d="M186.17,136.37c-.2-1.11-.44-2.19-.72-3.21l.67-.18c.28,1,.53,2.14.74,3.27Z" fill="#231f20"/><rect x="165.71" y="177.29" width="1.04" height="4.67" transform="translate(-60.63 87.81) rotate(-25.18)" fill="#231f20"/><rect x="131.3" y="104.12" width="1.04" height="4.67" transform="translate(-32.77 66.19) rotate(-25.18)" fill="#231f20"/><rect x="183.27" y="125.31" width="4.67" height="1.04" transform="translate(-35.93 91.13) rotate(-25.23)" fill="#231f20"/><rect x="110.1" y="159.73" width="4.67" height="1.04" transform="translate(-57.52 63.11) rotate(-25.2)" fill="#231f20"/><rect x="186.54" y="154.41" width="1.04" height="4.68" transform="translate(-23.78 279.65) rotate(-70.2)" fill="#231f20"/><rect x="110.47" y="127.01" width="1.04" height="4.68" transform="translate(-48.32 189.92) rotate(-70.19)" fill="#231f20"/><rect x="160.39" y="104.49" width="4.68" height="1.04" transform="translate(8.87 222.63) rotate(-70.23)" fill="#231f20"/><rect x="132.99" y="180.56" width="4.68" height="1.04" transform="translate(-80.84 247.23) rotate(-70.24)" fill="#231f20"/><rect x="171.81" y="173.75" width="1.04" height="4.67" transform="translate(-69.99 131.55) rotate(-35.2)" fill="#231f20"/><rect x="125.2" y="107.67" width="1.04" height="4.67" transform="translate(-40.42 92.59) rotate(-35.2)" fill="#231f20"/><rect x="113.65" y="165.82" width="4.67" height="1.04" transform="translate(-74.63 97.14) rotate(-35.16)" fill="#231f20"/><rect x="179.73" y="119.22" width="4.67" height="1.04" transform="translate(-35.73 126.83) rotate(-35.2)" fill="#231f20"/><rect x="188.35" y="147.6" width="1.04" height="4.67" transform="translate(8.98 310.52) rotate(-80.2)" fill="#231f20"/><rect x="108.67" y="133.82" width="1.04" height="4.67" transform="matrix(0.17, -0.99, 0.99, 0.17, -43.56, 220.58)" fill="#231f20"/><rect x="153.58" y="102.68" width="4.67" height="1.04" transform="translate(27.6 239.21) rotate(-80.17)" fill="#231f20"/><rect x="139.8" y="182.36" width="4.67" height="1.04" transform="translate(-62.33 291.71) rotate(-80.17)" fill="#231f20"/><rect x="119.82" y="112.21" width="1.04" height="4.67" transform="translate(-45.74 119.2) rotate(-45.19)" fill="#231f20"/><rect x="177.19" y="169.2" width="1.04" height="4.67" transform="translate(-69.23 176.71) rotate(-45.19)" fill="#231f20"/><rect x="118.2" y="171.21" width="4.67" height="1.04" transform="translate(-86.27 136.36) rotate(-45.23)" fill="#231f20"/><rect x="175.18" y="113.84" width="4.67" height="1.04" transform="translate(-28.72 159.71) rotate(-45.19)" fill="#231f20"/><rect x="187.12" y="142.39" width="4.67" height="1.04" transform="translate(-0.55 0.73) rotate(-0.22)" fill="#231f20"/><rect x="106.26" y="142.66" width="4.67" height="1.04" transform="translate(-0.48 0.37) rotate(-0.19)" fill="#231f20"/><rect x="148.64" y="181.14" width="1.04" height="4.67" transform="translate(-0.59 0.48) rotate(-0.19)" fill="#231f20"/><rect x="148.37" y="100.28" width="1.04" height="4.67" transform="translate(-0.32 0.47) rotate(-0.18)" fill="#231f20"/><rect x="181.7" y="163.78" width="1.04" height="4.68" transform="translate(-58.19 220.94) rotate(-55.2)" fill="#231f20"/><rect x="115.31" y="117.63" width="1.04" height="4.68" transform="translate(-48.78 146.62) rotate(-55.2)" fill="#231f20"/><rect x="123.61" y="175.72" width="4.68" height="1.04" transform="translate(-90.65 179.05) rotate(-55.19)" fill="#231f20"/><rect x="169.76" y="109.33" width="4.68" height="1.04" transform="translate(-16.32 188.48) rotate(-55.2)" fill="#231f20"/><rect x="186.48" y="135.37" width="4.68" height="1.04" transform="translate(-21.12 35.66) rotate(-10.22)" fill="#231f20"/><rect x="106.9" y="149.68" width="4.68" height="1.04" transform="translate(-24.85 21.7) rotate(-10.19)" fill="#231f20"/><rect x="141.35" y="100.91" width="1.04" height="4.68" transform="translate(-16.02 26.7) rotate(-10.18)" fill="#231f20"/><rect x="155.66" y="180.49" width="1.04" height="4.68" transform="translate(-29.88 30.52) rotate(-10.19)" fill="#231f20"/><rect x="111.81" y="123.74" width="1.04" height="4.68" transform="translate(-49.25 175.12) rotate(-65.18)" fill="#231f20"/><rect x="185.2" y="157.67" width="1.04" height="4.68" transform="translate(-37.43 261.48) rotate(-65.2)" fill="#231f20"/><rect x="163.65" y="105.83" width="4.68" height="1.04" transform="translate(-0.22 212.35) rotate(-65.17)" fill="#231f20"/><rect x="129.72" y="179.22" width="4.68" height="1.04" transform="translate(-86.51 224.13) rotate(-65.17)" fill="#231f20"/><rect x="108.74" y="156.48" width="4.68" height="1.04" transform="translate(-47.34 47.95) rotate(-20.18)" fill="#231f20"/><rect x="184.63" y="128.57" width="4.68" height="1.04" transform="translate(-33.07 72.5) rotate(-20.2)" fill="#231f20"/><rect x="134.55" y="102.76" width="1.04" height="4.68" transform="translate(-27.98 53.09) rotate(-20.2)" fill="#231f20"/><rect x="162.46" y="178.65" width="1.04" height="4.68" transform="translate(-52.48 67.43) rotate(-20.2)" fill="#231f20"/><rect x="187.59" y="151.04" width="1.04" height="4.67" transform="translate(-8.24 296.06) rotate(-75.2)" fill="#231f20"/><rect x="109.42" y="130.37" width="1.04" height="4.67" transform="translate(-46.47 205.05) rotate(-75.18)" fill="#231f20"/><rect x="157.02" y="103.44" width="4.67" height="1.04" transform="matrix(0.26, -0.97, 0.97, 0.26, 18.12, 231.44)" fill="#231f20"/><rect x="136.36" y="181.61" width="4.67" height="1.04" transform="translate(-72.83 269.68) rotate(-75.2)" fill="#231f20"/><rect x="168.84" y="175.65" width="1.04" height="4.67" transform="translate(-66.54 109.34) rotate(-30.2)" fill="#231f20"/><rect x="128.17" y="105.76" width="1.04" height="4.67" transform="translate(-36.9 79.38) rotate(-30.19)" fill="#231f20"/><rect x="181.64" y="122.19" width="4.67" height="1.04" transform="translate(-36.75 109.02) rotate(-30.15)" fill="#231f20"/><rect x="111.74" y="162.86" width="4.67" height="1.04" transform="translate(-66.7 79.56) rotate(-30.2)" fill="#231f20"/><rect x="188.79" y="144.1" width="1.04" height="4.67" transform="translate(27.52 322.8) rotate(-85.19)" fill="#231f20"/><rect x="108.21" y="137.32" width="1.04" height="4.67" transform="translate(-39.55 236.29) rotate(-85.19)" fill="#231f20"/><rect x="143.3" y="182.81" width="4.67" height="1.04" transform="translate(-49.24 313.12) rotate(-85.2)" fill="#231f20"/><rect x="150.08" y="102.23" width="4.67" height="1.04" transform="translate(37.21 245.99) rotate(-85.18)" fill="#231f20"/><rect x="115.8" y="168.62" width="4.67" height="1.04" transform="translate(-81.23 116.08) rotate(-40.16)" fill="#231f20"/><rect x="177.58" y="116.43" width="4.67" height="1.04" transform="translate(-32.98 143.83) rotate(-40.22)" fill="#231f20"/><rect x="174.6" y="171.59" width="1.04" height="4.67" transform="translate(-70.9 154.15) rotate(-40.21)" fill="#231f20"/><rect x="122.41" y="109.82" width="1.04" height="4.67" transform="translate(-43.36 105.83) rotate(-40.2)" fill="#231f20"/><rect x="106.42" y="146.18" width="4.67" height="1.04" transform="translate(-12.78 10.4) rotate(-5.17)" fill="#231f20"/><rect x="186.95" y="138.87" width="4.67" height="1.04" transform="translate(-11.91 17.83) rotate(-5.23)" fill="#231f20"/><rect x="144.85" y="100.44" width="1.04" height="4.67" transform="matrix(1, -0.09, 0.09, 1, -8.71, 13.59)" fill="#231f20"/><rect x="152.16" y="180.97" width="1.04" height="4.67" transform="matrix(1, -0.09, 0.09, 1, -15.98, 14.59)" fill="#231f20"/><rect x="172.57" y="111.47" width="4.68" height="1.04" transform="translate(-23.09 174.69) rotate(-50.2)" fill="#231f20"/><rect x="120.8" y="173.58" width="4.68" height="1.04" transform="translate(-89.43 157.19) rotate(-50.18)" fill="#231f20"/><rect x="179.56" y="166.59" width="1.04" height="4.68" transform="translate(-64.99 199.05) rotate(-50.18)" fill="#231f20"/><rect x="117.45" y="114.82" width="1.04" height="4.68" transform="translate(-47.56 132.78) rotate(-50.19)" fill="#231f20"/><path d="M155.86,181l-.18-1c1.08-.19,2.15-.44,3.2-.72l.27,1C158.07,180.59,157,180.84,155.86,181Z" fill="#231f20"/><path d="M139.15,180.37c-1.08-.29-2.16-.62-3.21-1l.35-1c1,.37,2.08.7,3.13,1Z" fill="#231f20"/><path d="M142.45,181.09c-1.11-.19-2.22-.43-3.29-.72l.27-1c1,.28,2.12.51,3.2.7Z" fill="#231f20"/><path d="M155.43,106c-1.09-.19-2.18-.33-3.25-.42l.09-1c1.1.09,2.23.24,3.34.43Z" fill="#231f20"/><path d="M171.28,174.6l-.6-.85c.87-.62,1.74-1.29,2.59-2l.67.79C173.07,173.28,172.18,174,171.28,174.6Z" fill="#231f20"/><path d="M112.7,133.44l-1-.27c.29-1.08.62-2.16,1-3.21l1,.35C113.31,131.34,113,132.39,112.7,133.44Z" fill="#231f20"/><path d="M111.58,139.89l-1-.09c.09-1.1.24-2.23.43-3.34l1,.18C111.81,137.73,111.67,138.82,111.58,139.89Z" fill="#231f20"/><path d="M158.63,106.72c-1-.28-2.12-.51-3.2-.7l.18-1c1.11.19,2.22.43,3.29.72Z" fill="#231f20"/><path d="M161.76,107.7c-1-.37-2.09-.7-3.13-1l.27-1c1.07.28,2.15.62,3.21,1Z" fill="#231f20"/><path d="M113.68,130.31l-1-.35c.38-1.05.81-2.1,1.28-3.11l.94.44C114.47,128.27,114,129.29,113.68,130.31Z" fill="#231f20"/><path d="M112,136.64l-1-.18c.19-1.11.43-2.22.72-3.29l1,.27C112.42,134.49,112.19,135.56,112,136.64Z" fill="#231f20"/><path d="M121.81,170.44c-.79-.78-1.56-1.62-2.28-2.48l.79-.67c.71.84,1.45,1.65,2.22,2.41Z" fill="#231f20"/><path d="M124.31,172.7c-.88-.73-1.72-1.49-2.49-2.26l.73-.74c.76.75,1.57,1.49,2.43,2.2Z" fill="#231f20"/><path d="M119.53,168c-.73-.87-1.43-1.76-2.06-2.67l.85-.6c.62.88,1.29,1.75,2,2.59Z" fill="#231f20"/><path d="M127,174.74c-.93-.65-1.83-1.33-2.68-2l.67-.8c.83.69,1.7,1.36,2.61,2Z" fill="#231f20"/><path d="M114.08,159.48c-.47-1-.9-2-1.29-3.11l1-.36c.38,1,.8,2.05,1.26,3Z" fill="#231f20"/><path d="M132.83,178.09c-1-.47-2-1-3-1.54l.52-.9c.93.54,1.92,1,2.91,1.5Z" fill="#231f20"/><path d="M115.65,162.46c-.57-1-1.1-2-1.56-3L115,159c.45,1,1,1.95,1.52,2.9Z" fill="#231f20"/><path d="M117.46,165.3c-.64-.91-1.25-1.86-1.82-2.84l.9-.52c.55,1,1.15,1.88,1.77,2.76Z" fill="#231f20"/><path d="M110.57,146.54c-.1-1.11-.15-2.24-.16-3.36h1c0,1.1.06,2.2.16,3.27Z" fill="#231f20"/><path d="M129.83,176.54c-1-.54-1.91-1.15-2.84-1.8l.59-.85c.91.63,1.84,1.22,2.77,1.75Z" fill="#231f20"/><path d="M168.44,176.42l-.52-.9c.94-.54,1.87-1.14,2.76-1.77l.6.85C170.36,175.25,169.41,175.86,168.44,176.42Z" fill="#231f20"/><path d="M167.7,110.45c-.93-.53-1.91-1-2.91-1.5l.44-.94c1,.48,2,1,3,1.54Z" fill="#231f20"/><path d="M110.41,143.17c0-1.13,0-2.26.13-3.37l1,.09c-.09,1.08-.13,2.18-.13,3.28Z" fill="#231f20"/><path d="M159.14,180.3l-.27-1c1-.28,2.09-.62,3.12-1l.36,1C161.29,179.67,160.21,180,159.14,180.3Z" fill="#231f20"/><path d="M111,149.87c-.2-1.11-.36-2.24-.46-3.34l1-.1c.1,1.07.25,2.16.45,3.25Z" fill="#231f20"/><path d="M173.08,114.18c-.83-.69-1.71-1.36-2.61-2l.59-.85c.93.64,1.83,1.33,2.68,2Z" fill="#231f20"/><path d="M162.35,179.28l-.36-1c1-.38,2.05-.8,3-1.26l.44.94C164.46,178.45,163.41,178.89,162.35,179.28Z" fill="#231f20"/><path d="M186.44,139.64c-.1-1.07-.25-2.16-.44-3.25l1-.18c.2,1.12.36,2.24.46,3.34Z" fill="#231f20"/><path d="M114.92,127.28l-.94-.44c.48-1,1-2,1.54-3l.9.52C115.9,125.29,115.39,126.27,114.92,127.28Z" fill="#231f20"/><path d="M184.28,130.08c-.38-1-.8-2-1.26-3l.94-.44c.47,1,.91,2.05,1.29,3.11Z" fill="#231f20"/><path d="M184.07,159.24l-.94-.44c.46-1,.88-2,1.25-3l1,.35C185,157.18,184.54,158.22,184.07,159.24Z" fill="#231f20"/><path d="M139.18,106.79l-.27-1c1.06-.29,2.17-.54,3.28-.74l.19,1C141.29,106.27,140.21,106.51,139.18,106.79Z" fill="#231f20"/><path d="M118.18,121.6l-.85-.59c.64-.92,1.32-1.82,2-2.68l.8.67C119.47,119.83,118.8,120.71,118.18,121.6Z" fill="#231f20"/><path d="M142.38,106.07l-.19-1c1.12-.2,2.25-.36,3.34-.46l.1,1C144.56,105.72,143.47,105.87,142.38,106.07Z" fill="#231f20"/><path d="M149.15,181.66v-1c1.09,0,2.2-.06,3.27-.16l.1,1C151.41,181.6,150.28,181.66,149.15,181.66Z" fill="#231f20"/><path d="M186.36,152.91l-1-.27c.27-1,.51-2.12.7-3.2l1,.18C186.88,150.74,186.64,151.84,186.36,152.91Z" fill="#231f20"/><path d="M176.42,170.26l-.74-.73c.77-.78,1.51-1.59,2.2-2.43l.8.67C178,168.62,177.21,169.46,176.42,170.26Z" fill="#231f20"/><path d="M152.52,181.5l-.09-1c1.07-.1,2.16-.25,3.25-.44l.19,1C154.74,181.25,153.62,181.4,152.52,181.5Z" fill="#231f20"/><path d="M127.37,112.33l-.6-.85c.91-.64,1.86-1.25,2.84-1.82l.52.9C129.18,111.12,128.25,111.71,127.37,112.33Z" fill="#231f20"/><path d="M130.13,110.57l-.52-.9c1-.57,2-1.09,3-1.56l.44.94C132.05,109.5,131.08,110,130.13,110.57Z" fill="#231f20"/><path d="M178.69,167.76l-.8-.67c.69-.83,1.36-1.71,2-2.61l.85.59C180.08,166,179.4,166.91,178.69,167.76Z" fill="#231f20"/><path d="M120.16,119l-.8-.67c.72-.87,1.48-1.71,2.26-2.49l.74.73C121.61,117.33,120.87,118.15,120.16,119Z" fill="#231f20"/><path d="M136.06,107.78l-.36-1c1.07-.39,2.15-.74,3.21-1l.27,1C138.15,107.07,137.1,107.4,136.06,107.78Z" fill="#231f20"/><path d="M133,109l-.44-.94c1-.47,2-.9,3.11-1.29l.36,1C135,108.16,134,108.59,133,109Z" fill="#231f20"/><path d="M149,181.66c-1.07,0-2.14,0-3.19-.13l.09-1c1.08.09,2.17.13,3.28.13v1Z" fill="#231f20"/><path d="M122.37,116.56l-.74-.73c.78-.79,1.62-1.56,2.48-2.28l.67.79C123.94,115,123.13,115.79,122.37,116.56Z" fill="#231f20"/><path d="M124.78,114.34l-.67-.79c.86-.73,1.76-1.43,2.67-2.06l.6.85C126.49,113,125.62,113.63,124.78,114.34Z" fill="#231f20"/><path d="M181.5,124.15c-.54-.94-1.14-1.87-1.77-2.76l.85-.6c.65.92,1.26,1.87,1.82,2.84Z" fill="#231f20"/><path d="M187.08,149.62l-1-.18c.19-1.09.33-2.19.42-3.25l1,.09C187.42,147.38,187.27,148.5,187.08,149.62Z" fill="#231f20"/><path d="M145.79,181.52c-1.08-.09-2.21-.23-3.34-.43l.18-1c1.1.19,2.2.33,3.25.42Z" fill="#231f20"/><path d="M170.47,112.2c-.9-.63-1.84-1.22-2.77-1.75l.52-.9c1,.55,1.92,1.16,2.85,1.8Z" fill="#231f20"/><path d="M183,127c-.46-1-1-2-1.52-2.9l.9-.52c.56,1,1.09,2,1.56,3Z" fill="#231f20"/><path d="M179.74,121.39c-.62-.88-1.3-1.75-2-2.59l.79-.67c.73.86,1.42,1.76,2.06,2.66Z" fill="#231f20"/><path d="M164.79,108.94c-1-.46-2-.88-3-1.25l.35-1c1.05.38,2.1.81,3.11,1.28Z" fill="#231f20"/><path d="M116.43,124.37l-.9-.52c.55-1,1.15-1.91,1.8-2.85l.85.59C117.55,122.51,117,123.44,116.43,124.37Z" fill="#231f20"/><path d="M135.94,179.37c-1-.37-2.09-.8-3.12-1.28l.44-.94c1,.46,2,.88,3,1.25Z" fill="#231f20"/><path d="M173.94,172.54l-.67-.79c.83-.7,1.64-1.45,2.41-2.22l.74.73C175.63,171.05,174.8,171.82,173.94,172.54Z" fill="#231f20"/><path d="M152.18,105.6c-1.07-.09-2.17-.14-3.28-.13v-1c1.13,0,2.26,0,3.37.13Z" fill="#231f20"/><path d="M175.51,116.39c-.77-.76-1.58-1.5-2.43-2.2l.66-.8c.87.72,1.71,1.48,2.5,2.26Z" fill="#231f20"/><path d="M177.73,118.79c-.71-.84-1.46-1.65-2.22-2.41l.73-.74c.79.78,1.56,1.61,2.28,2.48Z" fill="#231f20"/><path d="M145.63,105.62l-.1-1c1.1-.1,2.24-.15,3.36-.16v1C147.8,105.47,146.7,105.52,145.63,105.62Z" fill="#231f20"/><path d="M180.72,165.08l-.85-.59c.63-.91,1.22-1.84,1.75-2.77l.9.52C182,163.19,181.37,164.15,180.72,165.08Z" fill="#231f20"/><path d="M165.46,178,165,177c1-.46,2-1,2.9-1.52l.52.9C167.47,177,166.47,177.51,165.46,178Z" fill="#231f20"/><path d="M187.51,146.28l-1-.09c.09-1.07.13-2.17.13-3.27h1C187.64,144,187.6,145.18,187.51,146.28Z" fill="#231f20"/><path d="M186.6,142.92c0-1.08-.06-2.18-.16-3.27l1-.09c.1,1.12.16,2.25.16,3.36Z" fill="#231f20"/><path d="M182.52,162.24l-.9-.52c.54-.94,1-1.92,1.5-2.91l.94.44C183.6,160.26,183.08,161.27,182.52,162.24Z" fill="#231f20"/><path d="M185.35,156.13l-1-.35c.37-1,.7-2.08,1-3.13l1,.27C186.07,154,185.73,155.07,185.35,156.13Z" fill="#231f20"/><path d="M148.87,98.23a.69.69,0,0,1-.56-.29l-3.37-4.73a.69.69,0,0,1,0-.8l3.33-4.75a.65.65,0,0,1,.57-.29.69.69,0,0,1,.56.29l3.37,4.73a.69.69,0,0,1,0,.8l-3.33,4.75a.69.69,0,0,1-.57.29Zm-2.52-5.42,2.51,3.53,2.49-3.54-2.51-3.53Z" fill="#231f20"/><path d="M149.21,198.72a.69.69,0,0,1-.56-.29l-3.37-4.73a.69.69,0,0,1,0-.8l3.33-4.75a.7.7,0,0,1,.57-.29h0a.69.69,0,0,1,.57.29l3.37,4.73a.69.69,0,0,1,0,.8l-3.33,4.75a.69.69,0,0,1-.56.29Zm-2.52-5.42,2.51,3.53,2.49-3.54-2.51-3.53Z" fill="#231f20"/><path d="M160.66,99.74l-.18,0a.69.69,0,0,1-.47-.43l-2-5.44a.69.69,0,0,1,.2-.77l4.45-3.72a.69.69,0,0,1,1.09.29l2,5.44a.69.69,0,0,1-.2.77l-4.45,3.72A.69.69,0,0,1,160.66,99.74Zm-1.21-5.91L161,97.89l3.32-2.78-1.51-4.06Z" fill="#231f20"/><path d="M135,196.89l-.18,0a.69.69,0,0,1-.47-.43l-2-5.44a.69.69,0,0,1,.21-.77l4.45-3.72a.69.69,0,0,1,1.09.29l2,5.44a.69.69,0,0,1-.21.77l-4.45,3.72A.69.69,0,0,1,135,196.89ZM133.77,191l1.51,4.06,3.32-2.78-1.51-4.06Z" fill="#231f20"/><path d="M181.1,111.45a.69.69,0,0,1-.68-.81l1-5.72a.69.69,0,0,1,.56-.57l5.71-1a.69.69,0,0,1,.8.8l-1,5.72a.69.69,0,0,1-.57.57l-5.71,1Zm1.56-5.82-.72,4.27,4.27-.75.72-4.27Z" fill="#231f20"/><path d="M110.28,182.74a.69.69,0,0,1-.68-.81l1-5.72a.69.69,0,0,1,.56-.57l5.72-1a.69.69,0,0,1,.8.8l-1,5.72a.69.69,0,0,1-.56.57l-5.71,1Zm1.56-5.82-.72,4.27,4.27-.75.72-4.27Z" fill="#231f20"/><path d="M194.14,121.37h-.06l-5.78-.51a.69.69,0,0,1-.57-1l2.41-5.28a.69.69,0,0,1,.69-.4l5.78.51a.69.69,0,0,1,.57,1L194.77,121A.69.69,0,0,1,194.14,121.37Zm-4.74-1.81,4.31.38,1.8-3.94-4.31-.38Z" fill="#231f20"/><path d="M107.28,171.9h-.06l-5.78-.51a.69.69,0,0,1-.57-1l2.41-5.28a.7.7,0,0,1,.69-.4l5.78.51a.69.69,0,0,1,.57,1l-2.41,5.28A.69.69,0,0,1,107.28,171.9Zm-4.74-1.81,4.31.38,1.8-3.94-4.31-.38Z" fill="#231f20"/><path d="M199.28,146.92a.69.69,0,0,1-.4-.13l-4.75-3.33a.69.69,0,0,1,0-1.13l4.72-3.37a.69.69,0,0,1,.8,0l4.75,3.33a.69.69,0,0,1,0,1.13l-4.73,3.37A.69.69,0,0,1,199.28,146.92Zm-3.55-4,3.54,2.49,3.53-2.51-3.54-2.49Z" fill="#231f20"/><path d="M98.79,147.25a.69.69,0,0,1-.4-.13l-4.75-3.33a.69.69,0,0,1,0-1.13l4.73-3.37a.69.69,0,0,1,.8,0l4.75,3.33a.69.69,0,0,1,0,1.13l-4.73,3.37A.7.7,0,0,1,98.79,147.25Zm-3.55-4,3.54,2.49,3.53-2.51-3.54-2.49Z" fill="#231f20"/><path d="M196.74,159.82a.69.69,0,0,1-.53-.25l-3.72-4.45a.69.69,0,0,1,.29-1.09l5.44-2a.69.69,0,0,1,.77.21l3.72,4.45a.69.69,0,0,1-.29,1.09l-5.43,2A.7.7,0,0,1,196.74,159.82ZM194.18,155,197,158.3l4.06-1.51-2.78-3.32Z" fill="#231f20"/><path d="M99.59,134.13a.69.69,0,0,1-.53-.25l-3.72-4.45a.69.69,0,0,1,.29-1.09l5.44-2a.69.69,0,0,1,.77.2l3.72,4.45a.69.69,0,0,1-.29,1.09l-5.44,2A.69.69,0,0,1,99.59,134.13ZM97,129.3l2.78,3.32,4.06-1.51-2.78-3.32Z" fill="#231f20"/><path d="M188,182.48h-.12l-5.72-1a.69.69,0,0,1-.57-.56l-1-5.71a.69.69,0,0,1,.8-.8l5.72,1a.69.69,0,0,1,.57.56l1,5.58a.68.68,0,0,1,0,.25.69.69,0,0,1-.7.69Zm-5.12-2.26,4.27.72-.75-4.27-4.27-.72Z" fill="#231f20"/><path d="M116.74,111.67h-.12l-5.72-1a.69.69,0,0,1-.57-.56l-1-5.71a.69.69,0,0,1,.19-.61.7.7,0,0,1,.61-.2l5.72,1a.69.69,0,0,1,.57.56l1,5.58a.68.68,0,0,1,0,.25.69.69,0,0,1-.69.69Zm-5.12-2.26,4.27.72-.75-4.27-4.27-.72Z" fill="#231f20"/><path d="M176.67,191.26a.7.7,0,0,1-.29-.06l-5.28-2.41a.69.69,0,0,1-.4-.69l.51-5.78a.69.69,0,0,1,.34-.54.7.7,0,0,1,.64,0l5.28,2.41a.7.7,0,0,1,.4.69l-.51,5.78a.69.69,0,0,1-.34.54A.71.71,0,0,1,176.67,191.26Zm-4.54-3.53,3.94,1.8.38-4.31-3.94-1.8Z" fill="#231f20"/><path d="M126.14,104.4a.69.69,0,0,1-.29-.06l-5.28-2.41a.69.69,0,0,1-.4-.69l.51-5.78a.69.69,0,0,1,1-.57l5.28,2.41a.69.69,0,0,1,.4.69l-.51,5.78a.69.69,0,0,1-.69.63Zm-4.54-3.53,3.94,1.8.38-4.31L122,96.56Z" fill="#231f20"/><polygon points="96.31 81.95 105.93 86.59 103.86 76.12 96.31 81.95" fill="#231f20"/><polygon points="201.74 204.13 192.12 199.49 194.19 209.97 201.74 204.13" fill="#231f20"/><polygon points="68.45 137.94 78.53 134.41 69.66 128.46 68.45 137.94" fill="#231f20"/><polygon points="229.6 148.15 219.52 151.67 228.39 157.62 229.6 148.15" fill="#231f20"/><polygon points="87.94 195.76 92.58 186.14 82.1 188.2 87.94 195.76" fill="#231f20"/><polygon points="210.11 90.33 205.47 99.94 215.95 97.88 210.11 90.33" fill="#231f20"/><polygon points="143.92 223.62 140.4 213.54 134.44 222.41 143.92 223.62" fill="#231f20"/><polygon points="154.13 62.47 157.66 72.55 163.61 63.68 154.13 62.47" fill="#231f20"/><rect x="174.39" y="196.77" width="1.39" height="3.34" transform="translate(-67.83 93.44) rotate(-25.2)" fill="#231f20"/><rect x="122.28" y="85.98" width="1.39" height="3.34" transform="translate(-25.62 60.71) rotate(-25.2)" fill="#231f20"/><rect x="202.75" y="116.29" width="3.34" height="1.39" transform="translate(-30.36 98.22) rotate(-25.21)" fill="#231f20"/><rect x="91.96" y="168.41" width="3.34" height="1.39" transform="translate(-63.04 55.89) rotate(-25.17)" fill="#231f20"/><rect x="205.92" y="162.12" width="1.39" height="3.34" transform="translate(-17.51 302.66) rotate(-70.19)" fill="#231f20"/><rect x="90.74" y="120.63" width="1.39" height="3.34" transform="translate(-54.61 166.89) rotate(-70.19)" fill="#231f20"/><rect x="168.1" y="84.76" width="3.34" height="1.39" transform="translate(31.82 216.2) rotate(-70.18)" fill="#231f20"/><rect x="126.61" y="199.94" width="3.34" height="1.39" transform="translate(-103.94 253.4) rotate(-70.21)" fill="#231f20"/><rect x="183.61" y="191.41" width="1.39" height="3.34" transform="translate(-77.58 141.46) rotate(-35.18)" fill="#231f20"/><rect x="113.05" y="91.34" width="1.39" height="3.34" transform="translate(-32.82 82.58) rotate(-35.2)" fill="#231f20"/><rect x="97.32" y="177.63" width="3.34" height="1.39" transform="translate(-84.73 89.75) rotate(-35.22)" fill="#231f20"/><rect x="197.39" y="107.07" width="3.34" height="1.39" transform="translate(-25.72 134.45) rotate(-35.2)" fill="#231f20"/><rect x="208.66" y="151.8" width="1.39" height="3.34" transform="translate(22.44 333.6) rotate(-80.19)" fill="#231f20"/><rect x="88.01" y="130.94" width="1.39" height="3.34" transform="translate(-57.09 197.41) rotate(-80.18)" fill="#231f20"/><rect x="157.78" y="82.03" width="3.34" height="1.39" transform="translate(50.78 225.75) rotate(-80.19)" fill="#231f20"/><rect x="136.93" y="202.67" width="3.34" height="1.39" transform="translate(-85.35 305.42) rotate(-80.22)" fill="#231f20"/><rect x="104.9" y="98.23" width="1.39" height="3.34" transform="translate(-39.7 104.45) rotate(-45.21)" fill="#231f20"/><rect x="191.76" y="184.52" width="1.39" height="3.34" transform="translate(-75.27 191.56) rotate(-45.2)" fill="#231f20"/><rect x="104.21" y="185.78" width="3.34" height="1.39" transform="translate(-101.03 130.15) rotate(-45.18)" fill="#231f20"/><rect x="190.5" y="98.92" width="3.34" height="1.39" transform="translate(-13.91 165.83) rotate(-45.21)" fill="#231f20"/><rect x="208.57" y="142.15" width="3.34" height="1.39" transform="matrix(1, 0, 0, 1, -0.61, 0.9)" fill="#231f20"/><rect x="86.14" y="142.55" width="3.34" height="1.39" transform="translate(-0.51 0.31) rotate(-0.2)" fill="#231f20"/><rect x="148.54" y="202.59" width="1.39" height="3.34" transform="translate(-0.69 0.51) rotate(-0.19)" fill="#231f20"/><rect x="148.13" y="80.15" width="1.39" height="3.34" transform="translate(-0.26 0.48) rotate(-0.18)" fill="#231f20"/><rect x="198.59" y="176.31" width="1.39" height="3.34" transform="translate(-60.64 239.9) rotate(-55.17)" fill="#231f20"/><rect x="98.08" y="106.43" width="1.39" height="3.34" transform="translate(-46.38 127.46) rotate(-55.18)" fill="#231f20"/><rect x="112.42" y="192.6" width="3.34" height="1.39" transform="translate(-109.74 176.53) rotate(-55.17)" fill="#231f20"/><rect x="182.29" y="92.1" width="3.34" height="1.39" transform="translate(2.81 190.96) rotate(-55.22)" fill="#231f20"/><rect x="207.6" y="131.52" width="3.34" height="1.39" transform="translate(-20.08 39.08) rotate(-10.18)" fill="#231f20"/><rect x="87.11" y="153.18" width="3.34" height="1.39" transform="translate(-25.89 18.19) rotate(-10.22)" fill="#231f20"/><rect x="137.5" y="81.13" width="1.39" height="3.34" transform="translate(-12.49 25.82) rotate(-10.22)" fill="#231f20"/><rect x="159.16" y="201.62" width="1.39" height="3.34" transform="translate(-33.46 31.51) rotate(-10.2)" fill="#231f20"/><rect x="92.77" y="115.69" width="1.39" height="3.34" transform="translate(-52.28 152.98) rotate(-65.2)" fill="#231f20"/><rect x="203.89" y="167.06" width="1.39" height="3.34" transform="translate(-34.4 283.65) rotate(-65.19)" fill="#231f20"/><rect x="173.04" y="86.79" width="3.34" height="1.39" transform="translate(21.9 209.25) rotate(-65.15)" fill="#231f20"/><rect x="121.67" y="197.91" width="3.34" height="1.39" transform="translate(-108.67 227.36) rotate(-65.22)" fill="#231f20"/><rect x="89.91" y="163.48" width="3.34" height="1.39" transform="translate(-51.06 41.72) rotate(-20.2)" fill="#231f20"/><rect x="204.8" y="121.22" width="3.34" height="1.39" transform="matrix(0.94, -0.34, 0.34, 0.94, -29.36, 78.58)" fill="#231f20"/><rect x="127.21" y="83.93" width="1.39" height="3.34" transform="translate(-21.68 49.39) rotate(-20.19)" fill="#231f20"/><rect x="169.46" y="198.82" width="1.39" height="3.34" transform="translate(-58.75 71.07) rotate(-20.2)" fill="#231f20"/><rect x="207.52" y="157.02" width="1.39" height="3.34" transform="translate(1.59 319.44) rotate(-75.2)" fill="#231f20"/><rect x="89.15" y="125.73" width="1.39" height="3.34" transform="translate(-56.29 181.67) rotate(-75.18)" fill="#231f20"/><rect x="163" y="83.17" width="3.34" height="1.39" transform="translate(41.55 221.67) rotate(-75.21)" fill="#231f20"/><rect x="131.71" y="201.53" width="3.34" height="1.39" transform="translate(-96.16 279.67) rotate(-75.24)" fill="#231f20"/><rect x="179.12" y="194.29" width="1.39" height="3.34" transform="translate(-74.14 116.95) rotate(-30.18)" fill="#231f20"/><rect x="117.55" y="88.46" width="1.39" height="3.34" transform="translate(-29.28 71.68) rotate(-30.19)" fill="#231f20"/><rect x="200.27" y="111.56" width="3.34" height="1.39" transform="translate(-29.06 116.76) rotate(-30.19)" fill="#231f20"/><rect x="94.44" y="173.14" width="3.34" height="1.39" transform="translate(-74.38 71.91) rotate(-30.19)" fill="#231f20"/><rect x="209.34" y="146.51" width="1.39" height="3.34" transform="translate(44.87 345.14) rotate(-85.22)" fill="#231f20"/><rect x="87.32" y="136.24" width="1.39" height="3.34" transform="translate(-56.8 214.04) rotate(-85.19)" fill="#231f20"/><rect x="142.22" y="203.36" width="3.34" height="1.39" transform="translate(-71.5 330.34) rotate(-85.19)" fill="#231f20"/><rect x="152.49" y="81.34" width="3.34" height="1.39" transform="matrix(0.08, -1, 1, 0.08, 59.45, 228.74)" fill="#231f20"/><rect x="100.59" y="181.86" width="3.34" height="1.39" transform="translate(-93.64 109.03) rotate(-40.17)" fill="#231f20"/><rect x="194.12" y="102.84" width="3.34" height="1.39" transform="translate(-20.58 150.84) rotate(-40.2)" fill="#231f20"/><rect x="187.84" y="188.14" width="1.39" height="3.34" transform="translate(-77.98 166.51) rotate(-40.2)" fill="#231f20"/><rect x="108.82" y="94.61" width="1.39" height="3.34" transform="translate(-36.28 93.41) rotate(-40.19)" fill="#231f20"/><rect x="86.39" y="147.89" width="3.34" height="1.39" transform="translate(-13.03 8.54) rotate(-5.17)" fill="#231f20"/><rect x="208.32" y="136.81" width="3.34" height="1.39" transform="matrix(1, -0.09, 0.09, 1, -11.62, 19.64)" fill="#231f20"/><rect x="142.79" y="80.41" width="1.39" height="3.34" transform="translate(-6.85 13.34) rotate(-5.2)" fill="#231f20"/><rect x="153.87" y="202.34" width="1.39" height="3.34" transform="translate(-17.83 14.83) rotate(-5.19)" fill="#231f20"/><rect x="186.54" y="95.33" width="3.34" height="1.39" transform="translate(-6.04 179.15) rotate(-50.2)" fill="#231f20"/><rect x="108.17" y="189.37" width="3.34" height="1.39" transform="translate(-106.52 152.96) rotate(-50.25)" fill="#231f20"/><rect x="195.35" y="180.56" width="1.39" height="3.34" transform="translate(-69.47 216.08) rotate(-50.17)" fill="#231f20"/><rect x="101.31" y="102.19" width="1.39" height="3.34" transform="translate(-43.08 115.72) rotate(-50.19)" fill="#231f20"/><path d="M109.21,2.19A13.73,13.73,0,0,1,116.84,0c5,0,8.49,2.62,8.49,7.08a7.28,7.28,0,0,1-6,7v.09c4.07.43,7,3.09,7,7.25,0,6-5.19,8.4-10.46,8.4A14.74,14.74,0,0,1,108.4,28l1-2.92a14,14,0,0,0,6.48,1.76c4.29,0,6.65-2.32,6.65-5.49,0-4.33-4.16-5.57-7.85-5.57h-1.72V12.91h1.72c3.82,0,6.77-2.36,6.77-5.32S119.37,3,116.24,3a11.84,11.84,0,0,0-6,1.89Z" fill="#231f20"/><path d="M285,122.21a18.53,18.53,0,0,1-7.63,1.37c-8.15,0-14.28-5.15-14.28-14.62,0-9,6.13-15.18,15.09-15.18A15.49,15.49,0,0,1,285,95.06l-.9,3a13.58,13.58,0,0,0-5.83-1.2c-6.77,0-11.28,4.33-11.28,11.92,0,7.08,4.07,11.62,11.11,11.62a14.93,14.93,0,0,0,6.09-1.2Z" fill="#231f20"/><path d="M176.52,260.12a36.18,36.18,0,0,1,6.82-.6c3.73,0,6.13.64,7.93,2.1a6.06,6.06,0,0,1,2.4,5.1c0,2.79-1.84,5.23-4.89,6.35v.08a7.45,7.45,0,0,1,6,7.25,7.79,7.79,0,0,1-2.44,5.79c-2,1.84-5.27,2.7-10,2.7a43.51,43.51,0,0,1-5.79-.34ZM180.25,272h3.39c3.94,0,6.26-2.06,6.26-4.85,0-3.39-2.57-4.72-6.35-4.72a16,16,0,0,0-3.3.26Zm0,13.85a19.9,19.9,0,0,0,3.13.17c3.86,0,7.42-1.41,7.42-5.62,0-3.95-3.39-5.58-7.46-5.58h-3.09Z" fill="#231f20"/><path d="M3.73,166v12.48H8c.77-8.06,5.49-12.95,12.31-12.95,7.5,0,12,6,12,14.62,0,10-5.57,15.22-12.44,15.22S8.23,190,7.93,181.57H3.73v13.29H0V166Zm24.83,14.32c0-5.75-2.7-11.79-8.4-11.79s-8.53,5.83-8.53,12.09c0,6.09,3,11.75,8.45,11.75S28.56,186.84,28.56,180.28Z" fill="#231f20"/></g></g></svg>