<svg xmlns="http://www.w3.org/2000/svg" viewBox="0 0 285.02 288.9"><title>Ресурс 1</title><g data-name="Слой 2"><g data-name="Layer 1" fill="#231f20"><path d="M136.08 166.65l-.87-.5 4.21-14.94 1.01.28-3.66 12.94 9.31-9.69.76.72-10.76 11.19zm2.793-55.909l2.77-.056.47 23.225-2.77.057z"/><path d="M137.65 141.69l-1.36-2.42 3.11-1.74-.07-3.56 2.77-.06.11 5.23-4.56 2.55zm-21.635 8.923l20.274-11.34 1.352 2.418-20.274 11.34z"/><path d="M116.664 150.496l23.23-.465.055 2.77-23.23.465zm28.586 5.274l-1.74-3.1-3.56.07-.05-2.77 5.22-.11 2.55 4.56-2.42 1.35z"/><path d="M145.251 155.77l2.417-1.352 11.344 20.272-2.417 1.352z"/><path d="M155.958 152.157l2.77-.056.47 23.225-2.77.056zm4.446-7.774l20.272-11.344 1.353 2.417-20.273 11.344z"/><path d="M155.95 152.17l-.11-5.22 4.56-2.55 1.36 2.42-3.11 1.74.07 3.56-2.77.05zm2.147-18.832l23.225-.462.055 2.77-23.225.461zm-19.057-21.944l2.417-1.353 11.344 20.272-2.417 1.353z"/><path d="M152.93 136.23l-2.55-4.56 2.42-1.36 1.74 3.11 3.56-.07.05 2.77-5.22.11zm19.2 20.63l-14.94-4.22.28-1 12.94 3.66-9.69-9.32.72-.75 11.2 10.76-.51.87z"/><path d="M158.63 134.88l-1-.29 3.65-12.94-9.31 9.7-.75-.72 10.75-11.2.88.51-4.22 14.94zm-22.02 5.97l-11.2-10.75.51-.88 14.94 4.22-.29 1-12.93-3.65 9.69 9.31-.72.75zm12.08 2.295l.665-.18 8.778 32.329-.666.18zm-8.775-32.34l.666-.18 8.775 32.32-.666.18z"/><path d="M148.931 142.69l32.338-8.75.18.667-32.337 8.75zm-31.971 9.656l32.485-8.707.18.669-32.486 8.707z"/><path d="M148.853 143.353l.343-.599 8.217 4.708-.343.599zm28.888 16.937l.691-1.206 40.686 23.31-.691 1.206zm-98.815-56.598l.691-1.206 40.685 23.31-.69 1.206zm61.704 34.942l.343-.599 8.217 4.708-.343.599z"/><path d="M148.73 142.886l4.706-8.217.599.343-4.706 8.217zm-40.269 69.554l23.31-40.686 1.207.691-23.31 40.686z"/><path d="M144.013 151.094l4.705-8.218.6.342-4.706 8.22zm21.057-37.46l23.31-40.685 1.206.691-23.31 40.685zM179 160.21l-1.81-1a32.24 32.24 0 0 0 3.16-24.64l2-.54a34.3 34.3 0 0 1-3.35 26.18z"/><path d="M180.35 134.54a32.25 32.25 0 0 0-15.19-19.66l1-1.81A34.31 34.31 0 0 1 182.35 134z"/><path d="M165.16 114.88a32.24 32.24 0 0 0-24.64-3.16l-.54-2a34.31 34.31 0 0 1 26.22 3.36zM149 177.59a34.34 34.34 0 0 1-17.14-4.59l1-1.8a32.24 32.24 0 0 0 24.64 3.16l.55 2a34.72 34.72 0 0 1-9.05 1.23z"/><path d="M131.86 173a34.31 34.31 0 0 1-16.16-20.92l2-.55a32.24 32.24 0 0 0 15.19 19.66z"/><path d="M115.7 152.09a34.31 34.31 0 0 1 3.36-26.22l1.81 1a32.24 32.24 0 0 0-3.16 24.64z"/><path d="M120.86 126.91l-1.8-1a34.31 34.31 0 0 1 20.94-16.2l.54 2a32.24 32.24 0 0 0-19.68 15.2zm37.22 49.46l-.55-2a32.23 32.23 0 0 0 19.66-15.19l1.81 1a34.3 34.3 0 0 1-20.92 16.19zm-38.1-140.31l-.8 30.21 11.41 8.89 5.35-13.44-15.96-25.66zM42.04 172.09l30.05.24 9.05-10.85-13.29-4.79-25.81 15.4zm136.03 77.94l.8-30.21-11.41-8.89-5.35 13.44 15.96 25.66zM63.42 94l21.34 18.63 5.53-9.64L63.42 94zm171.21 98.09l-21.34-18.63-5.53 9.64 26.87 8.99zM99.98 228.65l18.63-21.34-9.64-5.53-8.99 26.87zm98.09-171.21l-18.63 21.34 9.64 5.52 8.99-26.86zM256.01 114l-30.05-.24-9.05 10.85 13.29 4.79 25.81-15.4z"/><path d="M70.992 162.433l40.822-11.083.91 3.349L71.9 165.782z"/><path d="M113 156.31c-.39-1.07-.73-2.14-1-3.19l.67-.18c.28 1 .62 2.09 1 3.14zm-1.07-3.19c-.29-1.06-.53-2.16-.74-3.27l.68-.12c.2 1.1.44 2.18.72 3.21zm73.397-21.716l40.82-11.09.91 3.348-40.82 11.09zm-27.997 48.85l3.348-.909 11.083 40.822-3.348.91zM126.287 65.922l3.349-.91 11.083 40.823-3.349.91z"/><path d="M185.45 133.15c-.28-1-.62-2.08-1-3.14l.65-.24c.39 1.07.74 2.15 1 3.19zm.72 3.22c-.2-1.11-.44-2.19-.72-3.21l.67-.18c.28 1 .53 2.14.74 3.27zm-21.406 41.38l.941-.443 1.987 4.226-.941.443zm-34.411-73.197l.94-.443 1.988 4.226-.942.443zm52.917 21.814l4.225-1.991.443.94-4.224 1.991zm-73.159 34.393l4.226-1.989.443.941-4.226 1.989zm74.579-4.317l.352-.979 4.403 1.585-.352.979zm-76.078-27.412l.353-.978 4.403 1.586-.353.978zm52.84-21.994l1.583-4.404.979.352-1.583 4.404zm-27.402 76.078l1.582-4.405.978.352-1.582 4.404zm36.509-8.623l.85-.6 2.692 3.817-.85.6zm-46.608-66.089l.85-.6 2.692 3.816-.85.6zm-10.177 58.856l3.818-2.69.598.851-3.817 2.69zm66.084-46.611l3.816-2.692.6.85-3.817 2.692zm6.627 29.393l.177-1.024 4.602.794-.177 1.025zm-79.089-14.295l.176-1.03 4.624.794-.177 1.03zm47.597-30.331l.797-4.602 1.025.178-.798 4.601zm-13.773 79.681l.797-4.601 1.025.177-.797 4.601zm-22.909-71.821l.733-.738 3.313 3.291-.733.738zm57.374 56.973l.733-.738 3.313 3.291-.733.738zm-57.162 2.774l3.288-3.315.739.732-3.29 3.315zm56.98-57.363l3.291-3.314.738.733-3.291 3.314zm11.612 26.741l4.67-.017.004 1.04-4.67.017zm-80.863.277l4.67-.016.004 1.04-4.67.016zm42.398 38.449l1.04-.003.015 4.67-1.04.003zm-.286-80.843l1.04-.003.015 4.67-1.04.003zm31.632 64.926l.594-.854 3.843 2.67-.594.855zm-66.376-46.143l.594-.854 3.843 2.671-.593.854zm10.568 58.805l2.672-3.842.854.593-2.672 3.843zm46.152-66.393l2.672-3.843.854.593-2.671 3.843z"/><path d="M186.42 135.795l4.605-.83.185 1.023-4.606.83zm-79.576 14.312l4.606-.828.184 1.024-4.606.828zm34.096-49.068l1.023-.184.828 4.607-1.024.183zm14.316 79.586l1.023-.184.828 4.606-1.023.184zm-45.261-55.045l.436-.944 4.248 1.965-.437.944zm73.387 33.915l.436-.944 4.248 1.963-.436.944zm-18.834-51.225l1.965-4.248.944.436-1.965 4.248zm-33.933 73.391l1.966-4.247.944.436-1.966 4.248zm-21.909-24.349l4.393-1.614.358.976-4.392 1.614zm75.893-27.902l4.392-1.616.36.976-4.393 1.616zm-50.822-26.34l.976-.36 1.616 4.393-.976.359zm27.898 75.925l.976-.36 1.616 4.393-.976.359zm24.033-25.719l.266-1.005 4.515 1.193-.266 1.005zm-78.158-20.66l.267-1.005 4.515 1.195-.266 1.005zm51.732-26.591l1.214-4.53 1.009.27-1.214 4.53zm-21.695 78.21l1.193-4.515 1.006.266-1.193 4.515zm30.153-8.015l.898-.523 2.35 4.036-.9.523zm-40.671-69.878l.899-.523 2.348 4.037-.899.523zm54.619 17.106l4.039-2.346.522.9-4.038 2.345zm-69.892 40.66l4.036-2.349.523.9-4.036 2.348zm75.147-17.35l.087-1.036 4.654.391-.088 1.036zm-80.583-6.782l.087-1.037 4.654.392-.087 1.036zm38.56 45.644l.39-4.654 1.037.087-.39 4.654zm6.769-80.59l.392-4.653 1.037.088-.393 4.653zm-35.672 65.235l3.569-3.012.67.795-3.568 3.012zm61.78-52.2l3.565-3.016.672.794-3.566 3.016zm-4.581 54.405l.794-.671 3.015 3.566-.794.672zM121.02 110.7l.795-.672 3.014 3.567-.794.672zm-14.64 35.696l4.65-.421.094 1.036-4.65.42zm80.54-7.316l4.65-.425.096 1.036-4.651.425zm-41.74-38.087l1.04-.093.42 4.67-1.04.094zm7.287 80.873l1.04-.094.42 4.67-1.04.094zm20.547-68.406l2.996-3.595.799.665-2.996 3.596zm-51.766 62.105l2.996-3.594.8.666-2.998 3.594zm56.699-7.747l.666-.8 3.595 2.998-.666.799zm-62.109-51.747l.666-.799 3.595 2.996-.666.8z"/><path d="M155.86 181l-.18-1c1.08-.19 2.15-.44 3.2-.72l.27 1c-1.08.31-2.15.56-3.29.72zm-16.71-.63c-1.08-.29-2.16-.62-3.21-1l.35-1c1 .37 2.08.7 3.13 1zm3.3.72c-1.11-.19-2.22-.43-3.29-.72l.27-1c1 .28 2.12.51 3.2.7zM155.43 106c-1.09-.19-2.18-.33-3.25-.42l.09-1c1.1.09 2.23.24 3.34.43zm15.85 68.6l-.6-.85c.87-.62 1.74-1.29 2.59-2l.67.79c-.87.74-1.76 1.46-2.66 2.06zm-58.58-41.16l-1-.27c.29-1.08.62-2.16 1-3.21l1 .35c-.39 1.03-.7 2.08-1 3.13zm-1.12 6.45l-1-.09c.09-1.1.24-2.23.43-3.34l1 .18c-.2 1.09-.34 2.18-.43 3.25zm47.05-33.17c-1-.28-2.12-.51-3.2-.7l.18-1c1.11.19 2.22.43 3.29.72z"/><path d="M161.76 107.7c-1-.37-2.09-.7-3.13-1l.27-1c1.07.28 2.15.62 3.21 1zm-48.08 22.61l-1-.35c.38-1.05.81-2.1 1.28-3.11l.94.44c-.43.98-.9 2-1.22 3.02zm-1.68 6.33l-1-.18c.19-1.11.43-2.22.72-3.29l1 .27c-.3 1.05-.53 2.12-.72 3.2zm9.81 33.8c-.79-.78-1.56-1.62-2.28-2.48l.79-.67c.71.84 1.45 1.65 2.22 2.41zm2.5 2.26c-.88-.73-1.72-1.49-2.49-2.26l.73-.74c.76.75 1.57 1.49 2.43 2.2z"/><path d="M119.53 168c-.73-.87-1.43-1.76-2.06-2.67l.85-.6c.62.88 1.29 1.75 2 2.59zm7.47 6.74a58.36 58.36 0 0 1-2.68-2l.67-.8c.83.69 1.7 1.36 2.61 2zm-12.92-15.26c-.47-1-.9-2-1.29-3.11l1-.36c.38 1 .8 2.05 1.26 3zm18.75 18.61c-1-.47-2-1-3-1.54l.52-.9c.93.54 1.92 1 2.91 1.5z"/><path d="M115.65 162.46c-.57-1-1.1-2-1.56-3l.91-.46c.45 1 1 1.95 1.52 2.9z"/><path d="M117.46 165.3c-.64-.91-1.25-1.86-1.82-2.84l.9-.52c.55 1 1.15 1.88 1.77 2.76zm-6.89-18.76c-.1-1.11-.15-2.24-.16-3.36h1c0 1.1.06 2.2.16 3.27zm19.26 30c-1-.54-1.91-1.15-2.84-1.8l.59-.85c.91.63 1.84 1.22 2.77 1.75zm38.61-.12l-.52-.9c.94-.54 1.87-1.14 2.76-1.77l.6.85c-.92.65-1.87 1.26-2.84 1.82zm-.74-65.97c-.93-.53-1.91-1-2.91-1.5l.44-.94c1 .48 2 1 3 1.54zm-57.29 32.72c0-1.13 0-2.26.13-3.37l1 .09c-.09 1.08-.13 2.18-.13 3.28zm48.73 37.13l-.27-1c1-.28 2.09-.62 3.12-1l.36 1c-1.06.37-2.14.7-3.21 1z"/><path d="M111 149.87a38.8 38.8 0 0 1-.46-3.34l1-.1c.1 1.07.25 2.16.45 3.25zm62.08-35.69c-.83-.69-1.71-1.36-2.61-2l.59-.85c.93.64 1.83 1.33 2.68 2zm-10.73 65.1l-.36-1c1-.38 2.05-.8 3-1.26l.44.94c-.97.49-2.02.93-3.08 1.32zm24.09-39.64c-.1-1.07-.25-2.16-.44-3.25l1-.18c.2 1.12.36 2.24.46 3.34zm-71.52-12.36l-.94-.44c.48-1 1-2 1.54-3l.9.52c-.52.93-1.03 1.91-1.5 2.92zm69.36 2.8c-.38-1-.8-2-1.26-3l.94-.44c.47 1 .91 2.05 1.29 3.11zm-.21 29.16l-.94-.44c.46-1 .88-2 1.25-3l1 .35c-.38 1.03-.84 2.07-1.31 3.09zm-44.89-52.45l-.27-1c1.06-.29 2.17-.54 3.28-.74l.19 1c-1.09.22-2.17.46-3.2.74zm-21 14.81l-.85-.59c.64-.92 1.32-1.82 2-2.68l.8.67c-.66.83-1.33 1.71-1.95 2.6z"/><path d="M142.38 106.07l-.19-1c1.12-.2 2.25-.36 3.34-.46l.1 1c-1.07.11-2.16.26-3.25.46zm6.77 75.59v-1c1.09 0 2.2-.06 3.27-.16l.1 1c-1.11.1-2.24.16-3.37.16zm37.21-28.75l-1-.27c.27-1 .51-2.12.7-3.2l1 .18a34.87 34.87 0 0 1-.7 3.29zm-9.94 17.35l-.74-.73c.77-.78 1.51-1.59 2.2-2.43l.8.67c-.68.85-1.47 1.69-2.26 2.49zm-23.9 11.24l-.09-1c1.07-.1 2.16-.25 3.25-.44l.19 1c-1.13.19-2.25.34-3.35.44zm-25.15-69.17l-.6-.85c.91-.64 1.86-1.25 2.84-1.82l.52.9a40.6 40.6 0 0 0-2.76 1.77z"/><path d="M130.13 110.57l-.52-.9c1-.57 2-1.09 3-1.56l.44.94c-1 .45-1.97.95-2.92 1.52zm48.56 57.19l-.8-.67c.69-.83 1.36-1.71 2-2.61l.85.59c-.66.93-1.34 1.84-2.05 2.69zM120.16 119l-.8-.67c.72-.87 1.48-1.71 2.26-2.49l.74.73c-.75.76-1.49 1.58-2.2 2.43zm15.9-11.22l-.36-1c1.07-.39 2.15-.74 3.21-1l.27 1c-1.03.29-2.08.62-3.12 1z"/><path d="M133 109l-.44-.94c1-.47 2-.9 3.11-1.29l.36 1c-1.03.39-2.03.82-3.03 1.23zm16 72.66c-1.07 0-2.14 0-3.19-.13l.09-1c1.08.09 2.17.13 3.28.13v1zm-26.63-65.1l-.74-.73c.78-.79 1.62-1.56 2.48-2.28l.67.79c-.84.66-1.65 1.45-2.41 2.22z"/><path d="M124.78 114.34l-.67-.79c.86-.73 1.76-1.43 2.67-2.06l.6.85c-.89.66-1.76 1.29-2.6 2zm56.72 9.81c-.54-.94-1.14-1.87-1.77-2.76l.85-.6c.65.92 1.26 1.87 1.82 2.84zm5.58 25.47l-1-.18c.19-1.09.33-2.19.42-3.25l1 .09c-.08 1.1-.23 2.22-.42 3.34zm-41.29 31.9c-1.08-.09-2.21-.23-3.34-.43l.18-1c1.1.19 2.2.33 3.25.42zm24.68-69.32c-.9-.63-1.84-1.22-2.77-1.75l.52-.9c1 .55 1.92 1.16 2.85 1.8z"/><path d="M183 127c-.46-1-1-2-1.52-2.9l.9-.52c.56 1 1.09 2 1.56 3zm-3.26-5.61c-.62-.88-1.3-1.75-2-2.59l.79-.67c.73.86 1.42 1.76 2.06 2.66zm-14.95-12.45c-1-.46-2-.88-3-1.25l.35-1c1.05.38 2.1.81 3.11 1.28zm-48.36 15.43l-.9-.52c.55-1 1.15-1.91 1.8-2.85l.85.59c-.63.92-1.18 1.85-1.75 2.78zm19.51 55c-1-.37-2.09-.8-3.12-1.28l.44-.94c1 .46 2 .88 3 1.25zm38-6.83l-.67-.79c.83-.7 1.64-1.45 2.41-2.22l.74.73c-.79.79-1.62 1.56-2.48 2.28zm-21.76-66.94c-1.07-.09-2.17-.14-3.28-.13v-1c1.13 0 2.26 0 3.37.13zm23.33 10.79c-.77-.76-1.58-1.5-2.43-2.2l.66-.8c.87.72 1.71 1.48 2.5 2.26z"/><path d="M177.73 118.79c-.71-.84-1.46-1.65-2.22-2.41l.73-.74c.79.78 1.56 1.61 2.28 2.48zm-32.1-13.17l-.1-1c1.1-.1 2.24-.15 3.36-.16v1c-1.09.01-2.19.06-3.26.16zm35.09 59.46l-.85-.59c.63-.91 1.22-1.84 1.75-2.77l.9.52c-.52.95-1.15 1.91-1.8 2.84zM165.46 178l-.46-1c1-.46 2-1 2.9-1.52l.52.9c-.95.62-1.95 1.13-2.96 1.62zm22.05-31.72l-1-.09c.09-1.07.13-2.17.13-3.27h1c0 1.08-.04 2.26-.13 3.36zm-.91-3.36c0-1.08-.06-2.18-.16-3.27l1-.09c.1 1.12.16 2.25.16 3.36z"/><path d="M182.52 162.24l-.9-.52c.54-.94 1-1.92 1.5-2.91l.94.44c-.46 1.01-.98 2.02-1.54 2.99zm2.83-6.11l-1-.35c.37-1 .7-2.08 1-3.13l1 .27a37.17 37.17 0 0 1-1 3.21zm-36.48-57.9a.69.69 0 0 1-.56-.29l-3.37-4.73a.69.69 0 0 1 0-.8l3.33-4.75a.65.65 0 0 1 .57-.29.69.69 0 0 1 .56.29l3.37 4.73a.69.69 0 0 1 0 .8l-3.33 4.75a.69.69 0 0 1-.57.29zm-2.52-5.42l2.51 3.53 2.49-3.54-2.51-3.53zm2.86 105.91a.69.69 0 0 1-.56-.29l-3.37-4.73a.69.69 0 0 1 0-.8l3.33-4.75a.7.7 0 0 1 .57-.29.69.69 0 0 1 .57.29l3.37 4.73a.69.69 0 0 1 0 .8l-3.33 4.75a.69.69 0 0 1-.56.29zm-2.52-5.42l2.51 3.53 2.49-3.54-2.51-3.53zm13.97-93.56h-.18a.69.69 0 0 1-.47-.43l-2-5.44a.69.69 0 0 1 .2-.77l4.45-3.72a.69.69 0 0 1 1.09.29l2 5.44a.69.69 0 0 1-.2.77l-4.45 3.72a.69.69 0 0 1-.44.14zm-1.21-5.91l1.55 4.06 3.32-2.78-1.51-4.06zM135 196.89h-.18a.69.69 0 0 1-.47-.43l-2-5.44a.69.69 0 0 1 .21-.77l4.45-3.72a.69.69 0 0 1 1.09.29l2 5.44a.69.69 0 0 1-.21.77l-4.45 3.72a.69.69 0 0 1-.44.14zm-1.23-5.89l1.51 4.06 3.32-2.78-1.51-4.06zm47.33-79.55a.69.69 0 0 1-.68-.81l1-5.72a.69.69 0 0 1 .56-.57l5.71-1a.69.69 0 0 1 .8.8l-1 5.72a.69.69 0 0 1-.57.57l-5.71 1zm1.56-5.82l-.72 4.27 4.27-.75.72-4.27zm-72.38 77.11a.69.69 0 0 1-.68-.81l1-5.72a.69.69 0 0 1 .56-.57l5.72-1a.69.69 0 0 1 .8.8l-1 5.72a.69.69 0 0 1-.56.57l-5.71 1zm1.56-5.82l-.72 4.27 4.27-.75.72-4.27zm82.3-55.55h-.06l-5.78-.51a.69.69 0 0 1-.57-1l2.41-5.28a.69.69 0 0 1 .69-.4l5.78.51a.69.69 0 0 1 .57 1l-2.41 5.31a.69.69 0 0 1-.63.37zm-4.74-1.81l4.31.38 1.8-3.94-4.31-.38zm-82.12 52.34h-.06l-5.78-.51a.69.69 0 0 1-.57-1l2.41-5.28a.7.7 0 0 1 .69-.4l5.78.51a.69.69 0 0 1 .57 1l-2.41 5.28a.69.69 0 0 1-.63.4zm-4.74-1.81l4.31.38 1.8-3.94-4.31-.38zm96.74-23.17a.69.69 0 0 1-.4-.13l-4.75-3.33a.69.69 0 0 1 0-1.13l4.72-3.37a.69.69 0 0 1 .8 0l4.75 3.33a.69.69 0 0 1 0 1.13l-4.73 3.37a.69.69 0 0 1-.39.13zm-3.55-4l3.54 2.49 3.53-2.51-3.54-2.49zm-96.94 4.33a.69.69 0 0 1-.4-.13l-4.75-3.33a.69.69 0 0 1 0-1.13l4.73-3.37a.69.69 0 0 1 .8 0l4.75 3.33a.69.69 0 0 1 0 1.13l-4.73 3.37a.7.7 0 0 1-.4.13zm-3.55-4l3.54 2.49 3.53-2.51-3.54-2.49zm101.5 16.57a.69.69 0 0 1-.53-.25l-3.72-4.45a.69.69 0 0 1 .29-1.09l5.44-2a.69.69 0 0 1 .77.21l3.72 4.45a.69.69 0 0 1-.29 1.09l-5.43 2a.7.7 0 0 1-.25.04zm-2.56-4.82l2.82 3.3 4.06-1.51-2.78-3.32zm-94.59-20.87a.69.69 0 0 1-.53-.25l-3.72-4.45a.69.69 0 0 1 .29-1.09l5.44-2a.69.69 0 0 1 .77.2l3.72 4.45a.69.69 0 0 1-.29 1.09l-5.44 2a.69.69 0 0 1-.24.05zM97 129.3l2.78 3.32 4.06-1.51-2.78-3.32zm91 53.18h-.12l-5.72-1a.69.69 0 0 1-.57-.56l-1-5.71a.69.69 0 0 1 .8-.8l5.72 1a.69.69 0 0 1 .57.56l1 5.58a.68.68 0 0 1 0 .25.69.69 0 0 1-.7.69zm-5.12-2.26l4.27.72-.75-4.27-4.27-.72zm-66.14-68.55h-.12l-5.72-1a.69.69 0 0 1-.57-.56l-1-5.71a.69.69 0 0 1 .19-.61.7.7 0 0 1 .61-.2l5.72 1a.69.69 0 0 1 .57.56l1 5.58a.68.68 0 0 1 0 .25.69.69 0 0 1-.69.69zm-5.12-2.26l4.27.72-.75-4.27-4.27-.72zm65.05 81.85a.7.7 0 0 1-.29-.06l-5.28-2.41a.69.69 0 0 1-.4-.69l.51-5.78a.69.69 0 0 1 .34-.54.7.7 0 0 1 .64 0l5.28 2.41a.7.7 0 0 1 .4.69l-.51 5.78a.69.69 0 0 1-.34.54.71.71 0 0 1-.35.06zm-4.54-3.53l3.94 1.8.38-4.31-3.94-1.8zm-45.99-83.33a.69.69 0 0 1-.29-.06l-5.28-2.41a.69.69 0 0 1-.4-.69l.51-5.78a.69.69 0 0 1 1-.57l5.28 2.41a.69.69 0 0 1 .4.69l-.51 5.78a.69.69 0 0 1-.69.63zm-4.54-3.53l3.94 1.8.38-4.31-3.92-1.8zM96.31 81.95l9.62 4.64-2.07-10.47-7.55 5.83zm105.43 122.18l-9.62-4.64 2.07 10.48 7.55-5.84zM68.45 137.94l10.08-3.53-8.87-5.95-1.21 9.48zm161.15 10.21l-10.08 3.52 8.87 5.95 1.21-9.47zM87.94 195.76l4.64-9.62-10.48 2.06 5.84 7.56zM210.11 90.33l-4.64 9.61 10.48-2.06-5.84-7.55zm-66.19 133.29l-3.52-10.08-5.96 8.87 9.48 1.21zm10.21-161.15l3.53 10.08 5.95-8.87-9.48-1.21zm19.613 134.761l1.258-.592 1.422 3.022-1.258.592zM121.63 86.443l1.258-.592 1.423 3.022-1.258.592zm80.98 30.632l3.023-1.423.592 1.258-3.022 1.423zM91.814 169.198l3.023-1.42.591 1.258-3.023 1.42zm112.989-5.329l.47-1.308 3.143 1.132-.47 1.308zm-115.17-41.467l.471-1.308 3.143 1.132-.471 1.308zm78.923-35.605l1.133-3.142 1.307.471-1.132 3.142zm-41.498 115.165l1.131-3.143 1.308.47-1.13 3.144zm55.715-9.84l1.136-.801 1.925 2.73-1.136.8zM112.21 92.052l1.135-.8 1.926 2.728-1.136.802zm-14.993 86.686l2.729-1.927.802 1.136-2.73 1.926zm100.078-70.578l2.73-1.926.8 1.136-2.729 1.926zm10.277 45.695l.237-1.37 3.291.57-.237 1.369zm-120.63-20.833l.237-1.37 3.291.57-.237 1.37zm71.551-48.769l.57-3.29 1.37.236-.57 3.291zm-20.859 120.654l.568-3.292 1.37.236-.568 3.292zm-33.718-105.7l.98-.986 2.37 2.353-.98.986zm86.864 86.305l.98-.986 2.37 2.353-.98.986zm-86.576 1.672l2.354-2.369.986.98-2.354 2.369zm86.298-86.86l2.353-2.37.987.978-2.353 2.37zm17.458 42.726h3.34v1.39h-3.34zm-121.833-.492l3.34-.011.005 1.39-3.34.011zm62.394 60.048l1.39-.004.011 3.34-1.39.004zm-.4-122.442l1.39-.004.01 3.34-1.39.004zm49.386 97.422l.794-1.141 2.742 1.907-.794 1.141zm-100.51-69.873l.794-1.141 2.742 1.907-.794 1.14zm15.567 86.539l1.907-2.741 1.141.793-1.907 2.742zM182.44 93.773l1.905-2.744 1.141.793-1.905 2.744zm25.057 38.065l3.287-.59.246 1.368-3.288.59zM87.016 153.484l3.287-.593.247 1.368-3.287.593zm50.207-72.218l1.368-.246.593 3.287-1.368.246zm21.665 120.493l1.368-.246.592 3.287-1.368.246zm-67.235-84.467l.583-1.262 3.032 1.401-.583 1.262zm111.142 51.386l.584-1.261 3.031 1.401-.583 1.262zm-29.422-79.973l1.404-3.031 1.261.584-1.403 3.03zm-51.36 111.139l1.4-3.033 1.262.583-1.4 3.033zM89.77 164.1l3.134-1.154.48 1.304-3.135 1.154zm114.597-41.205l3.14-1.136.472 1.307-3.14 1.135zM126.68 84.258l1.305-.48 1.153 3.135-1.305.48zm42.26 114.889l1.304-.48 1.153 3.135-1.304.48zm37.47-40.232l.356-1.344 3.229.853-.355 1.344zm-118.35-31.27l.356-1.343 3.229.854-.356 1.344zm75.515-42.343l.852-3.23 1.344.355-.852 3.23zM132.276 203.65l.85-3.23 1.345.355-.851 3.23zm46.097-8.793l1.202-.699 1.68 2.888-1.202.698zM116.81 89.03l1.201-.7 1.68 2.887-1.202.7zm83.336 23.449l2.887-1.68.699 1.202-2.887 1.68zM94.317 174.075l2.887-1.68.7 1.202-2.888 1.68zm113.998-25.338l.116-1.385 3.328.278-.116 1.385zM86.282 138.451l.117-1.385 3.328.28-.117 1.386zm56.788 67.222l.28-3.328 1.384.116-.28 3.329zm9.92-122.916l.266-3.34 1.39.111-.267 3.34zm-52.456 100.352l2.553-2.154.896 1.062-2.552 2.154zm93.533-79.016l2.551-2.156.897 1.061-2.55 2.156zm-7.139 84.875l1.062-.897 2.155 2.55-1.061.898zM107.903 95.46l1.062-.898 2.155 2.552-1.062.897zm-21.568 52.584l3.326-.301.126 1.384-3.327.301zm122.678-10.343l3.34-.3.125 1.39-3.34.3zM142.64 80.478l1.384-.126.303 3.326-1.384.126zm11.073 121.944l1.384-.126.302 3.326-1.384.126zm32.894-105.566l2.137-2.566 1.068.89-2.138 2.566zm-78.363 94.029l2.135-2.568 1.07.889-2.137 2.568zm86.071-9.173l.89-1.067 2.565 2.139-.89 1.067zm-94.032-78.389l.89-1.068 2.565 2.139-.89 1.067zM109.21 2.19A13.73 13.73 0 0 1 116.84 0c5 0 8.49 2.62 8.49 7.08a7.28 7.28 0 0 1-6 7v.09c4.07.43 7 3.09 7 7.25 0 6-5.19 8.4-10.46 8.4A14.74 14.74 0 0 1 108.4 28l1-2.92a14 14 0 0 0 6.48 1.76c4.29 0 6.65-2.32 6.65-5.49 0-4.33-4.16-5.57-7.85-5.57h-1.72v-2.87h1.72c3.82 0 6.77-2.36 6.77-5.32S119.37 3 116.24 3a11.84 11.84 0 0 0-6 1.89zM285 122.21a18.53 18.53 0 0 1-7.63 1.37c-8.15 0-14.28-5.15-14.28-14.62 0-9 6.13-15.18 15.09-15.18a15.49 15.49 0 0 1 6.82 1.28l-.9 3a13.58 13.58 0 0 0-5.83-1.2c-6.77 0-11.28 4.33-11.28 11.92 0 7.08 4.07 11.62 11.11 11.62a14.93 14.93 0 0 0 6.09-1.2zM176.52 260.12a36.18 36.18 0 0 1 6.82-.6c3.73 0 6.13.64 7.93 2.1a6.06 6.06 0 0 1 2.4 5.1c0 2.79-1.84 5.23-4.89 6.35v.08a7.45 7.45 0 0 1 6 7.25 7.79 7.79 0 0 1-2.44 5.79c-2 1.84-5.27 2.7-10 2.7a43.51 43.51 0 0 1-5.79-.34zm3.73 11.88h3.39c3.94 0 6.26-2.06 6.26-4.85 0-3.39-2.57-4.72-6.35-4.72a16 16 0 0 0-3.3.26zm0 13.85a19.9 19.9 0 0 0 3.13.17c3.86 0 7.42-1.41 7.42-5.62 0-3.95-3.39-5.58-7.46-5.58h-3.09zM3.73 166v12.48H8c.77-8.06 5.49-12.95 12.31-12.95 7.5 0 12 6 12 14.62 0 10-5.57 15.22-12.44 15.22S8.23 190 7.93 181.57h-4.2v13.29H0V166zm24.83 14.32c0-5.75-2.7-11.79-8.4-11.79s-8.53 5.83-8.53 12.09c0 6.09 3 11.75 8.45 11.75s8.48-5.53 8.48-12.09z"/></g></g></svg>