<?xml version="1.0" standalone="no"?>
<!DOCTYPE svg PUBLIC "-//W3C//DTD SVG 20010904//EN"
 "http://www.w3.org/TR/2001/REC-SVG-20010904/DTD/svg10.dtd">
<svg version="1.0" xmlns="http://www.w3.org/2000/svg"
 width="163.000000pt" height="163.000000pt" viewBox="0 0 163.000000 163.000000"
 preserveAspectRatio="xMidYMid meet">
<metadata>
Created by potrace 1.11, written by Peter Selinger 2001-2013
</metadata>
<g transform="translate(0.000000,163.000000) scale(0.100000,-0.100000)"
fill="#000000" stroke="none">
<path d="M1245 1619 c-11 -4 -87 -18 -170 -30 -308 -44 -277 -36 -282 -72 -2
-12 -17 -77 -33 -145 -17 -67 -30 -129 -30 -137 0 -8 -4 -15 -9 -15 -5 0 -16
39 -26 88 -10 48 -24 106 -31 130 -8 23 -14 54 -14 69 l0 26 -147 -7 c-81 -3
-148 -8 -149 -9 -3 -3 85 -222 228 -565 44 -106 77 -199 75 -206 -3 -8 2 -13
14 -12 18 1 50 46 401 569 65 98 123 175 128 172 6 -3 8 0 5 7 -3 7 6 26 20
42 14 16 25 34 25 39 0 6 7 18 14 26 20 22 7 41 -19 30z"/>
<path d="M1235 1473 c-43 -65 -81 -119 -86 -121 -5 -2 -9 -8 -9 -13 0 -5 -24
-44 -52 -85 -29 -42 -57 -83 -63 -92 -19 -31 -89 -137 -97 -147 -5 -5 -41 -59
-81 -119 -39 -60 -84 -127 -99 -149 -15 -22 -26 -43 -24 -46 2 -3 194 -5 426
-3 395 2 422 4 415 20 -4 9 -24 64 -44 122 -20 58 -40 110 -44 116 -5 8 -19 9
-44 3 -21 -4 -78 -15 -128 -24 -49 -9 -100 -18 -112 -21 -13 -2 -23 -3 -23 0
0 2 33 26 72 52 40 27 84 59 98 72 13 12 29 22 35 22 6 0 22 13 36 29 l26 29
-24 94 c-13 51 -30 125 -38 163 -26 135 -47 215 -55 215 -5 0 -43 -53 -85
-117z"/>
<path d="M293 1498 c-4 -7 -9 -23 -11 -36 -1 -13 -14 -53 -27 -90 -13 -37 -31
-96 -40 -132 -15 -62 -27 -101 -45 -145 -25 -61 -23 -66 63 -154 63 -64 76
-82 57 -77 -14 3 -61 9 -105 12 l-80 6 -42 -92 c-36 -77 -40 -92 -26 -97 8 -3
143 -3 299 0 177 4 286 3 289 -3 4 -6 12 -10 18 -10 8 0 8 3 2 8 -5 4 -11 14
-13 22 -3 14 -98 252 -156 390 -13 30 -37 89 -54 130 -17 41 -47 113 -67 159
-19 47 -35 90 -35 97 0 19 -17 26 -27 12z"/>
<path d="M718 649 c-6 -4 21 -81 68 -195 42 -104 92 -227 110 -274 17 -46 36
-86 42 -88 10 -3 24 8 65 58 16 18 32 28 39 24 7 -5 9 -2 5 8 -3 9 3 24 14 34
10 9 19 20 19 24 0 4 -18 40 -40 80 -22 40 -38 75 -35 78 3 3 15 0 28 -6 28
-14 99 -44 112 -48 6 -1 17 -5 25 -8 10 -4 55 24 125 80 61 47 126 98 145 112
19 15 44 35 55 45 11 10 35 28 53 39 18 11 32 24 30 30 -4 10 -843 17 -860 7z"/>
<path d="M40 636 c19 -19 126 -93 216 -151 l72 -45 41 15 c23 8 45 15 49 16 4
1 16 5 27 9 50 18 65 21 65 10 0 -6 -7 -13 -15 -16 -8 -4 -15 -11 -15 -18 0
-6 -13 -27 -28 -46 -15 -19 -66 -88 -112 -152 -46 -65 -87 -118 -92 -118 -4 0
-8 -7 -8 -15 0 -7 -8 -19 -17 -24 -10 -6 -14 -11 -10 -11 5 0 -1 -12 -13 -27
l-22 -28 54 -16 c29 -9 56 -15 61 -12 4 2 16 21 27 41 11 20 26 46 33 57 32
52 62 101 67 110 3 6 39 66 80 133 l75 122 7 -47 c3 -27 7 -75 7 -108 l1 -60
105 -70 c58 -38 105 -73 105 -77 0 -4 5 -8 10 -8 6 0 28 -11 50 -25 22 -14 40
-23 40 -20 0 6 -152 383 -189 469 -21 47 -29 75 -30 104 -1 7 -5 10 -11 7 -5
-3 -10 -1 -10 4 0 8 -101 11 -317 11 -275 0 -315 -2 -303 -14z"/>
</g>
</svg>
