<svg xmlns="http://www.w3.org/2000/svg" width="187" height="178" viewBox="0 0 187 178">
  <g fill="none" fill-rule="evenodd">
    <polygon fill="#BBC46A" points="119.69 169.88 2.06 169.88 2.06 1.54 68.59 1.54 70.39 29.23 119.69 29.15"/>
    <path stroke="#000000" stroke-width=".46" d="M137.64 32.01L108.9 32.01M77.73 32.01L53.79 32.01M22.62 32.01L8.7 32.01M8.7 164.28L8.7 32.01M124.33 171.71L8.7 171.71M124.33 164.28L8.7 164.28M124.33 171.71L33.02 171.71M124.33 164.28L33.02 164.28M117.29 134.6L117.42 134.6M121.13 130.89L186.53 130.89M186.53 134.6L121.13 134.6M8.7 116.61L37.08 116.61M8.7 114.77L38.94 114.77"/>
    <path stroke="#231F20" stroke-width=".17" d="M19.84 103.62L19.84 114.76M8.7 103.62L34.67 103.62M19.84 78.37L19.84 114.76M8.7 75.68L8.7 114.76"/>
    <path stroke="#231F20" stroke-width=".28" d="M8.7 96.75L8.7 85.63M19.84 96.75L19.84 85.63"/>
    <path stroke="#231F20" stroke-width=".17" d="M34.67 103.62L34.67 114.76M19.84 114.76L19.84 103.67M19.84 105.02L19.84 113.37M20.3 104.56L30.66 104.56M31.12 105.02L31.12 113.37M20.3 113.83L30.66 113.83M20.3 104.55C20.0404262 104.55 19.83 104.760426 19.83 105.02M19.84 113.37C19.84 113.629574 20.0504262 113.84 20.31 113.84M30.66 113.83C30.9195738 113.83 31.13 113.619574 31.13 113.36M31.13 105C31.13 104.740426 30.9195738 104.53 30.66 104.53M20.52 107.44L20.52 110.95M30.43 106.32L30.43 112.07M23.38 107.44L23.38 110.95M24.12 106.32L24.12 112.07M28.84 109.19L19.84 109.19M29.41 105.3L25.14 105.3M29.41 113.1L25.14 113.1M30.43 106.32C30.43 105.767715 29.9822847 105.32 29.43 105.32M29.41 113.09C29.9622847 113.09 30.41 112.642285 30.41 112.09M24.13 112.07C24.13 112.622285 24.5777153 113.07 25.13 113.07M25.15 105.3C24.5977153 105.3 24.15 105.747715 24.15 106.3M22.36 106.41L21.55 106.41M22.36 111.98L21.55 111.98M20.53 110.95C20.53 111.502285 20.9777153 111.95 21.53 111.95M22.37 112C22.9222847 112 23.37 111.552285 23.37 111M23.38 107.43C23.38 106.877715 22.9322847 106.43 22.38 106.43M21.55 106.41C20.9977153 106.41 20.55 106.857715 20.55 107.41M25.14 105.02L30.19 105.02M30.66 105.49L30.66 112.91M25.14 113.37L30.19 113.37M20.3 106.6L20.3 111.79M23.5 106.14L20.76 106.14M23.5 112.26L20.76 112.26M30.66 105.48C30.66 105.220426 30.4495738 105.01 30.19 105.01M30.19 113.37C30.4495738 113.37 30.66 113.159574 30.66 112.9M20.77 106.13C20.5104262 106.13 20.3 106.340426 20.3 106.6M20.3 111.78C20.3 112.039574 20.5104262 112.25 20.77 112.25M25.15 105C24.6166427 104.999237 24.1369316 105.32433 23.94 105.82M23.94 112.55C24.1369316 113.04567 24.6166427 113.370763 25.15 113.37M23.51 106.13C23.6985243 106.128326 23.8678038 106.014161 23.94 105.84M23.94 112.55C23.8678038 112.375839 23.6985243 112.261674 23.51 112.26M21.95 107.35L21.95 111.05M26.39 106.61L26.39 111.78M23.38 105.02L23.38 105.95M23.85 105.49L22.91 105.49M23.39 105.2C23.2353603 105.2 23.11 105.32536 23.11 105.48 23.11 105.63464 23.2353603 105.76 23.39 105.76 23.5446397 105.76 23.67 105.63464 23.67 105.48 23.67 105.32536 23.5446397 105.2 23.39 105.2M23.38 113.37L23.38 112.45M23.85 112.91L22.91 112.91M23.39 112.62C23.2353603 112.62 23.11 112.74536 23.11 112.9 23.11 113.05464 23.2353603 113.18 23.39 113.18 23.5446397 113.18 23.67 113.05464 23.67 112.9 23.67 112.74536 23.5446397 112.62 23.39 112.62M22 108.36C21.5416037 108.36 21.17 108.731604 21.17 109.19 21.17 109.648396 21.5416037 110.02 22 110.02 22.4583963 110.02 22.83 109.648396 22.83 109.19 22.83 108.731604 22.4583963 108.36 22 108.36"/>
    <path stroke="#231F20" stroke-width=".17" d="M22 108.72C21.7404262 108.72 21.53 108.930426 21.53 109.19 21.53 109.449574 21.7404262 109.66 22 109.66 22.2595738 109.66 22.47 109.449574 22.47 109.19 22.47 108.930426 22.2595738 108.72 22 108.72M26.4 108.36C25.9416037 108.36 25.57 108.731604 25.57 109.19 25.57 109.648396 25.9416037 110.02 26.4 110.02 26.8583963 110.02 27.23 109.648396 27.23 109.19 27.23 108.731604 26.8583963 108.36 26.4 108.36"/>
    <path stroke="#231F20" stroke-width=".17" d="M26.4 108.72C26.1404262 108.72 25.93 108.930426 25.93 109.19 25.93 109.449574 26.1404262 109.66 26.4 109.66 26.6595738 109.66 26.87 109.449574 26.87 109.19 26.87 108.930426 26.6595738 108.72 26.4 108.72M17.06 88.1C17.8276758 88.1 18.45 87.4776758 18.45 86.71 18.45 85.9423242 17.8276758 85.32 17.06 85.32 16.2923242 85.32 15.67 85.9423242 15.67 86.71 15.67 87.4776758 16.2923242 88.1 17.06 88.1M17.06 93.66C17.8276758 93.66 18.45 93.0376758 18.45 92.27 18.45 91.5023242 17.8276758 90.88 17.06 90.88 16.2923242 90.88 15.67 91.5023242 15.67 92.27 15.67 93.0376758 16.2923242 93.66 17.06 93.66M11.49 93.66C12.2576758 93.66 12.88 93.0376758 12.88 92.27 12.88 91.5023242 12.2576758 90.88 11.49 90.88 10.7223242 90.88 10.1 91.5023242 10.1 92.27 10.1 92.6386509 10.246446 92.9922029 10.5071216 93.2528784 10.7677971 93.513554 11.1213491 93.66 11.49 93.66M11.49 88.1C12.2563697 88.0999802 12.8781355 87.4796769 12.8799601 86.7133094 12.8817847 85.9469419 12.2629796 85.323685 11.4966187 85.3200159 10.7302578 85.3163469 10.1055135 85.9336501 10.1 86.7 10.1 87.0686509 10.246446 87.4222029 10.5071216 87.6828784 10.7677971 87.943554 11.1213491 88.09 11.49 88.09"/>
    <polyline stroke="#231F20" stroke-width=".17" points="19.84 83.93 19.84 95.06 8.7 83.93"/>
    <path stroke="#231F20" stroke-width=".17" d="M14.27 95.06L14.27 83.93M19.14 84.63L9.4 84.63M19.14 94.37L9.4 94.37M19.84 89.49L8.7 89.49M19.14 94.37L19.14 84.63M8.7 95.06L8.7 83.93M9.4 94.37L9.4 84.63M8.71 95.06L8.7 83.94M8.7 83.93L19.84 83.93"/>
    <polyline stroke="#231F20" stroke-width=".17" points="19.84 95.06 8.7 95.06 19.84 83.93"/>
    <polyline stroke="#231F20" stroke-width=".17" points="8.9 68.09 8.9 75.91 8.7 75.91 8.7 68.09 8.9 68.09"/>
    <path stroke="#231F20" stroke-width=".17" d="M20.83 65.39L20.83 78.37M21.02 65.39L21.02 78.37"/>
    <polyline stroke="#231F20" stroke-width=".17" points="23.01 66.47 23.38 66.47 23.38 67.68 23.01 67.68"/>
    <polyline stroke="#231F20" stroke-width=".17" points="9.1 78.37 9.1 65.39 23.01 65.39 23.01 78.37 9.1 78.37"/>
    <path stroke="#231F20" stroke-width=".17" d="M8.7,114.76 L34.67,114.76"/>
    <path stroke="#231F20" stroke-width=".46" d="M37.08 164.28L37.08 149.62M38.94 164.28L38.94 149.62"/>
    <path stroke="#231F20" stroke-width=".28" d="M38.01,134.88 L44.49,146.09"/>
    <polyline stroke="#231F20" stroke-width=".17" points="13.16 135.84 8.92 135.84 8.92 145.86 13.16 145.86"/>
    <path stroke="#231F20" stroke-width=".17" d="M8.92 142.43L8.92 139.28M12.32 141.69L12.32 141.16M11.48 140.86L12.01 140.86M12.32 140.54L12.32 140.01M12.63 140.86L13.16 140.86M13.43 136.45C12.5635518 136.792664 11.8258394 137.397518 11.32 138.18M11.32 138.18C10.8373841 138.979125 10.6170794 139.9093 10.69 140.84M11.31 143.51C11.8158394 144.292482 12.5535518 144.897336 13.42 145.24M10.69 140.85C10.6170794 141.7807 10.8373841 142.710875 11.32 143.51M16.52 140.5C16.4364385 139.456351 16.1547468 138.438188 15.69 137.5M13.17 145.86C13.9901127 145.883914 14.7716368 145.51176 15.27 144.86M16.52 141.2C16.5365862 140.966961 16.5365862 140.733039 16.52 140.5M11.47 138C11.181346 139.858861 11.181346 141.751139 11.47 143.61M9.72 144.18C10.875844 145.123105 12.3284454 145.626201 13.82 145.6M9.13 140.85C9.12242059 141.815415 9.22644407 142.778471 9.44 143.72M9.44 143.72C9.47961436 143.900191 9.57813569 144.062048 9.72 144.18M9.53 140.86C9.53390598 141.806722 9.60071984 142.752138 9.73 143.69M10 144.19C11.0543241 145.117616 12.4158403 145.620165 13.82 145.6M9.73 143.68C9.75610431 143.876822 9.85189803 144.057765 10 144.19M13.82 136.09C12.4145194 136.072589 11.0528418 136.578763 10 137.51M13.82 136.09C12.327056 136.065742 10.8740247 136.572531 9.72 137.52M9.73 138C9.60130622 138.93457 9.53449407 139.876621 9.53 140.82M9.43 138C9.2168837 138.941602 9.11286573 139.904607 9.12 140.87M10 137.52C9.85189803 137.652235 9.75610431 137.833178 9.73 138.03M9.72 137.53C9.57813569 137.647952 9.47961436 137.809809 9.44 137.99M15.27 136.79C14.7716368 136.13824 13.9901127 135.766086 13.17 135.79M15.7 137.46C15.5797753 137.222653 15.4356991 136.998162 15.27 136.79M15.27 144.91C15.4357557 144.701878 15.5798357 144.477382 15.7 144.24M15.7 144.24C16.1647468 143.301812 16.4464385 142.283649 16.53 141.24M15.81 142.23C16.0273699 141.32622 16.0273699 140.38378 15.81 139.48M14.67 137C14.3618555 136.64074 13.9022246 136.447992 13.43 136.48M15.81 139.48C15.6468246 138.562016 15.2508697 137.701244 14.66 136.98M13.43 145.24C13.9022246 145.272008 14.3618555 145.07926 14.67 144.72M14.67 144.73C15.2616357 144.009235 15.657687 143.148254 15.82 142.23M13 140.85C13 140.491015 12.7089851 140.2 12.35 140.2 11.9910149 140.2 11.7 140.491015 11.7 140.85 11.7 141.208985 11.9910149 141.5 12.35 141.5 12.7089851 141.5 13 141.208985 13 140.85"/>
    <path stroke="#231F20" stroke-width=".17" d="M12.79,140.85 C12.79,140.590426 12.5795738,140.38 12.32,140.38 C12.0604262,140.38 11.85,140.590426 11.85,140.85 C11.85,141.109574 12.0604262,141.32 12.32,141.32 C12.5795738,141.32 12.79,141.109574 12.79,140.85"/>
    <path stroke="#000000" stroke-width=".46" d="M55.82 134.61L55.82 32.01M57.68 132.75L57.68 32.01M121.13 164.28L121.13 154.08M121.13 137.2L121.13 134.6M121.13 130.89L121.13 32.01M117.42 32.01L117.42 137.2M117.42 154.08L117.42 164.28M55.82 134.61L77.15 134.61M94.03 134.61L117.42 134.61M57.68 132.75L77.15 132.75M94.03 132.75L117.42 132.75"/>
    <path stroke="#231F20" stroke-width=".33" d="M36.53 163.92L36.53 150.74M8.7 163.92L8.7 150.74M36.16 150.38L9.08 150.38M8.71 163.92C8.71 164.124345 8.87565464 164.29 9.08 164.29M9.08 150.37C8.87565464 150.37 8.71 150.535655 8.71 150.74M36.53 150.74C36.53 150.535655 36.3643454 150.37 36.16 150.37M36.16 164.28C36.3643454 164.28 36.53 164.114345 36.53 163.91M11.32 150.74C9.7817732 154.995254 9.7817732 159.654746 11.32 163.91M30.57 163.74L11.56 163.74M29.93 150.93L11.56 150.93M11.13 154.4C10.8220976 156.337846 10.8220976 158.312154 11.13 160.25M30.47 163.75C33.4785819 163.07467 35.6166705 160.403446 35.6166705 157.32 35.6166705 154.236554 33.4785819 151.56533 30.47 150.89M29.42 163.33C28.8685496 162.782513 28.1763313 162.398332 27.42 162.22M29.42 163.33C29.7789525 163.687596 30.2950268 163.838275 30.79 163.73M27.42 152.37C28.1763313 152.191668 28.8685496 151.807487 29.42 151.26M30.79 150.86C30.2950268 150.751725 29.7789525 150.902404 29.42 151.26"/>
    <path stroke="#231F20" stroke-width=".33" d="M31.69 162.94C33.8551513 161.908189 35.2341497 159.72344 35.2341497 157.325 35.2341497 154.92656 33.8551513 152.741811 31.69 151.71M31.91 161C32.7568399 159.971441 33.2230498 158.6823 33.23 157.35M33.23 157.33C33.2230498 155.9977 32.7568399 154.708559 31.91 153.68M26.4 161.5L12.59 161.5M26.4 153.16L12.59 153.16M22.69 161.49C24.9930274 161.49 26.86 159.623027 26.86 157.32 26.86 155.016973 24.9930274 153.15 22.69 153.15M11.13 160.25C11.2475941 160.970531 11.8699362 161.499733 12.6 161.5M12.6 153.15C11.8699362 153.150267 11.2475941 153.679469 11.13 154.4M12.74 159.94L12.74 154.46M12.75 157.79C13.0095738 157.79 13.22 157.579574 13.22 157.32 13.22 157.060426 13.0095738 156.85 12.75 156.85 12.4904262 156.85 12.28 157.060426 12.28 157.32 12.28 157.579574 12.4904262 157.79 12.75 157.79"/>
    <path stroke="#231F20" stroke-width=".33" d="M12.75 158.15C13.2083963 158.15 13.58 157.778396 13.58 157.32 13.58 156.861604 13.2083963 156.49 12.75 156.49 12.2916037 156.49 11.92 156.861604 11.92 157.32 11.92 157.54013 12.0074462 157.751243 12.1631014 157.906899 12.3187566 158.062554 12.5298703 158.15 12.75 158.15M15.47 157.33L10.09 157.33M12.74 154.88L12.74 159.47M8.7 164.28L36.16 164.28"/>
    <path stroke="#231F20" stroke-width=".28" d="M55.54,115.32 L42.72,107.91"/>
    <path stroke="#000000" stroke-width=".46" d="M121.13 154.08L117.42 154.08M121.13 137.2L117.42 137.2"/>
    <path stroke="#231F20" stroke-width=".28" d="M77.24,133.68 L90.07,126.28"/>
    <path stroke="#000000" stroke-width=".46" d="M124.33,164.28 L124.33,171.71"/>
    <polygon fill="#004017" stroke="#000000" stroke-width=".46" points="55.82 32.01 55.82 134.61 77.15 134.61 77.15 132.85 57.68 132.75 57.68 32.01 77.73 32.01 77.73 24.59 53.61 24.6 53.68 32.01"/>
    <path stroke="#EF4423" stroke-width=".17" d="M10.21,28.3 L11.32,28.3"/>
    <polyline stroke="#231F20" stroke-width=".17" points="35.41 124.04 37.08 124.04 35.41 124.04"/>
    <path stroke="#231F20" stroke-width=".17" d="M28.55,124.97 L34.49,124.97"/>
    <polyline stroke="#231F20" stroke-width=".17" points="37.08 124.04 25.96 124.04 25.96 116.61 37.08 116.61"/>
    <path stroke="#231F20" stroke-width=".17" d="M37.08,120.33 L25.96,120.33"/>
    <polyline stroke="#231F20" stroke-width=".17" points="37.08 124.04 37.08 116.61 37.08 124.04 37.08 116.61 37.08 124.04"/>
    <path stroke="#231F20" stroke-width=".17" d="M31.52 116.61L31.52 124.04M34.49 125C35.0036248 125 35.42 124.583625 35.42 124.07M27.63 124C27.63 124.513625 28.0463752 124.93 28.56 124.93M34.85 120.32C34.85 118.480892 33.3591082 116.99 31.52 116.99 29.6808918 116.99 28.19 118.480892 28.19 120.32 28.19 122.159108 29.6808918 123.65 31.52 123.65 33.3591082 123.65 34.85 122.159108 34.85 120.32"/>
    <path stroke="#231F20" stroke-width=".17" d="M34.12,120.32 C34.12,118.889582 32.9604175,117.73 31.53,117.73 C30.0995825,117.73 28.94,118.889582 28.94,120.32 C28.94,121.750418 30.0995825,122.91 31.53,122.91 C32.9604175,122.91 34.12,121.750418 34.12,120.32"/>
    <path stroke="#313092" stroke-width=".25" d="M8.7 41.32L8.7 46.1M7.78 46.1L9.64 44.25M8.7 41.32L8.7 46.1"/>
    <path stroke="#004017" stroke-width=".25" d="M7.78 45.18L56.75 45.18M9.64 44.25L7.78 46.1"/>
    <path stroke="#313092" stroke-width=".25" d="M54.9,46.1 L56.75,44.25"/>
    <polygon fill="#004017" points="28.95 44.62 26.96 44.62 26.9 44.6 26.84 44.56 26.81 44.51 26.8 44.44 26.8 44.44 26.81 44.38 26.82 44.37 28.64 41.61 28.71 41.49 28.76 41.37 28.78 41.3 28.79 41.23 28.8 41.17 28.8 41.12 28.8 41.05 28.79 40.99 28.78 40.93 28.76 40.87 28.73 40.81 28.7 40.75 28.66 40.7 28.62 40.65 28.57 40.59 28.52 40.55 28.48 40.51 28.43 40.47 28.37 40.44 28.31 40.41 28.25 40.39 28.18 40.36 28.11 40.35 28.05 40.33 27.98 40.33 27.91 40.32 27.85 40.33 27.79 40.33 27.72 40.35 27.66 40.37 27.59 40.39 27.53 40.41 27.49 40.44 27.44 40.48 27.4 40.52 27.36 40.56 27.32 40.61 27.28 40.67 27.25 40.73 27.21 40.8 27.18 40.87 27.18 40.88 27.14 40.94 27.12 40.95 27.06 40.98 27.02 40.98 26.96 40.98 26.9 40.95 26.86 40.9 26.85 40.83 26.85 40.83 26.86 40.77 26.88 40.7 26.91 40.63 26.94 40.57 26.98 40.5 27.01 40.45 27.05 40.4 27.09 40.35 27.14 40.3 27.18 40.26 27.23 40.22 27.28 40.18 27.3 40.16 27.36 40.13 27.4 40.1 27.46 40.07 27.53 40.04 27.59 40.02 27.65 40.01 27.72 39.99 27.79 39.98 27.86 39.98 27.91 39.98 27.97 39.98 28.03 39.99 28.1 39.99 28.16 40.01 28.23 40.02 28.29 40.04 28.35 40.06 28.42 40.09 28.48 40.12 28.52 40.15 28.58 40.18 28.64 40.22 28.7 40.26 28.75 40.31 28.8 40.36 28.85 40.41 28.9 40.45 28.94 40.51 28.98 40.56 29.02 40.62 29.05 40.67 29.07 40.73 29.08 40.79 29.1 40.86 29.12 40.92 29.13 40.98 29.14 41.04 29.14 41.11 29.14 41.12 29.14 41.19 29.13 41.26 29.12 41.32 29.1 41.39 29.09 41.45 29.07 41.5 29.05 41.55 29.02 41.61 28.99 41.67 28.96 41.74 28.92 41.8 27.28 44.29 28.95 44.29 29.01 44.3 29.05 44.34 29.09 44.4 29.1 44.45 29.09 44.51 29.07 44.56 29.02 44.6 28.95 44.62 28.95 44.62"/>
    <polygon fill="#004017" points="31.77 43.63 31.77 43.7 31.76 43.76 31.75 43.83 31.73 43.89 31.71 43.95 31.69 44.01 31.66 44.07 31.63 44.13 31.59 44.18 31.55 44.24 31.51 44.29 31.47 44.33 31.42 44.38 31.37 44.41 31.32 44.45 31.27 44.49 31.21 44.52 31.15 44.55 31.09 44.57 31.02 44.59 30.96 44.6 30.89 44.61 30.83 44.62 30.77 44.62 29.94 44.62 29.87 44.61 29.82 44.57 29.82 44.57 29.79 44.51 29.78 44.45 29.79 44.4 29.82 44.36 29.86 44.31 29.92 44.29 29.94 44.29 30.77 44.29 30.84 44.29 30.91 44.28 30.97 44.26 31.03 44.24 31.09 44.21 31.15 44.18 31.2 44.14 31.25 44.1 31.29 44.04 31.32 43.99 31.36 43.93 31.38 43.88 31.4 43.81 31.42 43.76 31.43 43.69 31.43 43.63 31.43 42.96 31.43 42.89 31.42 42.83 31.4 42.76 31.38 42.7 31.36 42.65 31.32 42.59 31.29 42.54 31.25 42.5 31.19 42.45 31.14 42.41 31.08 42.38 31.02 42.35 30.96 42.33 30.9 42.31 30.83 42.3 30.77 42.3 29.94 42.3 29.88 42.29 29.83 42.27 29.79 42.22 29.78 42.16 29.78 42.13 29.78 40.15 29.78 40.08 29.81 40.03 29.85 40 29.91 39.98 29.94 39.98 31.6 39.98 31.66 39.99 31.72 40.03 31.76 40.09 31.77 40.15 31.75 40.21 31.72 40.26 31.67 40.3 31.61 40.32 31.6 40.32 30.11 40.32 30.11 41.97 30.77 41.97 30.84 41.98 30.91 41.98 30.97 41.99 31.04 42.01 31.1 42.03 31.16 42.05 31.22 42.08 31.28 42.1 31.32 42.14 31.38 42.18 31.43 42.22 31.47 42.26 31.52 42.31 31.56 42.37 31.6 42.42 31.64 42.48 31.67 42.53 31.7 42.59 31.72 42.66 31.74 42.72 31.75 42.77 31.76 42.84 31.77 42.91 31.77 42.96"/>
    <polygon fill="#004017" points="34.09 43.29 34.59 43.29 34.65 43.3 34.7 43.34 34.73 43.4 34.76 43.46 34.73 43.52 34.7 43.57 34.66 43.61 34.59 43.63 34.59 43.63 34.09 43.63 34.09 44.45 34.08 44.52 34.04 44.57 34.04 44.58 33.98 44.61 33.92 44.62 33.87 44.61 33.8 44.58 33.76 44.53 33.75 44.46 33.75 44.45 33.75 43.63 32.59 43.63 32.52 43.62 32.48 43.58 32.43 43.52 32.43 43.47 32.43 43.42 33.09 40.11 33.11 40.05 33.15 40.01 33.25 39.98 33.32 39.99 33.37 40.02 33.41 40.08 33.42 40.14 33.42 40.14 33.42 40.18 32.8 43.29 33.75 43.29 33.75 42.46 33.77 42.4 33.8 42.35 33.86 42.31 33.92 42.3 33.98 42.31 34.03 42.34 34.07 42.39 34.09 42.46 34.09 42.46"/>
    <path fill="#004017" d="M37.73,43.63 L37.73,43.83 L37.73,43.9 L37.73,44 L37.73,44.06 L37.73,44.12 L37.73,44.18 L37.73,44.18 L37.73,44.24 L37.73,44.24 L37.73,44.24 L37.73,44.24 L37.73,44.24 L37.73,44.24 L37.67,44.24 L37.61,44.24 L37.55,44.24 L37.49,44.24 L37.43,44.24 L36.64,44.24 L36.58,44.24 L36.52,44.24 L36.45,44.24 L36.39,44.24 L36.39,44.24 L36.33,44.24 L36.27,44.24 L36.27,44.24 L36.27,44.24 L36.27,44.24 L36.27,44.24 L36.27,44.24 L36.27,44.18 L36.27,44.12 L36.27,44.06 L36.27,44 L36.27,43.94 L36.27,43.88 L36.27,40.88 L36.27,40.82 L36.27,40.75 L36.27,40.69 L36.27,40.63 L36.27,40.57 L36.27,40.51 L36.27,40.51 L36.27,40.45 L36.27,40.45 L36.27,40.45 L36.27,40.45 L36.27,40.45 L36.33,40.45 L36.33,40.45 L36.39,40.45 L36.45,40.45 L36.51,40.45 L36.57,40.45 L37,40.45 L37.07,40.45 L37.13,40.45 L37.19,40.45 L37.19,40.45 L37.25,40.45 L37.31,40.45 L37.31,40.45 L37.31,40.45 L37.31,40.45 L37.31,40.51 L37.31,40.51 L37.31,40.57 L37.31,40.57 L37.31,40.63 L37.31,40.69 L37.31,40.76 L37.31,43.67 L37.73,43.63 Z M37.4,43.63 L37.4,40.84 L37.4,40.78 L37.4,40.72 L37.4,40.66 L37.4,40.6 L37.4,40.6 L37.4,40.6 L37.4,40.6 L37.4,40.6 L37.34,40.6 L37.28,40.6 L37.22,40.6 L36.5,40.6 L36.43,40.6 L36.43,40.6 L36.37,40.6 L36.37,40.6 L36.37,40.6 L36.37,40.6 L36.37,40.66 L36.37,40.66 L36.37,40.72 L36.37,40.79 L36.37,40.85 L36.37,43.85 L36.37,43.92 L36.37,43.92 L36.37,43.98 L36.37,43.98 L36.37,43.98 L36.37,43.98 L36.43,43.98 L36.43,43.98 L36.49,43.98 L36.55,43.98 L37.2,43.98 L37.26,43.98 L37.33,43.98 L37.39,43.98 L37.39,43.98 L37.45,43.98 L37.45,43.98 L37.45,43.98 L37.45,43.98 L37.45,43.92 L37.45,43.86 L37.45,43.8 L37.45,43.74 L37.45,43.6 L37.4,43.63 Z"/>
    <path stroke="#004017" stroke-width=".25" d="M54.9 45.18L58.61 45.18M56.75 44.25L54.9 46.1"/>
    <path stroke="#313092" stroke-width=".25" d="M56.75,46.1 L58.61,44.25"/>
    <path stroke="#004017" stroke-width=".25" d="M56.75 45.18L118.34 45.18M58.61 44.25L56.75 46.1M116.5 46.1L118.34 44.25"/>
    <polygon fill="#004017" points="83.54 42.09 83.59 42.12 83.64 42.14 83.69 42.18 83.75 42.23 83.79 42.27 83.84 42.33 83.88 42.38 83.92 42.44 83.95 42.5 83.98 42.56 84.01 42.62 84.03 42.69 84.05 42.74 84.06 42.81 84.07 42.88 84.07 42.94 84.07 42.96 84.07 43.63 84.07 43.7 84.06 43.77 84.05 43.83 84.04 43.89 84.02 43.95 84 44.01 83.97 44.07 83.94 44.13 83.9 44.19 83.86 44.24 83.82 44.29 83.78 44.33 83.73 44.38 83.68 44.41 83.63 44.45 83.58 44.49 83.52 44.52 83.46 44.55 83.4 44.57 83.33 44.59 83.27 44.6 83.2 44.61 83.13 44.62 83.07 44.62 82.25 44.62 82.18 44.61 82.13 44.57 82.12 44.57 82.09 44.51 82.08 44.45 82.09 44.4 82.12 44.36 82.17 44.31 82.23 44.29 82.25 44.29 83.07 44.29 83.14 44.29 83.21 44.28 83.27 44.26 83.34 44.24 83.4 44.21 83.45 44.18 83.5 44.14 83.55 44.1 83.59 44.04 83.64 43.99 83.66 43.93 83.69 43.88 83.71 43.81 83.72 43.76 83.73 43.69 83.74 43.63 83.74 42.96 83.73 42.89 83.72 42.83 83.71 42.76 83.69 42.7 83.66 42.65 83.63 42.59 83.59 42.54 83.55 42.49 83.5 42.45 83.45 42.41 83.39 42.37 83.33 42.35 83.27 42.33 83.21 42.31 83.14 42.3 83.07 42.3 82.91 42.3 82.84 42.29 82.79 42.25 82.79 42.25 82.75 42.19 82.74 42.13 82.76 42.08 82.78 42.04 82.83 41.99 82.89 41.97 82.91 41.97 82.98 41.97 83.05 41.96 83.11 41.94 83.17 41.92 83.23 41.89 83.28 41.86 83.34 41.82 83.38 41.78 83.43 41.73 83.47 41.67 83.5 41.61 83.53 41.56 83.55 41.5 83.57 41.44 83.57 41.37 83.58 41.31 83.58 40.98 83.57 40.91 83.56 40.84 83.55 40.78 83.53 40.72 83.5 40.66 83.47 40.6 83.42 40.55 83.39 40.5 83.33 40.46 83.28 40.42 83.22 40.39 83.17 40.36 83.1 40.34 83.05 40.33 82.98 40.32 82.91 40.32 82.25 40.32 82.18 40.3 82.13 40.27 82.12 40.27 82.09 40.21 82.08 40.15 82.09 40.09 82.12 40.04 82.17 40 82.23 39.98 82.25 39.98 82.91 39.98 82.98 39.98 83.05 39.99 83.11 40 83.17 40.01 83.24 40.03 83.3 40.05 83.36 40.08 83.42 40.11 83.47 40.15 83.53 40.19 83.58 40.23 83.61 40.27 83.66 40.32 83.7 40.37 83.74 40.42 83.78 40.48 83.81 40.53 83.83 40.59 83.86 40.65 83.87 40.72 83.89 40.78 83.9 40.85 83.9 40.92 83.9 40.98 83.9 41.31 83.9 41.42 83.9 41.49 83.9 41.49 83.88 41.55 83.88 41.55 83.87 41.61 83.84 41.67 83.81 41.74 83.78 41.79 83.75 41.85 83.71 41.9 83.66 41.95 83.63 42.01 83.57 42.06 83.54 42.09"/>
    <polygon fill="#004017" points="86.88 44.62 84.9 44.62 84.84 44.6 84.78 44.56 84.75 44.51 84.74 44.44 84.74 44.44 84.75 44.38 84.75 44.37 86.57 41.61 86.65 41.49 86.7 41.37 86.72 41.3 86.73 41.23 86.74 41.17 86.74 41.12 86.73 41.05 86.73 40.99 86.71 40.93 86.69 40.87 86.67 40.81 86.63 40.75 86.6 40.7 86.56 40.65 86.51 40.59 86.47 40.55 86.42 40.51 86.36 40.47 86.31 40.44 86.24 40.41 86.18 40.39 86.12 40.36 86.05 40.35 85.98 40.33 85.92 40.33 85.86 40.32 85.79 40.33 85.72 40.33 85.66 40.35 85.59 40.37 85.53 40.39 85.47 40.41 85.43 40.44 85.38 40.48 85.33 40.52 85.3 40.56 85.26 40.61 85.22 40.67 85.18 40.73 85.15 40.8 85.12 40.87 85.11 40.88 85.08 40.94 85.05 40.95 84.99 40.98 84.96 40.98 84.89 40.98 84.84 40.95 84.8 40.9 84.78 40.83 84.78 40.83 84.8 40.77 84.82 40.7 84.85 40.63 84.88 40.57 84.91 40.5 84.95 40.45 84.99 40.4 85.03 40.35 85.07 40.3 85.12 40.26 85.17 40.22 85.22 40.18 85.24 40.16 85.29 40.13 85.34 40.1 85.4 40.07 85.46 40.04 85.53 40.02 85.59 40.01 85.66 39.99 85.73 39.98 85.8 39.98 85.84 39.98 85.91 39.98 85.97 39.99 86.04 39.99 86.1 40.01 86.17 40.02 86.23 40.04 86.29 40.06 86.35 40.09 86.41 40.12 86.47 40.15 86.52 40.18 86.58 40.22 86.63 40.26 86.69 40.31 86.74 40.36 86.79 40.41 86.84 40.45 86.88 40.51 86.92 40.56 86.95 40.62 86.98 40.67 87.01 40.73 87.03 40.79 87.05 40.86 87.05 40.92 87.06 40.98 87.07 41.04 87.07 41.11 87.07 41.12 87.07 41.19 87.07 41.26 87.05 41.32 87.05 41.39 87.03 41.45 87.01 41.5 86.99 41.55 86.96 41.61 86.93 41.67 86.89 41.74 86.86 41.8 85.21 44.29 86.88 44.29 86.94 44.3 87 44.34 87.03 44.4 87.05 44.45 87.03 44.51 87.01 44.56 86.96 44.6 86.89 44.62 86.88 44.62"/>
    <polygon fill="#004017" points="89.86 44.62 87.88 44.62 87.82 44.6 87.76 44.56 87.73 44.51 87.71 44.44 87.71 44.44 87.73 44.38 87.74 44.37 89.56 41.61 89.63 41.49 89.68 41.37 89.7 41.3 89.71 41.23 89.72 41.17 89.72 41.12 89.72 41.05 89.71 40.99 89.7 40.93 89.68 40.87 89.65 40.81 89.62 40.75 89.58 40.7 89.54 40.65 89.49 40.59 89.44 40.55 89.39 40.51 89.34 40.47 89.28 40.44 89.23 40.41 89.17 40.39 89.1 40.36 89.03 40.35 88.97 40.33 88.9 40.33 88.83 40.32 88.77 40.33 88.71 40.33 88.64 40.35 88.58 40.37 88.51 40.39 88.45 40.41 88.41 40.44 88.36 40.48 88.32 40.52 88.27 40.56 88.23 40.61 88.19 40.67 88.17 40.73 88.13 40.8 88.1 40.87 88.1 40.88 88.06 40.94 88.04 40.95 87.98 40.98 87.94 40.98 87.88 40.98 87.82 40.95 87.78 40.9 87.77 40.83 87.77 40.83 87.78 40.77 87.8 40.7 87.83 40.63 87.86 40.57 87.9 40.5 87.93 40.45 87.97 40.4 88.01 40.35 88.06 40.3 88.1 40.26 88.15 40.22 88.19 40.18 88.21 40.16 88.27 40.13 88.32 40.1 88.38 40.07 88.45 40.04 88.51 40.02 88.58 40.01 88.64 39.99 88.71 39.98 88.78 39.98 88.82 39.98 88.89 39.98 88.95 39.99 89.02 39.99 89.08 40.01 89.15 40.02 89.21 40.04 89.27 40.06 89.33 40.09 89.39 40.12 89.45 40.15 89.5 40.18 89.56 40.22 89.62 40.26 89.67 40.31 89.72 40.36 89.77 40.41 89.82 40.45 89.86 40.51 89.89 40.56 89.93 40.62 89.96 40.67 89.98 40.73 90 40.79 90.02 40.86 90.04 40.92 90.05 40.98 90.06 41.04 90.06 41.11 90.06 41.12 90.06 41.19 90.05 41.26 90.04 41.32 90.02 41.39 90.01 41.45 89.99 41.5 89.96 41.55 89.94 41.61 89.91 41.67 89.88 41.74 89.84 41.8 88.19 44.29 89.86 44.29 89.92 44.3 89.97 44.34 90.01 44.4 90.02 44.45 90.01 44.51 89.98 44.56 89.93 44.6 89.86 44.62 89.86 44.62"/>
    <path fill="#004017" d="M93,43.63 L93,43.83 L93,43.9 L93,44 L93,44.06 L93,44.12 L93,44.18 L93,44.18 L93,44.24 L93,44.24 L93,44.24 L93,44.24 L93,44.24 L92.94,44.24 L92.94,44.24 L92.88,44.24 L92.82,44.24 L92.76,44.24 L92.7,44.24 L91.5,44.24 L91.44,44.24 L91.37,44.24 L91.31,44.24 L91.25,44.24 L91.25,44.24 L91.19,44.24 L91.13,44.24 L91.13,44.24 L91.13,44.24 L91.13,44.24 L91.13,44.24 L91.13,44.24 L91.13,44.18 L91.13,44.12 L91.13,44.06 L91.13,44 L91.13,43.94 L91.13,43.88 L91.13,40.88 L91.13,40.81 L91.13,40.75 L91.13,40.69 L91.13,40.63 L91.13,40.57 L91.13,40.57 L91.13,40.51 L91.13,40.51 L91.13,40.51 L91.13,40.51 L91.13,40.51 L91.13,40.51 L91.19,40.51 L91.25,40.51 L91.31,40.51 L91.37,40.51 L91.43,40.51 L92.28,40.51 L92.35,40.51 L92.41,40.51 L92.47,40.51 L92.47,40.51 L92.53,40.51 L92.59,40.51 L92.59,40.51 L92.59,40.51 L92.59,40.51 L92.59,40.57 L92.59,40.57 L92.59,40.63 L92.59,40.63 L92.59,40.69 L92.59,40.75 L92.59,40.82 L92.59,43.73 L93,43.63 Z M92.67,43.63 L92.67,40.84 L92.67,40.78 L92.67,40.72 L92.67,40.66 L92.67,40.6 L92.67,40.6 L92.67,40.6 L92.67,40.6 L92.67,40.6 L92.61,40.6 L92.55,40.6 L92.49,40.6 L91.5,40.6 L91.43,40.6 L91.37,40.6 L91.37,40.6 L91.31,40.6 L91.31,40.6 L91.31,40.6 L91.31,40.66 L91.31,40.66 L91.31,40.72 L91.31,40.79 L91.31,40.85 L91.31,43.85 L91.31,43.92 L91.31,43.92 L91.31,43.98 L91.31,43.98 L91.31,43.98 L91.31,43.98 L91.37,43.98 L91.37,43.98 L91.43,43.98 L91.49,43.98 L92.14,43.98 L92.2,43.98 L92.27,43.98 L92.27,43.98 L92.33,43.98 L92.39,43.98 L92.39,43.98 L92.39,43.98 L92.39,43.98 L92.39,43.92 L92.39,43.86 L92.39,43.8 L92.39,43.74 L92.39,43.6 L92.67,43.63 Z"/>
    <path stroke="#313092" stroke-width=".25" d="M120.2,46.31 L122.06,44.45"/>
    <path stroke="#004017" stroke-width=".25" d="M122.06,44.45 L120.2,46.31"/>
    <path stroke="#313092" stroke-width=".25" d="M126.2,130.89 L128.18,130.89"/>
    <path stroke="#004017" stroke-width=".25" d="M128.18,32.94 L126.32,31.09"/>
    <path stroke="#003B11" stroke-width=".25" d="M126.32,129.96 L128.18,131.82"/>
    <path stroke="#004017" stroke-width=".25" d="M63.63 133.67L63.63 31.09M62.7 131.83L64.56 133.67M64.56 32.94L62.7 31.09"/>
    <polygon fill="#004017" points="68.21 77.34 68.28 77.34 68.34 77.35 68.41 77.36 68.47 77.37 68.53 77.39 68.59 77.41 68.65 77.44 68.71 77.47 68.76 77.51 68.82 77.55 68.87 77.6 68.91 77.63 68.96 77.68 69 77.73 69.03 77.78 69.07 77.84 69.1 77.9 69.13 77.96 69.15 78.02 69.17 78.08 69.18 78.15 69.19 78.2 69.2 78.27 69.2 78.33 69.2 79.16 69.19 79.23 69.15 79.28 69.15 79.29 69.09 79.32 69.03 79.33 68.98 79.32 68.94 79.29 68.89 79.25 68.87 79.18 68.87 79.16 68.87 78.33 68.87 78.26 68.86 78.2 68.84 78.13 68.82 78.07 68.79 78.01 68.76 77.96 68.72 77.9 68.68 77.86 68.62 77.81 68.57 77.77 68.52 77.74 68.45 77.71 68.4 77.69 68.34 77.68 68.27 77.67 68.21 77.67 67.54 77.67 67.47 77.67 67.41 77.68 67.34 77.69 67.29 77.72 67.23 77.74 67.17 77.78 67.12 77.82 67.08 77.86 67.03 77.91 66.99 77.97 66.96 78.02 66.93 78.08 66.91 78.14 66.89 78.2 66.88 78.27 66.88 78.33 66.88 79.16 66.87 79.23 66.85 79.28 66.8 79.31 66.75 79.33 66.72 79.33 64.73 79.33 64.66 79.32 64.61 79.3 64.58 79.25 64.56 79.19 64.56 79.16 64.56 77.51 64.57 77.44 64.61 77.39 64.67 77.35 64.73 77.34 64.79 77.35 64.84 77.38 64.88 77.43 64.9 77.5 64.9 77.51 64.9 78.99 66.55 78.99 66.55 78.33 66.56 78.26 66.56 78.2 66.57 78.13 66.59 78.07 66.61 78 66.63 77.94 66.66 77.88 66.69 77.83 66.73 77.77 66.77 77.72 66.8 77.67 66.84 77.63 66.89 77.59 66.95 77.54 67 77.5 67.06 77.47 67.11 77.44 67.17 77.41 67.24 77.39 67.3 77.37 67.36 77.35 67.42 77.34 67.49 77.34 67.54 77.34"/>
    <polygon fill="#004017" points="67.88 75.02 67.88 74.52 67.89 74.46 67.92 74.4 67.98 74.36 68.04 74.35 68.1 74.36 68.15 74.39 68.19 74.44 68.21 74.51 68.21 74.52 68.21 75.02 69.03 75.02 69.1 75.03 69.15 75.06 69.16 75.07 69.19 75.12 69.2 75.19 69.19 75.24 69.16 75.3 69.11 75.34 69.05 75.34 69.03 75.36 68.21 75.36 68.21 76.5 68.19 76.57 68.16 76.63 68.1 76.66 68.04 76.67 68 76.67 64.69 76.01 64.63 75.98 64.59 75.95 64.56 75.85 64.57 75.79 64.6 75.73 64.66 75.7 64.72 75.68 64.72 75.68 64.76 75.69 67.88 76.31 67.88 75.36 67.04 75.36 66.98 75.34 66.93 75.3 66.89 75.25 66.87 75.19 66.89 75.12 66.92 75.07 66.97 75.03 67.04 75.02 67.04 75.02"/>
    <polygon fill="#004017" points="66.67 72.24 66.7 72.18 66.73 72.13 66.77 72.07 66.8 72.02 66.85 71.98 66.91 71.94 66.96 71.9 67.02 71.86 67.08 71.83 67.14 71.8 67.2 71.77 67.27 71.75 67.33 71.73 67.39 71.72 67.46 71.71 67.52 71.71 67.54 71.71 68.21 71.71 68.28 71.71 68.35 71.72 68.41 71.73 68.47 71.74 68.53 71.76 68.59 71.78 68.65 71.81 68.71 71.84 68.77 71.88 68.82 71.92 68.87 71.95 68.91 72 68.96 72.04 69 72.09 69.03 72.15 69.07 72.2 69.1 72.26 69.13 72.32 69.15 72.38 69.17 72.45 69.18 72.51 69.19 72.57 69.2 72.64 69.2 72.7 69.2 73.53 69.19 73.6 69.15 73.65 69.15 73.66 69.09 73.69 69.03 73.69 68.98 73.67 68.94 73.66 68.89 73.61 68.87 73.55 68.87 73.53 68.87 72.7 68.87 72.63 68.86 72.56 68.84 72.51 68.82 72.44 68.79 72.38 68.76 72.33 68.72 72.27 68.68 72.23 68.62 72.18 68.57 72.14 68.52 72.11 68.45 72.08 68.4 72.06 68.34 72.05 68.27 72.04 68.21 72.03 67.54 72.03 67.47 72.04 67.41 72.05 67.34 72.06 67.29 72.08 67.23 72.11 67.17 72.15 67.12 72.19 67.07 72.23 67.03 72.28 66.99 72.33 66.95 72.39 66.93 72.45 66.91 72.51 66.89 72.56 66.88 72.63 66.88 72.7 66.88 72.87 66.87 72.94 66.83 72.99 66.83 72.99 66.78 73.02 66.72 73.04 66.66 73.02 66.62 72.99 66.57 72.95 66.55 72.89 66.55 72.87 66.55 72.8 66.54 72.73 66.52 72.66 66.5 72.6 66.47 72.55 66.44 72.5 66.4 72.44 66.36 72.4 66.3 72.35 66.25 72.31 66.2 72.28 66.15 72.25 66.08 72.23 66.02 72.21 65.95 72.2 65.89 72.2 65.56 72.2 65.49 72.21 65.42 72.21 65.36 72.23 65.3 72.25 65.24 72.28 65.18 72.31 65.13 72.35 65.08 72.39 65.04 72.45 65.01 72.5 64.97 72.55 64.94 72.6 64.92 72.67 64.91 72.73 64.9 72.8 64.9 72.87 64.9 73.53 64.88 73.6 64.85 73.65 64.85 73.66 64.79 73.69 64.73 73.69 64.67 73.67 64.62 73.66 64.58 73.61 64.56 73.55 64.56 73.53 64.56 72.87 64.56 72.8 64.57 72.73 64.58 72.66 64.59 72.59 64.61 72.53 64.63 72.48 64.66 72.42 64.69 72.36 64.73 72.31 64.77 72.25 64.81 72.2 64.85 72.16 64.9 72.11 64.95 72.07 65.01 72.03 65.06 72 65.11 71.97 65.17 71.95 65.23 71.92 65.3 71.91 65.36 71.89 65.43 71.88 65.5 71.88 65.56 71.88 65.89 71.88 66 71.88 66.07 71.88 66.07 71.88 66.13 71.9 66.13 71.9 66.19 71.91 66.25 71.94 66.32 71.97 66.37 72 66.43 72.02 66.48 72.06 66.53 72.11 66.59 72.15 66.64 72.21 66.67 72.24"/>
    <path fill="#004017" d="M68.21,68.72 L68.47,68.72 L68.54,68.72 L68.6,68.72 L68.66,68.72 L68.72,68.72 L68.72,68.72 L68.78,68.72 L68.78,68.72 L68.78,68.72 L68.78,68.72 L68.78,68.72 L68.78,68.72 L68.78,68.78 L68.78,68.84 L68.78,68.9 L68.78,68.96 L68.78,69.02 L68.78,69.81 L68.78,69.87 L68.78,69.93 L68.78,69.99 L68.78,70.05 L68.78,70.11 L68.78,70.17 L68.78,70.23 L68.78,70.23 L68.78,70.23 L68.78,70.23 L68.78,70.23 L68.78,70.23 L68.72,70.23 L68.66,70.23 L68.6,70.23 L68.54,70.23 L68.48,70.23 L65.29,70.23 L65.23,70.23 L65.17,70.23 L65.11,70.23 L65.05,70.23 L65.05,70.23 L64.99,70.23 L64.99,70.23 L64.99,70.23 L64.99,70.23 L64.99,70.23 L64.99,70.17 L64.99,70.17 L64.99,70.11 L64.99,70.05 L64.99,69.99 L64.99,69.93 L64.99,69.08 L64.99,69.01 L64.99,68.95 L64.99,68.89 L64.99,68.83 L64.99,68.83 L64.99,68.77 L64.99,68.77 L64.99,68.77 L64.99,68.77 L65.05,68.77 L65.05,68.77 L65.11,68.77 L65.11,68.77 L65.17,68.77 L65.23,68.77 L65.3,68.77 L68.21,68.77 L68.21,68.72 Z M68.21,69.05 L65.42,69.05 L65.36,69.05 L65.3,69.05 L65.24,69.05 L65.18,69.05 L65.18,69.05 L65.18,69.05 L65.18,69.05 L65.18,69.05 L65.18,69.11 L65.18,69.17 L65.18,69.23 L65.18,69.95 L65.18,70.01 L65.18,70.07 L65.18,70.13 L65.18,70.13 L65.18,70.13 L65.18,70.13 L65.24,70.13 L65.24,70.13 L65.3,70.13 L65.36,70.13 L68.36,70.13 L68.42,70.13 L68.48,70.13 L68.54,70.13 L68.54,70.13 L68.54,70.13 L68.54,70.13 L68.54,70.07 L68.54,70.01 L68.54,70.01 L68.54,69.94 L68.54,69.3 L68.54,69.23 L68.54,69.17 L68.54,69.11 L68.54,69.11 L68.54,69.05 L68.54,69.05 L68.54,69.05 L68.54,69.05 L68.48,69.05 L68.42,69.05 L68.36,69.05 L68.16,69.05 L68.21,69.05 Z"/>
    <path stroke="#004017" stroke-width=".25" d="M26.07 32.94L24.22 31.09M24.26 113.83L26.11 115.69"/>
    <path stroke="#313092" stroke-width=".25" d="M76.99,164.28 L67.53,164.28"/>
    <path stroke="#004017" stroke-width=".25" d="M63.63 133.67L63.63 165.22M64.56 135.53L62.7 133.67M62.7 163.36L64.56 165.22"/>
    <polygon fill="#004017" points="69.03 153.26 69.1 153.27 69.15 153.31 69.16 153.31 69.19 153.36 69.2 153.43 69.19 153.47 69.16 153.54 69.11 153.57 69.05 153.59 69.03 153.59 65.12 153.59 65.84 154.3 65.88 154.36 65.89 154.41 65.87 154.48 65.84 154.54 65.84 154.54 65.78 154.57 65.72 154.59 65.72 154.59 65.67 154.57 65.61 154.54 64.61 153.54 64.57 153.49 64.56 153.43 64.57 153.37 64.6 153.31 64.66 153.27 64.72 153.26 64.72 153.26"/>
    <path fill="#004017" d="M66.88 152.27L68.33 152.27 68.39 152.27 68.45 152.27 68.51 152.27 68.57 152.27 68.57 152.27 68.57 152.27 68.57 152.27 68.57 152.27 68.57 152.21 68.57 152.15 68.57 152.09 68.57 151.44 68.57 151.38 68.57 151.31 68.57 151.31 68.57 151.25 68.57 151.25 68.57 151.25 68.51 151.25 68.51 151.25 68.45 151.25 68.39 151.25 68.33 151.25 67.35 151.25 67.29 151.25 67.23 151.25 67.17 151.25 67.17 151.25 67.17 151.25 67.17 151.25 67.17 151.25 67.17 151.31 67.17 151.37 67.17 151.43 67.17 151.49 67.17 152.62 66.88 152.27zM66.73 152.6L66.2 152.6 66.14 152.6 66.07 152.6 66.01 152.6 65.94 152.6 65.88 152.6 65.82 152.6 65.76 152.6 65.69 152.6 65.63 152.6 65.57 152.6 65.51 152.6 65.51 152.6 65.45 152.6 65.45 152.6 65.39 152.6 65.39 152.6 65.33 152.6 65.33 152.6 65.33 152.6 65.33 152.6 65.33 152.6 65.33 152.6 65.33 152.6 65.33 152.6 65.33 152.54 65.33 152.54 65.33 152.48 65.33 152.42 65.33 152.36 65.33 152.3 65.33 152.24 65.33 152.18 65.33 152.11 65.33 151 65.33 151 65.39 151 65.45 151 65.52 151 65.52 151 65.52 151 65.52 151 65.52 151.06 65.52 151.14 65.59 151.28 65.59 151.34 65.59 151.4 65.59 151.4 65.59 151.46 65.59 151.46 65.59 151.46 65.59 151.46 65.59 151.46 65.59 151.46 65.65 151.46 65.65 151.46 65.71 151.46 65.77 151.46 65.83 151.46 65.83 151.46 65.89 151.46 65.95 151.46 66.01 151.46 66.08 151.46 66.14 151.46 66.21 151.46 66.21 151.46 66.28 151.46 66.35 151.46 66.42 151.46 66.68 151.46 66.68 151 66.68 150.94 66.68 150.88 66.68 150.82 66.68 150.76 66.68 150.7 66.68 150.7 66.68 150.7 66.68 150.7 66.68 150.7 66.74 150.7 66.74 150.7 66.8 150.7 66.86 150.7 66.92 150.7 66.98 150.7 67.04 150.7 67.11 150.7 68.23 150.7 68.29 150.7 68.35 150.7 68.41 150.7 68.47 150.7 68.53 150.7 68.53 150.7 68.53 150.7 68.53 150.7 68.53 150.7 68.53 150.7 68.53 150.76 68.53 150.82 68.53 150.82 68.53 150.88 68.53 150.94 68.53 151.01 68.53 151.79 68.53 151.86 68.53 151.92 68.53 151.98 68.53 152.04 68.53 152.1 68.53 152.16 68.53 152.16 68.53 152.22 68.53 152.22 68.53 152.22 68.53 152.22 68.53 152.22 68.47 152.22 68.47 152.22 68.41 152.22 68.35 152.22 68.28 152.22 68.22 152.22 66.74 152.22 66.73 152.6zM68.21 147.29L68.47 147.29 68.54 147.29 68.6 147.29 68.66 147.29 68.72 147.29 68.72 147.29 68.78 147.29 68.78 147.29 68.78 147.29 68.78 147.29 68.78 147.29 68.78 147.29 68.78 147.35 68.78 147.41 68.78 147.47 68.78 147.53 68.78 147.59 68.78 148.38 68.78 148.44 68.78 148.5 68.78 148.57 68.78 148.57 68.78 148.63 68.78 148.69 68.78 148.75 68.78 148.75 68.78 148.75 68.78 148.75 68.78 148.75 68.78 148.75 68.72 148.75 68.66 148.75 68.6 148.75 68.54 148.75 68.48 148.75 68.42 148.75 68.35 148.75 65.35 148.75 65.29 148.75 65.23 148.75 65.17 148.75 65.11 148.75 65.11 148.75 65.05 148.75 65.05 148.75 65.05 148.75 65.05 148.75 65.05 148.75 65.05 148.69 65.05 148.69 65.05 148.63 65.05 148.57 65.05 148.51 65.05 148.45 65.05 148 65.05 147.93 65.05 147.87 65.05 147.81 65.05 147.75 65.05 147.75 65.05 147.69 65.05 147.69 65.05 147.69 65.05 147.69 65.11 147.69 65.11 147.69 65.17 147.69 65.17 147.69 65.23 147.69 65.29 147.69 65.36 147.69 68.27 147.69 68.21 147.29zM68.21 147.62L65.42 147.62 65.36 147.62 65.3 147.62 65.24 147.62 65.18 147.62 65.18 147.62 65.18 147.62 65.18 147.62 65.18 147.62 65.18 147.68 65.18 147.74 65.18 147.8 65.18 148.52 65.18 148.59 65.18 148.59 65.18 148.65 65.18 148.65 65.18 148.65 65.18 148.65 65.24 148.65 65.24 148.65 65.3 148.65 65.36 148.65 68.36 148.65 68.42 148.65 68.48 148.65 68.54 148.65 68.54 148.65 68.54 148.65 68.54 148.65 68.54 148.59 68.54 148.59 68.54 148.53 68.54 148.46 68.54 147.82 68.54 147.76 68.54 147.69 68.54 147.63 68.54 147.63 68.54 147.57 68.54 147.57 68.54 147.57 68.54 147.57 68.48 147.57 68.42 147.57 68.36 147.57 68.3 147.57 68.16 147.57 68.21 147.62zM68.21 144.32L68.34 144.32 68.41 144.32 68.47 144.32 68.54 144.32 68.6 144.32 68.66 144.32 68.72 144.32 68.72 144.32 68.78 144.32 68.78 144.32 68.78 144.32 68.78 144.32 68.78 144.38 68.78 144.38 68.78 144.44 68.78 144.44 68.78 144.5 68.78 144.57 68.78 144.63 68.78 145.42 68.78 145.48 68.78 145.54 68.78 145.6 68.78 145.66 68.78 145.72 68.78 145.78 68.78 145.78 68.78 145.84 68.78 145.84 68.78 145.84 68.78 145.84 68.78 145.84 68.72 145.84 68.66 145.84 68.6 145.84 68.54 145.84 68.48 145.84 65.36 145.84 65.29 145.84 65.23 145.84 65.17 145.84 65.11 145.84 65.05 145.84 65.05 145.84 64.99 145.84 64.99 145.84 64.99 145.84 64.99 145.84 64.99 145.78 64.99 145.78 64.99 145.72 64.99 145.72 64.99 145.66 64.99 145.6 64.99 145.53 64.99 145 64.99 144.94 64.99 144.88 64.99 144.82 64.99 144.76 64.99 144.7 64.99 144.7 64.99 144.7 64.99 144.7 64.99 144.7 65.05 144.7 65.05 144.7 65.11 144.7 65.11 144.7 65.17 144.7 65.23 144.7 65.3 144.7 65.36 144.7 68.21 144.7 68.21 144.32zM68.21 144.64L65.36 144.64 65.3 144.64 65.24 144.64 65.18 144.64 65.18 144.64 65.18 144.64 65.18 144.64 65.18 144.7 65.18 144.7 65.18 144.76 65.18 144.83 65.18 145.55 65.18 145.61 65.18 145.67 65.18 145.73 65.18 145.73 65.18 145.73 65.18 145.73 65.24 145.73 65.24 145.73 65.3 145.73 65.36 145.73 68.36 145.73 68.42 145.73 68.48 145.73 68.54 145.73 68.6 145.73 68.6 145.73 68.6 145.73 68.6 145.67 68.6 145.67 68.6 145.61 68.6 145.55 68.6 145.49 68.6 144.85 68.6 144.78 68.6 144.72 68.6 144.66 68.6 144.6 68.6 144.6 68.6 144.6 68.6 144.6 68.6 144.6 68.54 144.6 68.48 144.6 68.42 144.6 68.22 144.6 68.21 144.64z"/>
    <path stroke="#313092" stroke-width=".25" d="M136.49,134.6 L126.32,134.6"/>
    <path stroke="#003B11" stroke-width=".25" d="M158.34,135.53 L156.48,133.67"/>
    <path stroke="#313092" stroke-width=".25" d="M72.26,171.71 L67.92,171.71"/>
    <polygon fill="#003B11" stroke="#231F20" stroke-width=".46" points="108.9 32.01 108.9 24.59 137.65 24.59 137.65 32.01 121.14 32.01 121.14 130.89 180.87 130.89 180.96 121.8 182.72 121.8 182.72 130.89 186.53 130.89 186.53 134.51 121.14 134.6 121.14 137.5 117.45 137.48 117.42 134.74 93.94 134.74 93.95 132.66 117.42 132.75 117.42 32.01"/>
    <path fill="#231F20" stroke="#231F20" stroke-width=".22" d="M41.78,21.68 L41.68,21.85 L53.74,28.59 L41.74,21.68 L41.78,21.68 Z M41.68,21.85 L53.74,28.59 L53.65,28.76 L41.68,21.85 Z"/>
    <path stroke="#433092" stroke-width=".46" d="M22.62,24.59 L22.62,32.01"/>
    <path stroke="#231F20" stroke-width=".17" d="M120.73 137.57L121.11 137.2M120.34 137.57L120.71 137.2M119.95 137.57L120.32 137.2M119.55 137.57L119.93 137.2M119.28 137.46L119.53 137.2M119.28 137.21L119.63 137.57M119.66 137.2L120.02 137.57M120.05 137.2L120.42 137.57M120.45 137.2L120.81 137.57M120.84 137.2L121.13 137.5"/>
    <path stroke="#231F20" stroke-width=".28" d="M121.13,154.08 L121.13,153.06"/>
    <polyline stroke="#231F20" stroke-width=".28" points="119.28 154.09 119.28 152.79 120.2 152.79 120.2 153.06 121.14 153.06"/>
    <path stroke="#231F20" stroke-width=".28" d="M120.2 138.22L121.13 138.22M119.28 153.71L121.13 153.71M121.13 137.2L121.13 138.22"/>
    <polyline stroke="#231F20" stroke-width=".28" points="119.28 137.2 119.28 138.5 120.2 138.5 120.2 138.22"/>
    <path stroke="#231F20" stroke-width=".28" d="M119.28 137.57L121.13 137.57M121.13 153.06L128.53 140.24M120.33 152.6L127.73 139.78"/>
    <polyline stroke="#231F20" stroke-width=".28" points="120.33 152.6 121.14 153.06 120.2 153.06"/>
    <path stroke="#231F20" stroke-width=".28" d="M127.68 139.74L128.48 140.2M121.13 137.2L119.28 137.2M121.13 154.08L119.28 154.08M127.66 139.72C125.629996 138.726773 123.399959 138.210307 121.14 138.21"/>
    <path stroke="#231F20" stroke-width=".17" d="M121.04 154.08L121.13 153.99M120.2 154.08L120.57 153.71"/>
    <polyline stroke="#231F20" stroke-width=".17" points="119.74 153.71 119.37 154.09 119.28 153.99"/>
    <path stroke="#231F20" stroke-width=".17" d="M119.83 153.71L120.2 154.08M120.66 153.71L121.04 154.08"/>
    <polygon fill="#231F20" stroke="#231F20" stroke-width=".22" points="82.51 57.62 82.5 57.71 82.46 57.77 82.46 57.78 82.39 57.81 82.31 57.82 82.25 57.81 82.17 57.78 82.13 57.72 82.11 57.64 82.11 57.62 82.11 52.93 81.26 53.79 81.2 53.84 81.13 53.84 81.05 53.83 80.98 53.79 80.98 53.79 80.94 53.72 80.92 53.64 80.92 53.64 80.94 53.58 80.98 53.51 82.17 52.31 82.24 52.26 82.31 52.25 82.39 52.26 82.45 52.3 82.5 52.37 82.51 52.45 82.51 52.45"/>
    <polygon fill="#231F20" stroke="#231F20" stroke-width=".22" points="86.08 52.5 84.9 57.67 84.86 57.73 84.82 57.78 84.7 57.82 84.63 57.81 84.56 57.78 84.51 57.72 84.49 57.64 84.49 57.63 84.5 57.58 85.64 52.66 83.71 52.66 83.71 53.05 83.69 53.13 83.65 53.2 83.65 53.2 83.58 53.24 83.5 53.25 83.44 53.23 83.36 53.2 83.32 53.14 83.3 53.06 83.3 53.05 83.3 52.45 83.31 52.37 83.34 52.31 83.4 52.27 83.47 52.25 83.5 52.25 85.9 52.25 85.98 52.26 86.05 52.3 86.08 52.36 86.09 52.44"/>
    <polygon fill="#231F20" stroke="#231F20" stroke-width=".22" points="87.09 57.42 87.16 57.44 87.22 57.48 87.26 57.55 87.28 57.62 87.26 57.7 87.23 57.76 87.17 57.81 87.1 57.82 87.09 57.82 87 57.81 86.94 57.77 86.94 57.77 86.9 57.7 86.88 57.62 86.9 57.55 86.93 57.5 86.99 57.44 87.06 57.42 87.09 57.42"/>
    <polygon fill="#231F20" stroke="#231F20" stroke-width=".22" points="90.06 56.23 90.66 56.23 90.74 56.24 90.8 56.29 90.85 56.36 90.86 56.43 90.85 56.51 90.81 56.57 90.75 56.61 90.67 56.63 90.66 56.63 90.06 56.63 90.06 57.62 90.06 57.71 90.02 57.77 90.01 57.78 89.95 57.81 89.87 57.82 89.8 57.81 89.73 57.78 89.68 57.72 89.67 57.64 89.66 57.62 89.66 56.63 88.28 56.63 88.2 56.62 88.13 56.57 88.09 56.51 88.08 56.44 88.08 56.39 88.88 52.41 88.91 52.33 88.94 52.29 89.06 52.25 89.14 52.26 89.21 52.3 89.25 52.37 89.27 52.45 89.27 52.45 89.27 52.49 88.52 56.23 89.66 56.23 89.66 55.23 89.68 55.16 89.73 55.09 89.8 55.05 89.87 55.03 89.94 55.05 90 55.08 90.05 55.14 90.06 55.22 90.06 55.23"/>
    <path fill="#231F20" stroke="#231F20" stroke-width=".22" d="M94,55 L94,53.29 L94,53.21 L94,53.14 L94,53.07 L94,53 L94,52.93 L94,52.93 L93.94,52.87 L93.88,52.87 L93.81,52.87 L93.74,52.87 L93.67,52.87 L93.59,52.87 L92.87,52.87 L92.79,52.87 L92.71,52.87 L92.64,52.87 L92.58,52.87 L92.51,52.87 L92.51,52.87 L92.45,52.93 L92.45,53 L92.45,53.06 L92.45,53.13 L92.45,53.21 L92.45,54.4 L92.45,54.48 L92.45,54.55 L92.45,54.62 L92.45,54.69 L92.51,54.76 L92.51,54.76 L92.57,54.82 L92.64,54.82 L92.71,54.82 L92.78,54.82 L92.85,54.82 L92.93,54.82 L94,54.82 L94,55 Z M94.4,55.18 L94.4,55.75 L94.4,55.83 L94.4,55.9 L94.4,55.98 L94.4,56.06 L94.4,56.14 L94.4,56.21 L94.4,56.29 L94.4,56.36 L94.4,56.44 L94.4,56.51 L94.4,56.58 L94.4,56.65 L94.4,56.72 L94.4,56.79 L94.4,56.85 L94.4,56.92 L94.4,56.99 L94.34,57.05 L94.34,57.11 L94.34,57.17 L94.28,57.23 L94.22,57.23 L94.16,57.23 L94.1,57.29 L94.04,57.29 L93.97,57.29 L93.91,57.29 L93.84,57.29 L93.77,57.29 L93.7,57.29 L93.63,57.29 L93.55,57.29 L93.48,57.29 L93.4,57.29 L93.22,57.29 L93.15,57.29 L93.15,57.22 L93.15,57.04 L93.15,56.98 L93.21,56.98 L93.27,56.98 L93.34,56.98 L93.42,56.98 L93.5,56.98 L93.5,56.98 L93.66,56.88 L93.66,56.88 L93.76,56.8 L93.76,56.8 L93.82,56.8 L93.82,56.74 L93.88,56.74 L93.88,56.67 L93.94,56.61 L93.94,56.54 L93.94,56.47 L93.94,56.4 L93.94,56.33 L93.94,56.26 L93.94,56.18 L93.94,56.11 L93.94,56.03 L93.94,55.95 L93.94,55.87 L93.94,55.87 L93.94,55.78 L93.94,55.7 L93.94,55.62 L93.94,55.54 L93.94,55.31 L92.69,55.31 L92.61,55.31 L92.53,55.31 L92.45,55.31 L92.38,55.31 L92.31,55.31 L92.24,55.31 L92.17,55.31 L92.11,55.31 L92.04,55.31 L92.04,55.31 L91.94,55 L91.94,54.94 L91.94,54.88 L91.94,54.81 L91.94,54.74 L91.94,54.67 L91.94,54.59 L91.94,54.52 L91.94,53.21 L91.94,53.14 L91.94,53.06 L91.94,52.99 L91.94,52.92 L91.94,52.85 L91.94,52.78 L91.94,52.71 L91.94,52.65 L91.94,52.65 L92,52.59 L92.06,52.53 L92.13,52.53 L92.19,52.53 L92.26,52.53 L92.33,52.53 L92.41,52.53 L92.48,52.53 L92.56,52.53 L93.43,52.53 L93.51,52.53 L93.59,52.53 L93.66,52.53 L93.73,52.53 L93.8,52.53 L93.87,52.53 L93.93,52.53 L94,52.59 L94,52.59 L94.06,52.65 L94.06,52.71 L94.06,52.78 L94.06,52.85 L94.06,52.92 L94.06,52.98 L94.12,53.19 L94.12,53.32 L94.12,55.21 L94.4,55.18 Z"/>
    <polygon fill="#231F20" stroke="#231F20" stroke-width=".22" points="99.91 145.64 98.71 150.81 98.68 150.87 98.64 150.91 98.52 150.97 98.44 150.94 98.38 150.91 98.34 150.86 98.32 150.78 98.32 150.77 98.33 150.72 99.47 145.8 97.52 145.8 97.52 146.19 97.51 146.27 97.47 146.34 97.47 146.34 97.4 146.38 97.32 146.38 97.27 146.37 97.19 146.34 97.15 146.28 97.13 146.2 97.13 146.19 97.13 145.59 97.14 145.51 97.17 145.45 97.22 145.41 97.29 145.39 97.32 145.39 99.71 145.39 99.8 145.4 99.86 145.44 99.91 145.5 99.92 145.58"/>
    <polygon fill="#231F20" stroke="#231F20" stroke-width=".22" points="100.9 150.56 100.98 150.58 101.04 150.62 101.09 150.69 101.1 150.76 101.09 150.84 101.05 150.9 100.99 150.94 100.91 150.97 100.9 150.97 100.82 150.94 100.75 150.91 100.75 150.91 100.72 150.84 100.7 150.76 100.72 150.69 100.75 150.64 100.8 150.58 100.88 150.56 100.9 150.56"/>
    <path fill="#231F20" stroke="#231F20" stroke-width=".22" d="M102.3,148.17 L102.3,149.92 L102.3,150 L102.3,150.07 L102.3,150.14 L102.3,150.21 L102.3,150.27 L102.3,150.33 L102.37,150.39 L102.43,150.39 L102.5,150.39 L102.57,150.39 L102.65,150.39 L102.72,150.39 L103.43,150.39 L103.5,150.39 L103.58,150.39 L103.65,150.39 L103.72,150.39 L103.78,150.39 L103.84,150.39 L103.84,150.33 L103.84,150.26 L103.84,150.19 L103.84,150.12 L103.84,150.05 L103.84,149.97 L103.84,148.86 L103.84,148.78 L103.84,148.71 L103.84,148.64 L103.84,148.57 L103.84,148.5 L103.84,148.5 L103.78,148.44 L103.71,148.44 L103.65,148.44 L103.58,148.44 L103.5,148.44 L103.42,148.44 L102.3,148.44 L102.3,148.17 Z M101.9,148 L101.9,147.51 L101.9,147.43 L101.9,147.35 L101.9,147.27 L101.9,147.19 L101.9,147.12 L101.9,147.04 L101.9,146.96 L101.9,146.89 L101.9,146.81 L101.9,146.74 L101.9,146.67 L101.9,146.6 L101.9,146.52 L101.9,146.46 L101.9,146.39 L101.9,146.32 L101.9,146.26 L101.9,146.19 L101.9,146.13 L101.9,146.07 L101.96,146.01 L101.96,145.95 L102.02,145.95 L102.08,145.89 L102.14,145.89 L102.2,145.89 L102.27,145.89 L102.33,145.89 L102.4,145.89 L102.47,145.89 L102.54,145.89 L102.61,145.89 L102.69,145.89 L102.76,145.89 L102.84,145.89 L102.84,145.89 L102.93,145.89 L103,145.89 L103.06,145.89 L103.06,145.96 L103.06,146.03 L103.06,146.11 L103.06,146.11 L103.06,146.11 L103.06,146.11 L102.98,146.11 L102.89,146.11 L102.72,146.2 L102.65,146.2 L102.58,146.2 L102.51,146.2 L102.45,146.26 L102.45,146.26 L102.39,146.26 L102.39,146.26 L102.33,146.26 L102.33,146.32 L102.27,146.38 L102.27,146.45 L102.21,146.52 L102.21,146.59 L102.21,146.66 L102.21,146.73 L102.21,146.8 L102.21,146.87 L102.21,146.94 L102.21,147.02 L102.21,147.1 L102.21,147.18 L102.21,147.18 L102.21,147.26 L102.21,147.35 L102.21,147.43 L102.21,147.73 L103.63,147.73 L103.71,147.73 L103.79,147.73 L103.86,147.73 L103.93,147.73 L104,147.73 L104.07,147.73 L104.14,147.73 L104.2,147.73 L104.2,147.73 L104.26,147.79 L104.26,147.85 L104.26,147.92 L104.26,147.99 L104.26,148.06 L104.26,148.13 L104.26,148.2 L104.26,148.28 L104.26,148.36 L104.26,148.44 L104.26,150 L104.26,150.08 L104.26,150.15 L104.26,150.23 L104.26,150.3 L104.26,150.37 L104.26,150.43 L104.26,150.5 L104.26,150.56 L104.26,150.56 L104.2,150.62 L104.14,150.62 L104.07,150.62 L104.01,150.62 L103.94,150.62 L103.87,150.62 L103.79,150.62 L103.72,150.62 L103.64,150.62 L103.56,150.62 L102.77,150.62 L102.69,150.62 L102.62,150.62 L102.55,150.62 L102.47,150.62 L102.4,150.62 L102.34,150.62 L102.27,150.62 L102.2,150.62 L102.2,150.62 L102.14,150.56 L102.08,150.5 L102.08,150.44 L102.08,150.37 L102.08,150.3 L102.08,150.23 L102.08,150.16 L102.08,150.08 L102.08,150 L102.08,149.92 L102.08,148 L101.9,148 Z"/>
    <polygon fill="#231F20" stroke="#231F20" stroke-width=".22" points="107.86 149.76 107.86 149.85 107.85 149.93 107.84 150.01 107.82 150.08 107.8 150.16 107.77 150.23 107.74 150.3 107.7 150.37 107.65 150.43 107.6 150.49 107.55 150.56 107.52 150.61 107.45 150.66 107.39 150.72 107.33 150.76 107.26 150.81 107.19 150.85 107.12 150.88 107.04 150.91 106.97 150.93 106.9 150.94 106.82 150.96 106.74 150.96 106.67 150.97 105.68 150.97 105.59 150.94 105.53 150.91 105.53 150.91 105.49 150.84 105.47 150.76 105.49 150.69 105.52 150.64 105.58 150.58 105.65 150.56 105.68 150.56 106.67 150.56 106.76 150.56 106.84 150.55 106.91 150.53 106.98 150.5 107.05 150.47 107.12 150.42 107.18 150.38 107.23 150.34 107.29 150.28 107.34 150.21 107.38 150.14 107.41 150.07 107.44 150 107.45 149.92 107.46 149.84 107.47 149.76 107.47 148.97 107.46 148.89 107.45 148.81 107.43 148.73 107.41 148.66 107.37 148.6 107.33 148.53 107.28 148.46 107.23 148.41 107.17 148.36 107.11 148.31 107.04 148.27 106.97 148.23 106.9 148.21 106.82 148.19 106.74 148.18 106.67 148.18 105.68 148.18 105.6 148.17 105.53 148.14 105.49 148.09 105.48 148.02 105.47 147.99 105.47 145.59 105.48 145.51 105.52 145.45 105.57 145.41 105.64 145.39 105.68 145.39 107.66 145.39 107.73 145.41 107.8 145.45 107.85 145.52 107.86 145.59 107.85 145.67 107.81 145.73 107.75 145.78 107.67 145.8 107.66 145.8 105.87 145.8 105.87 147.78 106.67 147.78 106.76 147.79 106.84 147.79 106.92 147.81 106.98 147.82 107.06 147.85 107.13 147.88 107.2 147.91 107.27 147.95 107.34 147.99 107.4 148.04 107.47 148.09 107.52 148.13 107.56 148.19 107.62 148.25 107.66 148.32 107.71 148.39 107.74 148.46 107.78 148.53 107.8 148.6 107.82 148.68 107.84 148.75 107.85 148.83 107.86 148.91 107.86 148.97"/>
    <polygon fill="#231F20" stroke="#231F20" stroke-width=".22" points="26.49 144.03 26.56 144.06 26.63 144.11 26.69 144.15 26.75 144.21 26.8 144.26 26.85 144.33 26.91 144.4 26.95 144.45 26.99 144.52 27.03 144.6 27.06 144.67 27.09 144.75 27.11 144.83 27.12 144.91 27.13 144.98 27.13 145.06 27.13 145.08 27.13 145.88 27.13 145.97 27.12 146.05 27.11 146.13 27.09 146.2 27.07 146.27 27.04 146.35 27.01 146.42 26.97 146.49 26.93 146.55 26.88 146.62 26.83 146.68 26.79 146.72 26.73 146.78 26.67 146.83 26.6 146.88 26.54 146.92 26.47 146.96 26.4 146.99 26.32 147.02 26.25 147.04 26.18 147.06 26.1 147.07 26.02 147.07 25.94 147.08 24.95 147.08 24.87 147.06 24.8 147.02 24.8 147.02 24.76 146.95 24.75 146.87 24.77 146.81 24.8 146.75 24.85 146.7 24.93 146.68 24.95 146.68 25.94 146.68 26.03 146.68 26.11 146.66 26.18 146.65 26.25 146.62 26.32 146.59 26.39 146.55 26.45 146.5 26.51 146.45 26.56 146.39 26.61 146.32 26.65 146.25 26.68 146.18 26.71 146.12 26.73 146.04 26.74 145.96 26.74 145.88 26.74 145.08 26.74 145 26.73 144.93 26.71 144.85 26.68 144.78 26.65 144.71 26.61 144.64 26.56 144.57 26.51 144.52 26.45 144.46 26.38 144.43 26.32 144.39 26.25 144.34 26.18 144.33 26.1 144.31 26.02 144.3 25.94 144.29 25.74 144.29 25.66 144.28 25.6 144.24 25.6 144.24 25.56 144.17 25.55 144.09 25.56 144.02 25.6 143.97 25.64 143.91 25.71 143.89 25.74 143.89 25.82 143.89 25.9 143.88 25.98 143.86 26.06 143.84 26.13 143.81 26.18 143.77 26.25 143.72 26.3 143.67 26.36 143.6 26.41 143.54 26.45 143.47 26.48 143.4 26.51 143.33 26.52 143.25 26.54 143.18 26.54 143.1 26.54 142.71 26.53 142.62 26.52 142.54 26.5 142.46 26.48 142.39 26.45 142.32 26.4 142.25 26.36 142.19 26.31 142.13 26.25 142.09 26.18 142.04 26.13 142 26.05 141.97 25.98 141.94 25.9 141.92 25.82 141.91 25.74 141.91 24.95 141.91 24.87 141.89 24.8 141.85 24.8 141.85 24.76 141.78 24.75 141.71 24.77 141.64 24.8 141.59 24.85 141.54 24.93 141.51 24.95 141.51 25.74 141.51 25.82 141.51 25.91 141.51 25.99 141.54 26.06 141.54 26.14 141.57 26.2 141.59 26.28 141.63 26.34 141.66 26.41 141.71 26.48 141.75 26.54 141.81 26.59 141.85 26.65 141.92 26.7 141.98 26.75 142.04 26.79 142.1 26.81 142.17 26.85 142.24 26.87 142.32 26.9 142.39 26.91 142.47 26.92 142.55 26.93 142.63 26.93 142.71 26.93 143.1 26.93 143.22 26.93 143.31 26.93 143.31 26.9 143.39 26.9 143.39 26.89 143.46 26.86 143.54 26.82 143.62 26.82 143.62 26.79 143.68 26.75 143.75 26.71 143.81 26.65 143.87 26.6 143.93 26.53 143.99 26.49 144.03"/>
    <polygon fill="#231F20" stroke="#231F20" stroke-width=".22" points="28.13 146.68 28.2 146.69 28.27 146.73 28.31 146.8 28.33 146.87 28.31 146.95 28.28 147.01 28.22 147.06 28.14 147.08 28.13 147.08 28.04 147.06 27.98 147.02 27.98 147.02 27.95 146.95 27.93 146.87 27.95 146.81 27.97 146.75 28.03 146.7 28.1 146.68 28.13 146.68"/>
    <path fill="#231F20" stroke="#231F20" stroke-width=".22" d="M31.9,145.88 L31.9,146.13 L31.9,146.21 L31.9,146.28 L31.9,146.36 L31.9,146.43 L31.9,146.5 L31.9,146.56 L31.9,146.63 L31.84,146.69 L31.84,146.69 L31.78,146.75 L31.71,146.75 L31.65,146.75 L31.58,146.75 L31.51,146.75 L31.44,146.75 L31.37,146.75 L31,147 L30.92,147 L30.13,147 L30.06,147 L30,147 L29.92,147 L29.85,147 L29.78,147 L29.71,147 L29.64,147 L29.57,147 L29.51,147 L29.51,147 L29.45,146.94 L29.45,146.88 L29.45,146.81 L29.45,146.75 L29.45,146.68 L29.45,146.61 L29.45,146.54 L29.45,146.46 L29.45,146.38 L29.45,145.11 L29.45,145.03 L29.45,144.96 L29.45,144.88 L29.45,144.81 L29.45,144.75 L29.45,144.69 L29.45,144.62 L29.45,144.56 L29.45,144.5 L29.51,144.5 L29.58,144.44 L29.64,144.44 L29.72,144.44 L29.72,144.44 L29.7,144 L29.64,144 L29.64,143.93 L29.64,143.87 L29.64,143.8 L29.64,143.73 L29.64,143.73 L29.64,143.65 L29.64,143.58 L29.64,143.5 L29.64,143.42 L29.64,142.56 L29.64,142.48 L29.64,142.41 L29.64,142.33 L29.64,142.26 L29.64,142.19 L29.64,142.12 L29.64,142.05 L29.64,141.98 L29.64,141.98 L29.7,141.92 L29.77,141.92 L29.84,141.92 L29.9,141.92 L29.98,141.92 L29.98,141.92 L30.2,141.86 L30.61,141.86 L30.69,141.86 L30.76,141.86 L30.84,141.86 L30.91,141.86 L30.99,141.86 L31.06,141.86 L31.12,141.86 L31.19,141.86 L31.25,141.92 L31.31,141.92 L31.37,141.99 L31.37,142.05 L31.37,142.11 L31.37,142.18 L31.37,142.26 L31.37,142.26 L31.43,142.48 L31.43,142.61 L31.43,143.31 L31.43,143.39 L31.43,143.47 L31.43,143.55 L31.43,143.62 L31.43,143.62 L31.43,143.69 L31.43,143.75 L31.43,143.82 L31.43,143.88 L31.37,143.94 L31.31,144 L31.31,144 L31.38,144 L31.44,144 L31.51,144 L31.57,144.06 L31.57,144.06 L31.63,144.13 L31.63,144.2 L31.63,144.26 L31.63,144.33 L31.63,144.41 L31.63,144.48 L31.63,144.56 L31.63,144.64 L31.63,144.72 L31.63,145.72 L31.9,145.88 Z M31.3,143.11 L31.3,142.54 L31.3,142.46 L31.3,142.39 L31.3,142.32 L31.3,142.25 L31.3,142.18 L31.3,142.18 L31.24,142.18 L31,142 L30.93,142 L30.86,142 L30.79,142 L30.71,142 L30.4,142 L30.33,142 L30.25,142 L30.18,142 L30.11,142 L30.05,142 L29.99,142 L29.99,142.06 L29.99,142.12 L29.99,142.19 L29.99,142.26 L29.99,142.34 L29.99,142.41 L29.99,143.14 L29.99,143.22 L29.99,143.29 L29.99,143.36 L29.99,143.43 L29.99,143.49 L29.99,143.55 L30.05,143.55 L30.12,143.55 L30.18,143.55 L30.25,143.55 L30.33,143.55 L30.41,143.55 L30.71,143.55 L30.79,143.55 L30.86,143.55 L30.93,143.55 L31,143.55 L31.07,143.55 L31.07,143.55 L31.13,143.49 L31.13,143.43 L31.13,143.36 L31.13,143.29 L31.13,143.22 L31.13,143.14 L31.13,142.98 L31.3,143.11 Z M31.5,145.88 L31.5,144.88 L31.5,144.8 L31.5,144.73 L31.5,144.66 L31.5,144.59 L31.5,144.52 L31.5,144.52 L31.44,144.46 L31.38,144.46 L31.31,144.46 L31.24,144.46 L31.17,144.46 L31.09,144.46 L30.37,144.46 L30.29,144.46 L30.22,144.46 L30.14,144.46 L30.08,144.46 L30.01,144.46 L30.01,144.46 L29.95,144.52 L29.95,144.59 L29.95,144.65 L29.95,144.73 L29.95,144.8 L29.95,146 L29.95,146.08 L29.95,146.15 L29.95,146.22 L29.95,146.29 L30.01,146.35 L30.01,146.41 L30.07,146.47 L30.14,146.47 L30.21,146.47 L30.28,146.47 L30.35,146.47 L30.43,146.47 L31.13,146.47 L31.21,146.47 L31.28,146.47 L31.35,146.47 L31.42,146.47 L31.49,146.47 L31.49,146.47 L31.55,146.41 L31.55,146.34 L31.55,146.27 L31.55,146.2 L31.55,146.13 L31.55,146.05 L31.55,145.89 L31.5,145.88 Z"/>
    <polygon fill="#231F20" stroke="#231F20" stroke-width=".22" points="27.89 57.71 27.88 57.8 27.84 57.85 27.84 57.86 27.77 57.9 27.69 57.91 27.63 57.89 27.55 57.86 27.51 57.8 27.5 57.73 27.5 57.71 27.5 53.02 26.64 53.87 26.57 53.92 26.5 53.93 26.43 53.92 26.37 53.87 26.37 53.87 26.32 53.8 26.31 53.74 26.31 53.74 26.33 53.67 26.37 53.6 27.55 52.4 27.61 52.36 27.69 52.34 27.76 52.36 27.83 52.4 27.88 52.46 27.89 52.54 27.89 52.54"/>
    <polygon fill="#231F20" stroke="#231F20" stroke-width=".22" points="30.28 57.71 30.27 57.8 30.23 57.85 30.22 57.86 30.16 57.9 30.08 57.91 30.01 57.89 29.94 57.86 29.89 57.8 29.87 57.73 29.87 57.71 29.87 53.02 29.03 53.87 28.96 53.92 28.89 53.93 28.81 53.92 28.75 53.87 28.75 53.87 28.7 53.8 28.7 53.74 28.7 53.74 28.7 53.67 28.75 53.6 29.94 52.4 30 52.36 30.07 52.34 30.15 52.36 30.22 52.4 30.26 52.46 30.28 52.54 30.28 52.54"/>
    <polygon fill="#231F20" stroke="#231F20" stroke-width=".22" points="31.27 57.51 31.35 57.53 31.41 57.57 31.46 57.64 31.47 57.71 31.46 57.78 31.42 57.84 31.36 57.89 31.28 57.91 31.27 57.91 31.19 57.89 31.12 57.85 31.12 57.85 31.08 57.78 31.07 57.71 31.09 57.65 31.12 57.59 31.17 57.54 31.25 57.51 31.27 57.51"/>
    <path fill="#004017" stroke="#231F20" stroke-width=".57" d="M121.13,164.28 L121.13,154.08 L117.42,154.08 L117.42,164.28 L38.94,164.28 L38.94,149.54 L37.08,149.54 L37.08,164.31 L8.7,164.31 L8.7,123.67 L11.48,123.67 L11.48,116.61 L37.08,116.61 L37.08,134.61 L38.92,134.61 L38.92,114.77 L8.7,114.77 L8.7,32 L22.62,32 L22.62,24.59 L1.28,24.59 L1.28,176.71 C3.22817079,175.590229 5.47031933,175.088099 7.71,175.27 C8.04714396,175.29593 8.38159632,175.349443 8.71,175.43 L8.71,171.72 L37.08,171.72 L37.08,172.35 C37.6952442,172.241398 38.3247558,172.241398 38.94,172.35 L38.94,171.73 L124.33,171.73 L124.43,164.3 L121.13,164.28 Z"/>
    <path stroke="#231F20" stroke-width=".17" d="M12.73 127.04L13.81 126.83M12.73 132.99L12.73 126.49M12.74 126.49C12.74 126.180721 12.4892795 125.93 12.18 125.93"/>
    <polyline stroke="#231F20" stroke-width=".17" points="12.18 125.93 9.12 125.93 9.12 133.54 12.18 133.54"/>
    <path stroke="#231F20" stroke-width=".17" d="M10.79 125.93L10.79 125.28M11.53 125.93L11.53 125.28M10.88 125.46C10.88 125.61464 11.0053603 125.74 11.16 125.74 11.3146397 125.74 11.44 125.61464 11.44 125.46M12.73 132.43L13.81 132.63M13.27 130.83L13.75 130.75M13.28 130.82C13.2342355 130.825116 13.199715 130.863951 13.2 130.91M13.2 130.92L13.2 131.24M13.27 131.32L13.75 131.4M13.2 131.23C13.199715 131.276049 13.2342355 131.314884 13.28 131.32M13.28 128.14C13.2342355 128.145116 13.199715 128.183951 13.2 128.23M13.27 128.14L13.75 128.06M13.2 128.54L13.2 128.24M13.2 128.54C13.199715 128.586049 13.2342355 128.624884 13.28 128.63M13.27 128.63L13.75 128.71M15 126.91C14.7260713 126.94953 14.5221047 127.183242 14.52 127.46M14.97 126.91L16.48 126.7M14.97 132.56L16.48 132.78M14.5 132C14.5021047 132.276758 14.7060713 132.51047 14.98 132.55M14.5 132.01L14.5 127.46M13.75 132.44L13.75 131.4M14.13 132.49L14.13 126.98M12.19 133.54C12.4992795 133.54 12.75 133.289279 12.75 132.98M13.76 132.43C13.763263 132.612506 13.8991355 132.765362 14.08 132.79M14.14 132.49C14.138292 132.676312 14.2753882 132.834829 14.46 132.86M14.08 132.81L17.21 133.26M13.75 131.4L13.75 128.06M14.08 126.67L17.21 126.2M14.45 126.61C14.2653882 126.635171 14.128292 126.793688 14.13 126.98M13.75 128.06L13.75 127.03"/>
    <polyline stroke="#231F20" stroke-width=".17" points="13.75 131.4 13.94 131.4 13.94 128.06 13.75 128.06"/>
    <path stroke="#231F20" stroke-width=".17" d="M14.08 126.66C13.8991355 126.684638 13.763263 126.837494 13.76 127.02M12.19 133.54C12.4992795 133.54 12.75 133.289279 12.75 132.98M17.1 133.25C17.6944708 133.24981 18.2851469 133.155301 18.85 132.97M18.85 133C19.3571102 132.834204 19.8310272 132.58032 20.25 132.25M20.25 132.22C20.6638334 131.898615 21.0046872 131.492999 21.25 131.03M21.24 131C21.4510399 130.595638 21.560846 130.14612 21.56 129.69M21.56 129.73C21.5596282 129.277214 21.4498458 128.831223 21.24 128.43M21.23 128.42C20.9844342 127.957172 20.6436219 127.551605 20.23 127.23M20.25 127.23C19.8312579 126.899328 19.3572756 126.645409 18.85 126.48M18.84 126.48C18.3131686 126.307919 17.7640564 126.213593 17.21 126.2M11.53 125.28C11.53 125.075655 11.3643454 124.91 11.16 124.91 10.9556546 124.91 10.79 125.075655 10.79 125.28M11.43 125.47L11.43 125.28M10.88 125.47L10.88 125.28"/>
    <polyline stroke="#231F20" stroke-width=".46" points="8.7 124.04 11.86 124.04 11.86 116.61 8.7 116.61"/>
    <path stroke="#231F20" stroke-width=".46" d="M8.7 123.67L11.86 123.67M10.37 117.46C9.85637518 117.46 9.44 117.876375 9.44 118.39 9.44 118.903625 9.85637518 119.32 10.37 119.32 10.8836248 119.32 11.3 118.903625 11.3 118.39 11.3 117.876375 10.8836248 117.46 10.37 117.46M10.4 120.7C10.250349 120.7 10.1154335 120.790148 10.0581646 120.928407 10.0008956 121.066667 10.0325512 121.22581 10.1383705 121.33163 10.2441897 121.437449 10.4033333 121.469104 10.5415929 121.411835 10.6798524 121.354566 10.77 121.219651 10.77 121.07 10.77 120.865655 10.6043454 120.7 10.4 120.7M10.4 122C10.250349 122 10.1154335 122.090148 10.0581646 122.228407 10.0008956 122.366667 10.0325512 122.52581 10.1383705 122.63163 10.2441897 122.737449 10.4033333 122.769104 10.5415929 122.711835 10.6798524 122.654566 10.77 122.519651 10.77 122.37 10.77 122.165655 10.6043454 122 10.4 122M11.86 124.04L11.86 116.61M11.48 124.04L11.48 116.61M8.7 124.04L8.7 116.61"/>
    <path stroke="#004017" stroke-width=".25" d="M25.15,31.09 L25.15,115.69"/>
    <polygon fill="#004017" points="29.41 77.36 29.41 76.86 29.42 76.8 29.46 76.75 29.52 76.71 29.58 76.7 29.64 76.71 29.69 76.75 29.73 76.79 29.75 76.85 29.75 76.86 29.75 77.36 30.57 77.36 30.64 77.37 30.69 77.4 30.7 77.41 30.73 77.46 30.74 77.53 30.73 77.58 30.7 77.65 30.65 77.68 30.58 77.7 30.57 77.7 29.75 77.7 29.75 78.86 29.73 78.92 29.7 78.98 29.65 79 29.59 79.03 29.55 79.02 26.23 78.36 26.17 78.33 26.13 78.3 26.1 78.2 26.11 78.13 26.14 78.07 26.2 78.04 26.26 78.02 26.26 78.02 26.3 78.03 29.41 78.65 29.41 77.7 28.57 77.7 28.52 77.68 28.47 77.64 28.43 77.59 28.42 77.53 28.43 77.46 28.46 77.41 28.51 77.37 28.57 77.36 28.57 77.36"/>
    <polygon fill="#004017" points="29.41 74.39 29.41 73.89 29.42 73.82 29.46 73.77 29.52 73.73 29.58 73.72 29.64 73.73 29.69 73.76 29.73 73.81 29.75 73.88 29.75 73.89 29.75 74.39 30.57 74.39 30.64 74.4 30.69 74.43 30.7 74.43 30.73 74.48 30.74 74.54 30.73 74.6 30.7 74.66 30.65 74.7 30.58 74.71 30.57 74.71 29.75 74.71 29.75 75.87 29.73 75.94 29.7 75.99 29.65 76.03 29.59 76.04 29.55 76.04 26.23 75.37 26.17 75.35 26.13 75.32 26.1 75.21 26.11 75.15 26.14 75.09 26.2 75.06 26.26 75.05 26.26 75.05 26.3 75.05 29.41 75.67 29.41 74.71 28.57 74.71 28.52 74.7 28.47 74.66 28.43 74.6 28.42 74.54 28.43 74.48 28.46 74.44 28.51 74.4 28.57 74.39 28.57 74.39"/>
    <path fill="#004017" d="M28.42 72.73L29.87 72.73 29.93 72.73 30 72.73 30 72.73 30.06 72.73 30.06 72.73 30.06 72.73 30.06 72.73 30.06 72.73 30.06 72.67 30.06 72.61 30.06 72.55 30.06 71.6 30.06 71.54 30.06 71.47 30.06 71.41 30.06 71.41 30.06 71.41 30.06 71.41 30.06 71.41 30 71.41 30 71.41 29.94 71.41 29.87 71.41 28.88 71.41 28.82 71.41 28.76 71.41 28.7 71.41 28.7 71.41 28.7 71.41 28.7 71.41 28.7 71.41 28.7 71.47 28.7 71.53 28.7 71.59 28.7 71.65 28.7 72.78 28.42 72.73zM28.27 73.06L27.73 73.06 27.67 73.06 27.6 73.06 27.54 73.06 27.48 73.06 27.41 73.06 27.35 73.06 27.29 73.06 27.23 73.06 27.16 73.06 27.1 73.06 27.04 73.06 27.04 73.06 26.98 73.06 26.98 73.06 26.92 73.06 26.92 73.06 26.92 73.06 26.92 73.06 26.92 73.06 26.92 73.06 26.92 73.06 26.92 73.06 26.92 73.06 26.92 73.06 26.92 73 26.92 73 26.92 72.94 26.92 72.88 26.92 72.82 26.92 72.76 26.92 72.7 26.92 72.64 26.92 72.57 26.92 71.5 26.92 71.5 26.98 71.5 27.04 71.5 27.11 71.5 27.11 71.5 27.11 71.5 27.11 71.5 27.11 71.56 27.11 71.64 27.18 71.78 27.18 71.84 27.18 71.9 27.18 71.9 27.18 71.96 27.18 71.96 27.18 71.96 27.18 71.96 27.18 71.96 27.18 71.96 27.18 71.96 27.18 71.96 27.24 71.96 27.3 71.96 27.36 71.96 27.36 71.96 27.42 71.96 27.48 71.96 27.55 71.96 27.61 71.96 27.68 71.96 27.74 71.96 27.74 71.96 27.81 71.96 27.88 71.96 27.95 71.96 28.21 71.96 28.21 71.54 28.21 71.47 28.21 71.41 28.21 71.35 28.21 71.29 28.21 71.23 28.21 71.17 28.21 71.17 28.21 71.17 28.21 71.17 28.21 71.17 28.21 71.17 28.21 71.17 28.27 71.17 28.33 71.17 28.39 71.17 28.45 71.17 28.51 71.17 28.58 71.17 30 71.17 30.06 71.17 30.12 71.17 30.18 71.17 30.24 71.17 30.3 71.17 30.3 71.17 30.3 71.17 30.3 71.17 30.3 71.17 30.3 71.17 30.3 71.23 30.3 71.23 30.3 71.29 30.3 71.35 30.3 71.41 30.3 71.48 30.3 72.26 30.3 72.33 30.3 72.39 30.3 72.45 30.3 72.51 30.3 72.57 30.3 72.63 30.3 72.63 30.3 72.69 30.3 72.69 30.3 72.69 30.24 72.69 30.24 72.69 30.18 72.69 30.18 72.69 30.12 72.69 30.06 72.69 30 73 29.94 73 28.27 73 28.27 73.06zM29.74 67.75L30 67.75 30.06 67.75 30.12 67.75 30.18 67.75 30.24 67.75 30.24 67.75 30.3 67.75 30.3 67.75 30.3 67.75 30.3 67.75 30.3 67.75 30.3 67.75 30.3 67.81 30.3 67.87 30.3 67.93 30.3 67.99 30.3 68.05 30.3 68.84 30.3 68.9 30.3 68.96 30.3 69.02 30.3 69.08 30.3 69.14 30.3 69.2 30.3 69.26 30.3 69.26 30.3 69.26 30.3 69.26 30.3 69.26 30.3 69.26 30.24 69.26 30.18 69.26 30.18 69.26 30.11 69.26 30 70 26.84 70 26.77 70 26.71 70 26.65 70 26.59 70 26.59 70 26.53 70 26.53 70 26.53 70 26.53 70 26.53 70 26.53 69.94 26.53 69.94 26.53 69.88 26.53 69.82 26.53 69.76 26.53 69.7 26.53 68.84 26.53 68.77 26.53 68.71 26.53 68.65 26.53 68.59 26.53 68.59 26.53 68.53 26.53 68.53 26.53 68.53 26.53 68.53 26.59 68.53 26.59 68.53 26.65 68.53 26.65 68.53 26.71 68.53 26.78 68.53 26.84 68.53 29.75 68.53 29.74 67.75zM29.74 68.08L27 68.08 26.93 68.08 26.87 68.08 26.81 68.08 26.75 68.08 26.75 68.08 26.75 68.08 26.75 68.08 26.75 68.08 26.75 68.14 26.75 68.2 26.75 68.26 26.75 68.92 26.75 68.98 26.75 69.04 26.75 69.1 26.75 69.16 26.75 69.16 26.75 69.16 26.75 69.16 26.81 69.16 26.81 69.16 26.87 69.16 26.94 69.16 29.94 69.16 30.01 69.16 30.01 69.16 30.07 69.16 30.07 69.16 30.07 69.16 30.07 69.16 30.07 69.1 30.07 69.04 30.07 69.04 30.07 68.97 30.07 68.33 30.07 68.26 30.07 68.2 30.07 68.14 30.07 68.14 30.07 68.08 30.07 68.08 30.07 68.08 30.07 68.08 30.01 68.08 29.95 68.08 29.89 68.08 29.83 68.08 29.69 68.08 29.74 68.08z"/>
    <polygon fill="#231F20" stroke="#231F20" stroke-width=".22" points="52.82 18.31 52.8 18.39 52.76 18.45 52.76 18.45 52.69 18.49 52.61 18.5 52.55 18.48 52.47 18.45 52.43 18.4 52.41 18.32 52.41 18.31 52.41 13.61 51.56 14.46 51.5 14.51 51.43 14.52 51.35 14.51 51.28 14.46 51.28 14.46 51.24 14.4 51.23 14.33 51.23 14.33 51.24 14.27 51.28 14.19 52.47 12.99 52.54 12.95 52.61 12.93 52.69 12.95 52.75 12.99 52.8 13.05 52.82 13.13 52.82 13.13"/>
    <polygon fill="#231F20" stroke="#231F20" stroke-width=".22" points="54 18.4 54.01 18.34 53.99 18.26 53.94 18.2 53.94 18.2 53.87 18.16 53.8 18.14 53.72 18.16 53.68 18.18 53.63 18.24 53.6 18.3 53.41 19.08 53.4 19.14 53.42 19.22 53.46 19.28 53.52 19.32 53.6 19.34 53.6 19.34 53.68 19.32 53.71 19.3 53.76 19.25 53.8 19.18"/>
    <path fill="#231F20" stroke="#231F20" stroke-width=".22" d="M57.58,17.3 L57.58,17.55 L57.58,17.63 L57.58,17.7 L57.58,17.78 L57.58,17.85 L57.58,17.92 L57.58,17.98 L57.58,18.05 L57.52,18.11 L57.52,18.11 L57.46,18.17 L57.39,18.17 L57.33,18.17 L57.26,18.17 L57.19,18.17 L57.12,18.17 L57.05,18.17 L56.97,18.17 L56.89,18.17 L56.1,18.17 L56.03,18.17 L55.95,18.17 L55.88,18.17 L55.8,18.17 L55.73,18.17 L55.66,18.17 L55.59,18.17 L55.52,18.17 L55.46,18.17 L55.46,18.17 L55.4,18.11 L55.4,18.05 L55,18 L55,17.93 L55,17.86 L55,17.79 L55,17.72 L55,17.64 L55,17.56 L55,16.27 L55,16.19 L55,16.12 L55,16.04 L55,15.97 L55,15.91 L55,15.85 L55,15.78 L55,15.72 L55,15.66 L55.06,15.66 L55.13,15.6 L55.19,15.6 L55.27,15.6 L55.27,15.6 L55.21,15.54 L55.15,15.54 L55.15,15.47 L55.15,15.41 L55.15,15.34 L55.15,15.27 L55.15,15.27 L55.15,15.19 L55.15,15.12 L55.15,15.04 L55.15,14.96 L55.15,14.1 L55.15,14.02 L55.15,13.95 L55.15,13.87 L55.15,13.8 L55.15,13.73 L55.15,13.66 L55.15,13.59 L55.15,13.53 L55.15,13.53 L55.21,13.47 L55.28,13.47 L55.35,13.47 L55.41,13.47 L55.49,13.47 L55.49,13.47 L55.71,13.41 L56.12,13.41 L56.2,13.41 L56.27,13.41 L56.35,13.41 L56.42,13.41 L56.5,13.41 L56.57,13.41 L56.63,13.41 L56.7,13.41 L56.76,13.47 L56.82,13.47 L56.88,13.53 L56.88,13.59 L56.88,13.66 L56.88,13.72 L56.88,13.8 L56.88,13.8 L56.94,14.02 L56.94,14.15 L56.94,14.85 L56.94,14.93 L56.94,15.01 L56.94,15.09 L56.94,15.16 L56.94,15.16 L56.94,15.23 L56.94,15.29 L56.94,15.36 L56.94,15.42 L56.88,15.48 L56.82,15.54 L56.82,15.54 L56.89,15.54 L56.95,15.54 L57.02,15.54 L57.08,15.6 L57.08,15.6 L57.14,15.67 L57.14,15.74 L57.14,15.8 L57.14,15.87 L57.14,15.95 L57.14,16.03 L57.14,16.1 L57.14,16.18 L57.14,16.26 L57.14,17.26 L57.58,17.3 Z M57,14.53 L57,14 L57,13.92 L57,13.85 L57,13.78 L57,13.71 L57,13.65 L57,13.59 L56.94,13.59 L56.87,13.59 L56.8,13.59 L56.73,13.59 L56.66,13.59 L56.58,13.59 L56,13.59 L55.93,13.59 L55.85,13.59 L55.78,13.59 L55.71,13.59 L55.65,13.59 L55.59,13.59 L55.59,13.65 L55.59,13.71 L55.59,13.78 L55.59,13.85 L55.59,13.93 L55.59,14 L55.59,14.73 L55.59,14.81 L55.59,14.88 L55.59,14.95 L55.59,15.02 L55.59,15.08 L55.59,15.14 L55.65,15.14 L55.72,15.14 L55.78,15.14 L55.85,15.14 L55.93,15.14 L56.01,15.14 L56.31,15.14 L56.39,15.14 L56.46,15.14 L56.53,15.14 L56.6,15.14 L56.67,15.14 L56.67,15.14 L56.73,15.08 L56.73,15.02 L56.73,14.95 L56.73,14.88 L56.73,14.81 L56.73,14.73 L56.73,14.57 L57,14.53 Z M57.21,17.3 L57.21,16.3 L57.21,16.22 L57.21,16.15 L57.21,16.08 L57.21,16.01 L57,16 L57,16 L56.94,15.94 L56.88,15.94 L56.81,15.94 L56.74,15.94 L56.67,15.94 L56.59,15.94 L55.87,15.94 L55.79,15.94 L55.72,15.94 L55.65,15.94 L55.58,15.94 L55.51,15.94 L55.51,15.94 L55.45,16 L55.45,16.07 L55.45,16.13 L55.45,16.21 L55.45,16.28 L55.45,17.46 L55.45,17.54 L55.45,17.61 L55.45,17.68 L55.45,17.75 L55.45,17.82 L55.45,17.82 L55.51,17.88 L55.58,17.88 L55.65,17.88 L55.72,17.88 L55.79,17.88 L55.87,17.88 L56.57,17.88 L56.65,17.88 L56.72,17.88 L56.79,17.88 L56.86,17.88 L56.93,17.88 L56.93,17.88 L56.99,17.82 L56.99,17.75 L56.99,17.68 L56.99,17.61 L56.99,17.54 L56.99,17.46 L56.99,17.3 L57.21,17.3 Z"/>
    <polygon fill="#231F20" stroke="#231F20" stroke-width=".22" points="60.36 16.91 60.96 16.91 61.04 16.93 61.1 16.97 61.15 17.04 61.16 17.11 61.15 17.19 61.11 17.25 61.05 17.3 60.97 17.3 60.96 17.3 60.36 17.3 60.36 18.31 60.35 18.39 60.31 18.45 60.3 18.45 60.25 18.49 60.17 18.5 60.1 18.48 60.03 18.45 59.98 18.4 59.97 18.32 59.97 18.31 59.97 17.3 58.58 17.3 58.5 17.3 58.44 17.26 58.39 17.19 58.38 17.12 58.38 17.07 59.17 13.1 59.2 13.02 59.24 12.97 59.37 12.93 59.44 12.95 59.51 12.99 59.56 13.05 59.57 13.13 59.57 13.13 59.57 13.18 58.82 16.91 59.97 16.91 59.97 15.91 59.98 15.84 60.03 15.78 60.1 15.73 60.17 15.71 60.25 15.73 60.3 15.76 60.34 15.82 60.36 15.9 60.36 15.91"/>
    <polygon fill="#003B11" stroke="#231F20" stroke-width=".57" points="1.28 24.47 3.61 24.47 3.61 3.5 66.77 3.5 66.77 24.47 69.05 24.47 69 1.28 1.28 1.28"/>
    <rect width="15.43" height="7.23" x="22.77" y="24.55" fill="#FFFFFF" stroke="#2E3192" stroke-width=".57"/>
    <rect width="15.32" height=".82" x="22.88" y="27.81" fill="#FFFFFF" stroke="#2E3192" stroke-width=".57"/>
    <path stroke="#2E3192" stroke-width=".57" d="M37.33 27.81L37.33 28.63M23.76 27.81L23.76 28.63"/>
    <rect width="30.93" height="7.32" x="77.97" y="24.72" fill="#FFFFFF" stroke="#2E3192" stroke-width=".57"/>
    <rect width="30.71" height=".83" x="78.19" y="28.02" fill="#FFFFFF" stroke="#2E3192" stroke-width=".57"/>
    <path stroke="#2E3192" stroke-width=".57" d="M107.14 28.02L107.14 28.85M79.95 28.02L79.95 28.85"/>
    <polygon fill="#FFFFFF" stroke="#231F20" stroke-width=".22" points="89.48 71.85 74.55 82.7 80.26 100.26 98.72 100.25 104.42 82.69"/>
    <path stroke="#231F20" stroke-width=".28" d="M85.34 100.2L85.34 75.05M85.34 91.73L101.36 91.73"/>
    <path stroke="#231F20" stroke-width=".39" d="M85.34,84.58 L103.65,84.57"/>
    <polygon fill="#231F20" stroke="#231F20" stroke-width=".22" points="82.07 91.32 82.05 91.44 82 91.53 81.99 91.54 81.9 91.59 81.78 91.61 81.69 91.59 81.58 91.54 81.53 91.45 81.5 91.34 81.5 91.32 81.5 84.56 80.27 85.79 80.18 85.86 80.08 85.88 79.96 85.86 79.88 85.8 79.88 85.79 79.81 85.7 79.79 85.59 79.79 85.59 79.81 85.51 79.88 85.4 81.58 83.67 81.67 83.61 81.78 83.59 81.89 83.61 81.99 83.67 82.05 83.76 82.07 83.86 82.07 83.87"/>
    <polygon fill="#231F20" stroke="#231F20" stroke-width=".22" points="88.62 83.19 88.62 83.25 88.59 83.28 88.58 83.3 88.54 83.31 88.48 83.32 88.44 83.31 88.39 83.3 88.36 83.25 88.35 83.2 88.35 83.19 88.35 79.9 87.76 80.5 87.71 80.53 87.66 80.54 87.6 80.53 87.56 80.5 87.56 80.5 87.53 80.45 87.51 80.4 87.51 80.4 87.53 80.36 87.56 80.31 88.39 79.47 88.44 79.43 88.48 79.43 88.54 79.44 88.58 79.46 88.61 79.51 88.62 79.56 88.62 79.56"/>
    <polygon fill="#231F20" stroke="#231F20" stroke-width=".22" points="91.13 79.6 90.29 83.22 90.27 83.25 90.24 83.3 90.16 83.32 90.11 83.31 90.06 83.3 90.03 83.25 90.02 83.2 90.02 83.19 90.02 83.16 90.82 79.71 89.46 79.71 89.46 79.98 89.45 80.04 89.43 80.08 89.42 80.09 89.38 80.11 89.32 80.12 89.28 80.11 89.22 80.09 89.19 80.05 89.18 79.99 89.18 79.98 89.18 79.57 89.19 79.51 89.21 79.47 89.25 79.44 89.3 79.43 89.32 79.43 90.99 79.43 91.05 79.43 91.1 79.46 91.13 79.5 91.14 79.56"/>
    <polygon fill="#231F20" stroke="#231F20" stroke-width=".22" points="91.96 83.25 91.96 83.21 91.95 83.16 91.92 83.11 91.87 83.08 91.83 83.08 91.77 83.09 91.74 83.1 91.71 83.14 91.69 83.19 91.55 83.74 91.54 83.78 91.55 83.83 91.58 83.86 91.63 83.89 91.69 83.9 91.69 83.9 91.74 83.89 91.77 83.89 91.8 83.84 91.83 83.8"/>
    <polygon fill="#231F20" stroke="#231F20" stroke-width=".22" points="93.91 82.21 94.33 82.21 94.39 82.22 94.43 82.25 94.46 82.3 94.47 82.35 94.46 82.4 94.44 82.45 94.4 82.48 94.34 82.49 94.33 82.49 93.91 82.49 93.91 83.19 93.91 83.25 93.88 83.28 93.88 83.3 93.83 83.31 93.77 83.32 93.73 83.31 93.67 83.3 93.64 83.25 93.63 83.2 93.63 83.19 93.63 82.49 92.66 82.49 92.6 82.48 92.56 82.45 92.53 82.4 92.52 82.35 92.52 82.32 93.08 79.54 93.1 79.48 93.13 79.45 93.21 79.43 93.27 79.44 93.32 79.46 93.35 79.51 93.36 79.56 93.36 79.56 93.36 79.6 92.83 82.21 93.63 82.21 93.63 81.52 93.64 81.47 93.68 81.42 93.72 81.39 93.77 81.37 93.83 81.39 93.87 81.41 93.9 81.45 93.91 81.51 93.91 81.52"/>
    <path fill="#231F20" stroke="#231F20" stroke-width=".22" d="M96.7,81.38 L96.7,80.15 L96.7,80.15 L96.7,80.09 L96.7,80.09 L96.7,80.09 L96.7,80.09 L96.7,80.09 L96.7,80.09 L96.7,80.09 L96.7,80.09 L96.7,80.09 L96.7,80.09 L95.7,80.09 L95.64,80.09 L95.64,80.09 L95.64,80.09 L95.64,80.09 L95.64,80.09 L95.64,80.09 L95.64,80.09 L95.64,80.09 L95.64,80.09 L95.64,80.09 L95.64,80.92 L95.64,80.98 L95.64,80.98 L95.64,80.98 L95.64,80.98 L95.64,80.98 L95.64,80.98 L95.64,80.98 L95.64,80.98 L95.64,80.98 L95.64,80.98 L95.64,80.98 L96.64,80.98 L96.7,81.38 Z M96.97,81.5 L96.97,82 L96.97,82 L96.97,82.06 L96.97,82.06 L96.97,82.06 L96.97,82.12 L96.97,82.12 L96.97,82.12 L96.97,82.12 L96.97,82.12 L96.97,82.12 L96.97,82.12 L96.97,82.12 L96.97,82.12 L96.97,82.12 L96.97,82.12 L96.97,82.12 L96.97,82.12 L96.97,82.12 L96.97,82.12 L96.97,82.12 L96.97,82.12 L96.97,82.12 L96.97,82.12 L96.97,82.12 L96.97,82.12 L96.97,82.12 L96.97,82.12 L96.97,82.12 L96.97,82.12 L96.97,82.12 L96.97,82.12 L96.91,82.12 L96.79,82.12 L96.79,82.12 L96.79,82.12 L96.79,81.99 L96.79,81.99 L96.79,81.99 L96.79,81.99 L96.79,81.99 L96.85,81.99 L96.85,81.99 L96.85,81.99 L96.96,81.92 L96.96,81.92 L97.03,81.86 L97.03,81.86 L97.03,81.86 L97.03,81.86 L97.03,81.86 L97.03,81.86 L97.03,81.86 L97.03,81.86 L97.03,81.86 L97.03,81.86 L97.03,81.86 L97.03,81.86 L97.03,81.86 L97.03,81.8 L97.03,81.8 L97.03,81.8 L97.03,81.74 L97.03,81.74 L97.03,81.68 L97.03,81.62 L97.03,81.35 L96.03,81.35 L95.97,81.35 L95.97,81.35 L95.97,81.35 L95.97,81.35 L95.97,81.35 L95.97,81.35 L95.97,81.35 L95.97,81.35 L95.97,81.35 L95.97,81.35 L95.97,81.35 L95.97,81.35 L95.97,81.35 L95.97,81.35 L95.97,81.35 L95.97,81.29 L95.97,81.29 L95.97,80.1 L95.97,80.04 L95.97,80.04 L95.97,80.04 L95.97,80.04 L95.97,80.04 L95.97,80.04 L95.97,80.04 L95.97,80.04 L95.97,80.04 L95.97,80.04 L95.97,80.04 L95.97,80.04 L95.97,80.04 L95.97,80.04 L95.97,80.04 L95.97,80.04 L96.03,80.04 L96.75,80.04 L96.75,80.04 L96.75,80.04 L96.75,80.04 L96.75,80.04 L96.75,80.04 L96.75,80.04 L96.75,80.04 L96.75,80.04 L96.75,80.04 L96.75,80.04 L96.75,80.04 L96.75,80.04 L96.75,80.04 L96.75,80.04 L96.75,80.19 L96.75,81.5 L96.97,81.5 Z"/>
    <polygon fill="#231F20" stroke="#231F20" stroke-width=".22" points="88.77 89.4 89.18 89.4 89.24 89.41 89.28 89.44 89.32 89.48 89.33 89.53 89.31 89.59 89.29 89.63 89.25 89.66 89.19 89.67 89.18 89.67 88.77 89.67 88.77 90.37 88.76 90.43 88.73 90.48 88.73 90.48 88.68 90.51 88.62 90.51 88.58 90.5 88.53 90.48 88.49 90.44 88.48 90.38 88.48 90.37 88.48 89.67 87.51 89.67 87.45 89.66 87.41 89.64 87.38 89.59 87.37 89.54 87.37 89.51 87.93 86.72 87.95 86.67 87.98 86.64 88.07 86.61 88.12 86.63 88.17 86.65 88.2 86.69 88.21 86.75 88.21 86.75 88.21 86.78 87.68 89.4 88.48 89.4 88.48 88.7 88.5 88.65 88.53 88.6 88.58 88.57 88.62 88.56 88.68 88.57 88.72 88.6 88.75 88.64 88.77 88.69 88.77 88.7"/>
    <path fill="#231F20" stroke="#231F20" stroke-width=".22" d="M91.82,89.67 L91.82,89.9 L91.82,89.9 L91.82,89.9 L91.82,89.9 L91.82,89.9 L91.82,89.9 L91.82,89.9 L91.82,89.9 L91.82,89.9 L91.82,89.9 L91.82,89.9 L91.82,89.9 L91.82,89.9 L91.82,89.9 L91.82,89.9 L91.76,89.9 L91.76,89.9 L91.1,89.9 L91.1,89.9 L91.1,89.9 L91.1,89.9 L91.1,89.9 L91.1,89.9 L91.1,89.9 L91.1,89.9 L91.1,89.9 L91.1,89.9 L91.1,89.9 L91.1,89.9 L91.1,89.9 L91.1,89.9 L91.1,89.9 L91.1,89.9 L91.1,89.9 L91.1,89.9 L91.1,89.84 L91.1,87.18 L91.1,87.18 L91.1,87.18 L91.1,87.18 L91.1,87.18 L91.1,87.18 L91.1,87.18 L91.1,87.18 L91.1,87.18 L91.1,87.18 L91.1,87.18 L91.1,87.18 L91.1,87.18 L91.1,87.18 L91.1,87.18 L91.93,87.18 L91.93,87.18 L91.93,87.18 L91.93,87.18 L91.93,87.18 L91.93,87.18 L91.93,87.18 L91.93,87.18 L91.93,87.18 L91.93,87.18 L91.93,87.18 L91.93,87.18 L91.93,87.18 L91.93,87.18 L91.93,87.24 L91.93,87.24 L91.93,89.68 L91.82,89.67 Z M91.54,89.67 L91.54,87.28 L91.54,87.28 L91.54,87.28 L91.54,87.28 L91.54,87.28 L91.54,87.28 L91.54,87.28 L91.54,87.28 L91.54,87.28 L91.54,87.28 L91.54,87.28 L91.48,87.28 L90.98,87.28 L90.98,87.28 L90.98,87.28 L90.98,87.28 L90.98,87.28 L90.98,87.28 L90.98,87.28 L90.98,87.28 L90.98,87.28 L90.98,87.28 L90.98,87.28 L90.98,87.34 L90.98,89.84 L90.98,89.84 L90.98,89.84 L90.98,89.84 L90.98,89.84 L90.98,89.84 L90.98,89.84 L90.98,89.84 L90.98,89.84 L90.98,89.84 L90.98,89.84 L91.04,89.84 L91.63,89.84 L91.63,89.84 L91.63,89.84 L91.63,89.84 L91.63,89.84 L91.63,89.84 L91.63,89.84 L91.63,89.84 L91.63,89.84 L91.63,89.84 L91.63,89.84 L91.63,89.66 L91.54,89.67 Z"/>
    <polygon fill="#231F20" stroke="#231F20" stroke-width=".22" points="92.66 90.44 92.66 90.4 92.65 90.34 92.62 90.3 92.57 90.27 92.51 90.26 92.46 90.27 92.43 90.29 92.41 90.33 92.39 90.37 92.25 90.92 92.24 90.96 92.25 91.02 92.28 91.06 92.33 91.09 92.38 91.1 92.39 91.1 92.43 91.09 92.45 91.07 92.49 91.04 92.51 90.99"/>
    <polygon fill="#231F20" stroke="#231F20" stroke-width=".22" points="88.91 97.11 89.33 97.11 89.38 97.11 89.42 97.14 89.46 97.19 89.47 97.24 89.46 97.29 89.43 97.33 89.39 97.37 89.33 97.38 89.33 97.38 88.91 97.38 88.91 98.08 88.9 98.14 88.87 98.18 88.87 98.19 88.82 98.2 88.77 98.22 88.72 98.2 88.67 98.19 88.64 98.14 88.62 98.09 88.62 98.08 88.62 97.38 87.65 97.38 87.6 97.37 87.55 97.34 87.52 97.29 87.51 97.24 87.51 97.21 88.07 94.43 88.09 94.37 88.12 94.34 88.21 94.31 88.26 94.32 88.31 94.35 88.34 94.4 88.35 94.45 88.35 94.45 88.35 94.48 87.83 97.11 88.62 97.11 88.62 96.41 88.64 96.36 88.67 96.31 88.72 96.27 88.77 96.26 88.82 96.27 88.86 96.3 88.9 96.34 88.91 96.4 88.91 96.41"/>
    <polygon fill="#231F20" stroke="#231F20" stroke-width=".22" points="91.83 98.22 90.16 98.22 90.11 98.2 90.06 98.17 90.03 98.12 90.02 98.07 90.02 98.07 90.04 98.01 90.04 98 91.57 95.69 91.63 95.58 91.67 95.48 91.69 95.42 91.7 95.38 91.7 95.32 91.7 95.28 91.7 95.22 91.69 95.17 91.68 95.11 91.67 95.06 91.64 95.01 91.62 94.96 91.59 94.92 91.55 94.87 91.51 94.83 91.47 94.8 91.43 94.77 91.38 94.74 91.33 94.71 91.28 94.68 91.24 94.66 91.18 94.64 91.13 94.62 91.07 94.61 91.02 94.61 90.96 94.6 90.9 94.61 90.85 94.61 90.79 94.62 90.74 94.64 90.69 94.66 90.64 94.69 90.61 94.71 90.57 94.74 90.53 94.77 90.49 94.81 90.46 94.85 90.42 94.89 90.39 94.94 90.36 95 90.34 95.06 90.33 95.07 90.3 95.12 90.29 95.14 90.23 95.16 90.21 95.17 90.16 95.16 90.11 95.13 90.08 95.08 90.07 95.03 90.07 95.03 90.08 94.98 90.09 94.92 90.11 94.86 90.14 94.81 90.17 94.76 90.2 94.72 90.23 94.67 90.27 94.63 90.3 94.59 90.34 94.55 90.38 94.51 90.42 94.48 90.44 94.47 90.49 94.44 90.53 94.41 90.58 94.39 90.64 94.37 90.69 94.35 90.74 94.34 90.79 94.33 90.85 94.32 90.91 94.32 90.95 94.31 91 94.32 91.06 94.32 91.12 94.33 91.17 94.34 91.22 94.35 91.28 94.37 91.32 94.38 91.37 94.41 91.42 94.43 91.47 94.46 91.52 94.49 91.57 94.52 91.62 94.56 91.66 94.59 91.71 94.63 91.75 94.68 91.78 94.72 91.81 94.77 91.85 94.81 91.87 94.85 91.9 94.9 91.92 94.95 91.94 95 91.96 95.05 91.97 95.1 91.98 95.16 91.98 95.21 91.99 95.27 91.99 95.28 91.98 95.34 91.98 95.39 91.97 95.44 91.96 95.5 91.94 95.54 91.93 95.59 91.91 95.64 91.88 95.69 91.86 95.74 91.83 95.8 91.81 95.85 90.42 97.94 91.83 97.94 91.87 97.95 91.91 97.98 91.95 98.03 91.96 98.08 91.95 98.13 91.92 98.17 91.88 98.2 91.83 98.22 91.83 98.22"/>
    <polygon fill="#231F20" stroke="#231F20" stroke-width=".22" points="92.8 98.14 92.8 98.1 92.79 98.05 92.76 98 92.71 97.97 92.66 97.96 92.6 97.98 92.57 97.99 92.54 98.03 92.52 98.07 92.39 98.63 92.38 98.67 92.39 98.72 92.42 98.76 92.46 98.78 92.52 98.8 92.52 98.8 92.57 98.78 92.6 98.78 92.63 98.74 92.66 98.69"/>
    <polygon fill="#231F20" stroke="#231F20" stroke-width=".22" points="94.47 98.08 94.46 98.14 94.43 98.18 94.43 98.19 94.38 98.2 94.33 98.22 94.28 98.2 94.23 98.19 94.2 98.14 94.19 98.09 94.19 98.08 94.19 94.8 93.59 95.39 93.55 95.42 93.51 95.43 93.45 95.42 93.4 95.39 93.4 95.39 93.37 95.35 93.36 95.29 93.36 95.29 93.37 95.25 93.4 95.2 94.23 94.35 94.28 94.32 94.33 94.31 94.38 94.32 94.43 94.35 94.46 94.4 94.47 94.45 94.47 94.45"/>
    <path fill="#231F20" stroke="#231F20" stroke-width=".22" d="M97.27,97.38 L97.27,97.61 L97.27,97.61 L97.27,97.61 L97.27,97.61 L97.27,97.61 L97.27,97.61 L97.27,97.61 L97.27,97.61 L97.27,97.61 L97.27,97.61 L97.27,97.61 L97.27,97.61 L97.27,97.61 L97.27,97.61 L97.27,97.61 L97.21,97.61 L97.21,97.61 L96,97.61 L96,97.61 L96,97.61 L96,97.61 L96,97.61 L96,97.61 L96,97.61 L96,97.61 L96,97.61 L96,97.61 L96,97.61 L96,97.61 L96,97.61 L96,97.61 L96,97.61 L96,97.61 L96,97.61 L96,97.61 L96,97.55 L96,94.88 L96,94.88 L96,94.88 L96,94.88 L96,94.88 L96,94.88 L96,94.88 L96,94.88 L96,94.88 L96,94.88 L96,94.88 L96,94.88 L96,94.88 L96,94.88 L96,94.88 L96.83,94.88 L96.83,94.88 L96.83,94.88 L96.83,94.88 L96.83,94.88 L96.83,94.88 L96.83,94.88 L96.83,94.88 L96.83,94.88 L96.83,94.88 L96.83,94.88 L96.83,94.88 L96.83,94.88 L96.83,94.88 L96.83,94.94 L96.83,94.94 L96.83,97.38 L97.27,97.38 Z M97,97.38 L97,95 L97,95 L97,95 L97,95 L97,95 L97,95 L97,95 L97,95 L97,95 L97,95 L97,95 L96.94,95 L96,95 L96,95 L96,95 L96,95 L96,95 L96,95 L96,95 L96,95 L96,95 L96,95 L96,95 L96,95.06 L96,97.56 L96,97.56 L96,97.56 L96,97.56 L96,97.56 L96,97.56 L96,97.56 L96,97.56 L96,97.56 L96,97.56 L96,97.56 L96.06,97.56 L96.65,97.56 L96.65,97.56 L96.65,97.56 L96.65,97.56 L96.65,97.56 L96.65,97.56 L96.65,97.56 L96.65,97.56 L96.65,97.56 L96.65,97.56 L96.65,97.56 L96.65,97.38 L97,97.38 Z"/>
    <polygon fill="#231F20" stroke="#231F20" stroke-width=".22" points="94.97 90.42 93.3 90.42 93.25 90.41 93.2 90.38 93.17 90.33 93.16 90.28 93.16 90.28 93.18 90.22 93.18 90.21 94.72 87.9 94.77 87.79 94.81 87.69 94.83 87.63 94.84 87.58 94.84 87.53 94.84 87.48 94.84 87.43 94.83 87.38 94.82 87.32 94.81 87.27 94.78 87.22 94.76 87.17 94.73 87.13 94.69 87.08 94.66 87.04 94.62 87 94.58 86.97 94.53 86.94 94.48 86.92 94.43 86.89 94.38 86.87 94.32 86.85 94.27 86.83 94.21 86.82 94.17 86.82 94.11 86.81 94.05 86.82 94 86.82 93.94 86.83 93.89 86.85 93.83 86.87 93.78 86.9 93.75 86.92 93.71 86.94 93.67 86.97 93.63 87.01 93.61 87.06 93.56 87.1 93.54 87.15 93.51 87.21 93.49 87.27 93.48 87.28 93.45 87.33 93.44 87.35 93.38 87.37 93.36 87.38 93.3 87.37 93.25 87.34 93.22 87.29 93.21 87.24 93.21 87.24 93.22 87.19 93.24 87.13 93.26 87.07 93.29 87.02 93.32 86.97 93.35 86.92 93.38 86.88 93.42 86.84 93.45 86.8 93.49 86.76 93.53 86.72 93.56 86.69 93.58 86.68 93.63 86.65 93.67 86.62 93.72 86.6 93.78 86.58 93.83 86.56 93.89 86.55 93.94 86.54 94 86.53 94.06 86.53 94.09 86.52 94.14 86.53 94.2 86.53 94.26 86.54 94.31 86.55 94.37 86.56 94.42 86.58 94.47 86.59 94.52 86.62 94.57 86.64 94.62 86.67 94.67 86.7 94.72 86.73 94.76 86.77 94.8 86.8 94.85 86.84 94.89 86.89 94.93 86.92 94.96 86.97 95 87.01 95.02 87.06 95.05 87.11 95.07 87.16 95.09 87.21 95.11 87.26 95.12 87.31 95.13 87.37 95.13 87.42 95.14 87.48 95.14 87.48 95.13 87.55 95.13 87.59 95.12 87.65 95.11 87.71 95.09 87.75 95.08 87.8 95.06 87.85 95.03 87.9 95.01 87.95 94.97 88.01 94.95 88.06 93.56 90.15 94.97 90.15 95.02 90.16 95.06 90.19 95.1 90.24 95.11 90.29 95.1 90.33 95.07 90.38 95.03 90.41 94.97 90.42 94.97 90.42"/>
    <path fill="#231F20" stroke="#231F20" stroke-width=".22" d="M95.83,88.55 L95.83,89.78 L95.83,89.78 L95.83,89.84 L95.83,89.84 L95.83,89.84 L95.83,89.84 L95.83,89.84 L95.83,89.84 L95.83,89.84 L95.83,89.84 L95.83,89.84 L95.83,89.84 L96.44,89.84 L96.5,89.84 L96.5,89.84 L96.5,89.84 L96.5,89.84 L96.5,89.84 L96.5,89.84 L96.5,89.84 L96.5,89.84 L96.5,89.84 L96.5,89.84 L96.5,89 L96.5,88.94 L96.5,88.94 L96.5,88.94 L96.5,88.94 L96.5,88.94 L96.5,88.94 L96.5,88.94 L96.5,88.94 L96.5,88.94 L96.5,88.94 L96.5,88.94 L95.5,88.94 L95.83,88.55 Z M95.56,88.43 L95.56,87.92 L95.56,87.92 L95.56,87.86 L95.56,87.86 L95.56,87.86 L95.56,87.8 L95.56,87.8 L95.56,87.8 L95.56,87.8 L95.56,87.8 L95.56,87.8 L95.56,87.8 L95.56,87.8 L95.56,87.8 L95.56,87.8 L95.56,87.8 L95.56,87.8 L95.56,87.8 L95.56,87.8 L95.56,87.8 L95.56,87.8 L95.56,87.8 L95.56,87.8 L95.56,87.8 L95.56,87.8 L95.56,87.8 L95.56,87.8 L95.56,87.8 L95.56,87.8 L95.56,87.8 L95.56,87.8 L95.56,87.8 L95.62,87.8 L95.74,87.8 L95.74,87.8 L95.74,87.8 L95.74,87.93 L95.74,87.93 L95.74,87.93 L95.74,87.93 L95.74,87.93 L95.68,87.93 L95.68,87.93 L95.68,87.93 L95.57,88 L95.57,88 L95.5,88.06 L95.5,88.06 L95.5,88.06 L95.5,88.06 L95.5,88.06 L95.5,88.06 L95.5,88.06 L95.5,88.06 L95.5,88.06 L95.5,88.06 L95.5,88.06 L95.5,88.06 L95.5,88.06 L95.5,88.12 L95.5,88.12 L95.5,88.12 L95.5,88.18 L95.5,88.18 L95.5,88.24 L95.5,88.3 L95.5,88.57 L96.5,88.57 L96.56,88.57 L96.56,88.57 L96.56,88.57 L96.56,88.57 L96.56,88.57 L96.56,88.57 L96.56,88.57 L96.56,88.57 L96.56,88.57 L96.56,88.57 L96.56,88.57 L96.56,88.57 L96.56,88.57 L96.56,88.57 L96.56,88.57 L96.56,88.63 L96.56,88.63 L96.56,89.56 L96.56,89.62 L96.56,89.62 L96.56,89.62 L96.56,89.62 L96.56,89.62 L96.56,89.62 L96.56,89.62 L96.56,89.62 L96.56,89.62 L96.56,89.62 L96.56,89.62 L96.56,89.62 L96.56,89.62 L96.56,89.62 L96.56,89.62 L96.56,89.62 L96.5,89.62 L95.78,89.62 L95.78,89.62 L95.78,89.62 L95.78,89.62 L95.78,89.62 L95.78,89.62 L95.78,89.62 L95.78,89.62 L95.78,89.62 L95.78,89.62 L95.78,89.62 L95.78,89.62 L95.78,89.62 L95.78,89.62 L95.78,89.62 L95.78,89.47 L95.78,88.43 L95.56,88.43 Z"/>
    <polygon fill="#231F20" stroke="#231F20" stroke-width=".22" points="34.83 57.89 32.45 57.89 32.38 57.87 32.31 57.82 32.27 57.75 32.25 57.67 32.25 57.67 32.27 57.59 32.28 57.57 34.46 54.27 34.54 54.11 34.61 53.98 34.63 53.9 34.64 53.82 34.65 53.74 34.65 53.68 34.65 53.6 34.64 53.52 34.62 53.45 34.6 53.38 34.57 53.31 34.53 53.24 34.49 53.18 34.44 53.12 34.38 53.05 34.32 53 34.27 52.95 34.2 52.91 34.13 52.87 34.06 52.83 33.99 52.8 33.91 52.77 33.83 52.75 33.75 52.74 33.68 52.73 33.6 52.72 33.51 52.73 33.43 52.74 33.35 52.76 33.28 52.78 33.2 52.81 33.13 52.85 33.09 52.88 33.03 52.91 32.97 52.96 32.92 53.01 32.87 53.07 32.83 53.14 32.78 53.22 32.74 53.3 32.7 53.38 32.7 53.4 32.66 53.47 32.63 53.49 32.57 53.51 32.53 53.52 32.44 53.51 32.38 53.48 32.33 53.42 32.32 53.34 32.32 53.33 32.33 53.26 32.36 53.18 32.39 53.1 32.43 53.02 32.47 52.95 32.51 52.88 32.55 52.82 32.6 52.76 32.65 52.7 32.71 52.65 32.76 52.6 32.83 52.55 32.85 52.53 32.91 52.49 32.98 52.45 33.06 52.42 33.13 52.39 33.2 52.36 33.27 52.34 33.35 52.34 33.44 52.33 33.52 52.31 33.58 52.31 33.66 52.31 33.73 52.33 33.81 52.34 33.89 52.34 33.97 52.36 34.04 52.39 34.12 52.41 34.19 52.44 34.26 52.48 34.32 52.51 34.39 52.56 34.46 52.6 34.53 52.65 34.59 52.71 34.66 52.77 34.72 52.83 34.77 52.88 34.81 52.95 34.86 53.01 34.9 53.08 34.94 53.15 34.97 53.22 35 53.29 35.02 53.37 35.04 53.44 35.05 53.51 35.06 53.59 35.06 53.67 35.06 53.68 35.06 53.77 35.05 53.85 35.04 53.93 35.02 54.01 35 54.07 34.98 54.13 34.95 54.2 34.91 54.28 34.87 54.35 34.84 54.43 34.8 54.5 32.82 57.48 34.83 57.48 34.89 57.5 34.96 57.54 35.01 57.61 35.02 57.68 35 57.76 34.97 57.82 34.91 57.87 34.84 57.89 34.83 57.89"/>
    <path fill="#231F20" stroke="#231F20" stroke-width=".22" d="M38.48,56.79 L38.48,57 L38.48,57.08 L38.48,57.15 L38.48,57.23 L38.48,57.3 L38.48,57.37 L38.48,57.43 L38.48,57.5 L38.42,57.56 L38.42,57.56 L38.36,57.62 L38.29,57.62 L38.23,57.62 L38.16,57.62 L38.09,57.62 L38.02,57.62 L37.95,57.62 L37.87,57.62 L37.79,57.62 L37,57.62 L36.93,57.62 L36.85,57.62 L36.78,57.62 L36.7,57.62 L36.63,57.62 L36.56,57.62 L36.49,57.62 L36.42,57.62 L36.36,57.62 L36.36,57.62 L36,57.58 L36,57.52 L36,57.46 L36,57.39 L36,57.32 L36,57.25 L36,57.18 L36,57.1 L36,57.02 L36,55.76 L36,55.68 L36,55.61 L36,55.53 L36,55.46 L36,55.4 L36,55.34 L36,55.27 L36,55.21 L36,55.15 L36.06,55.15 L36.13,55.09 L36.19,55.09 L36.27,55.09 L36.27,55.09 L36.21,55.03 L36.15,55.03 L36.15,54.96 L36.15,54.9 L36.15,54.83 L36.15,54.76 L36.15,54.76 L36.15,54.68 L36.15,54.61 L36.15,54.53 L36.15,54.45 L36.15,53.6 L36.15,53.52 L36.15,53.45 L36.15,53.37 L36.15,53.3 L36.15,53.23 L36.15,53.16 L36.15,53.09 L36.15,53.03 L36.15,53.03 L36.21,52.97 L36.28,52.97 L36.35,52.97 L36.41,52.97 L36.49,52.97 L36.49,52.97 L36.71,52.91 L37.12,52.91 L37.2,52.91 L37.27,52.91 L37.35,52.91 L37.42,52.91 L37.5,52.91 L37.57,52.91 L37.63,52.91 L37.7,52.91 L37.76,52.97 L37.82,52.97 L37.88,53.03 L37.88,53.09 L37.88,53.16 L37.88,53.22 L37.88,53.3 L37.88,53.3 L37.94,53.52 L37.94,53.65 L37.94,54.35 L37.94,54.43 L37.94,54.51 L37.94,54.59 L37.94,54.66 L37.94,54.66 L37.94,54.73 L37.94,54.79 L37.94,54.86 L37.94,54.92 L37.88,54.98 L37.82,55.04 L37.82,55.04 L37.89,55.04 L38,55 L38.07,55 L38.13,55.06 L38.13,55.06 L38.19,55.13 L38.19,55.2 L38.19,55.26 L38.19,55.33 L38.19,55.41 L38.19,55.49 L38.19,55.56 L38.19,55.64 L38.19,55.72 L38.19,56.72 L38.48,56.79 Z M37.88,54 L37.88,53.43 L37.88,53.35 L37.88,53.28 L37.88,53.21 L37.88,53.14 L37.88,53.08 L37.88,53.02 L37.82,53.02 L37.75,53.02 L37.68,53.02 L37.61,53.02 L37.54,53.02 L37.46,53.02 L37.15,53.02 L37.08,53.02 L37,53.02 L36.93,53.02 L36.86,53.02 L36.8,53.02 L36.74,53.02 L36.74,53.08 L36.74,53.14 L36.74,53.21 L36.74,53.28 L36.74,53.36 L36.74,53.43 L36.74,54.16 L36.74,54.24 L36.74,54.31 L36.74,54.38 L36.74,54.45 L36.74,54.51 L36.74,54.57 L36.8,54.57 L36.87,54.57 L36.93,54.57 L37,54.57 L37.08,54.57 L37.16,54.57 L37.46,54.57 L37.54,54.57 L37.61,54.57 L37.68,54.57 L37.75,54.57 L37.82,54.57 L37.82,54.57 L37.88,54.51 L37.88,54.45 L37.88,54.38 L37.88,54.31 L37.88,54.24 L37.88,54.16 L37.88,54 L37.88,54 Z M38.09,56.77 L38.09,55.77 L38.09,55.69 L38.09,55.62 L38.09,55.55 L38.09,55.48 L38.09,55.41 L38.09,55.41 L38.03,55.35 L37.97,55.35 L37.9,55.35 L37.83,55.35 L37.76,55.35 L37.68,55.35 L36.96,55.35 L36.88,55.35 L36.81,55.35 L36.74,55.35 L36.67,55.35 L36.6,55.35 L36.6,55.35 L36.54,55.41 L36.54,55.48 L36.54,55.54 L36.54,55.62 L36.54,55.69 L36.54,57 L36.54,57.08 L36.54,57.15 L36.54,57.22 L36.54,57.29 L36.54,57.36 L36.54,57.36 L36.6,57.42 L36.67,57.42 L36.74,57.42 L36.81,57.42 L36.88,57.42 L36.96,57.42 L37.66,57.42 L37.74,57.42 L37.81,57.42 L37.88,57.42 L37.95,57.42 L38.02,57.42 L38.02,57.42 L38.08,57.36 L38.08,57.29 L38.08,57.22 L38.08,57.15 L38,57 L38,56.92 L38,56.76 L38.09,56.77 Z"/>
    <polygon fill="#231F20" stroke="#231F20" stroke-width=".22" points="34.71 145.34 35.31 145.34 35.39 145.36 35.45 145.4 35.49 145.47 35.5 145.55 35.49 145.62 35.45 145.67 35.4 145.72 35.32 145.74 35.31 145.74 34.71 145.74 34.71 146.74 34.7 146.81 34.66 146.88 34.65 146.88 34.59 146.92 34.51 146.93 34.44 146.92 34.37 146.88 34.33 146.82 34.31 146.75 34.31 146.74 34.31 145.74 32.92 145.74 32.84 145.72 32.77 145.68 32.73 145.62 32.72 145.55 32.72 145.5 33.52 141.53 33.55 141.45 33.59 141.41 33.72 141.37 33.78 141.38 33.85 141.42 33.9 141.48 33.91 141.56 33.91 141.57 33.91 141.6 33.16 145.34 34.31 145.34 34.31 144.35 34.33 144.28 34.37 144.21 34.44 144.16 34.51 144.15 34.58 144.16 34.65 144.2 34.69 144.26 34.71 144.34 34.71 144.35"/>
  </g>
</svg>
